<?xml version="1.0" encoding="UTF-8" standalone="no"?>
<!DOCTYPE svg PUBLIC "-//W3C//DTD SVG 1.1//EN" "http://www.w3.org/Graphics/SVG/1.1/DTD/svg11.dtd">
<svg width="100%" height="100%" viewBox="0 0 191 132" version="1.1" xmlns="http://www.w3.org/2000/svg" xmlns:xlink="http://www.w3.org/1999/xlink" xml:space="preserve" xmlns:serif="http://www.serif.com/" style="fill-rule:evenodd;clip-rule:evenodd;stroke-linejoin:round;stroke-miterlimit:2;">
    <g transform="matrix(1,0,0,1,-27,0)">
        <g id="masaz-skronie" transform="matrix(1,0,0,1,36.8683,-399.032)">
            <rect x="-9.856" y="399.032" width="190.422" height="131.772" style="fill:none;"/>
            <clipPath id="_clip1">
                <rect x="-9.856" y="399.032" width="190.422" height="131.772"/>
            </clipPath>
            <g clip-path="url(#_clip1)">
                <g transform="matrix(1,0,0,1,-9.8561,0.0316639)">
                    <g transform="matrix(1,0,0,1,-74.3113,77.8752)">
                        <path d="M120.65,400.391C120.087,400.277 119.491,400.133 118.999,399.826C118.473,399.497 120.175,398.852 120.276,398.814C121.792,398.246 123.573,398.092 125.169,398.182C128.945,398.395 132.638,400.712 136.132,401.998C138.328,402.804 140.493,403.672 142.635,404.594C140.423,404.629 138.209,404.725 136.001,404.708C134.221,404.697 132.417,404.721 130.623,404.865C130.513,404.629 130.328,404.436 130.044,404.344C126.808,403.322 123.979,401.063 120.65,400.391ZM251.999,432.8C249.264,431.595 246.285,431.07 243.37,430.47C240.144,429.81 236.891,429.283 233.626,428.852C230.601,428.453 227.56,428.197 224.512,428.039C221.351,427.877 218.361,427.084 215.357,426.128C212.691,425.282 210.056,424.367 207.248,424.168C204.213,423.949 201.214,424.616 198.355,425.577C192.211,427.644 186.369,430.49 179.993,431.857C173.847,433.174 167.519,433.663 161.423,435.181C158.131,436.001 155.133,436.117 151.76,436.049C149.092,435.994 146.228,436.086 143.635,436.754C142.165,437.133 140.572,437.371 139.059,437.488C138.636,437.522 137.598,437.552 137.294,437.182C136.886,436.686 138.295,435.573 138.561,435.365C142.123,432.607 146.904,432.026 151.215,431.636C152.731,431.499 157.403,430.318 157.847,430.336C161.432,430.475 165.042,430.62 168.632,430.613C170.073,430.611 169.811,428.43 168.406,428.408C165.521,428.358 162.636,428.135 159.784,427.709C157.164,427.32 154.473,427.877 151.908,427.071C149.764,426.396 147.833,425.144 145.864,424.094C143.703,422.936 141.314,422.19 138.966,421.514C134.545,420.24 129.66,418.574 125.027,419.396C124.358,419.512 122.979,419.921 122.456,419.301C122.101,418.881 123.104,417.742 123.328,417.47C123.922,416.735 125.029,415.743 126.134,415.316C127.997,415.506 129.894,415.485 131.497,415.562C136.249,415.791 140.985,417.771 145.674,418.572C150.633,419.419 155.009,420.722 159.4,423.226C161.372,424.353 163.243,425.632 165.273,426.656C167.341,427.699 169.165,427.75 171.368,427.214C172.768,426.875 172.126,424.799 170.819,424.87C167.108,425.07 163.668,422.148 160.652,420.378C157.229,418.366 153.648,416.984 149.778,416.119C145.952,415.265 142.062,414.854 138.248,413.891C136.375,413.422 134.511,412.982 132.595,412.725C130.614,412.457 128.55,412.62 126.557,412.439C126.043,412.394 121.283,411.541 121.781,410.74C122.578,409.457 125.179,408.879 126.544,408.594C129.961,407.879 133.512,408.264 136.969,408.314C140.326,408.365 143.674,408.07 147.032,408.082C148.775,408.088 150.504,408.22 152.226,408.493C153.759,408.736 155.188,409.33 156.696,409.639C158.516,411.554 162.312,411.138 164.611,410.742C170.713,409.689 176.815,410.493 182.957,410.393C184.807,410.362 186.652,410.254 188.475,409.922C190.522,409.55 190.254,406.563 188.143,406.691C182.382,407.041 176.627,406.904 170.861,407.105C168.522,407.187 166.232,407.532 163.927,407.907C162.42,408.152 160.313,408.559 158.94,407.664C156.942,406.361 159.32,403.251 160.413,402.254C162.376,400.46 164.767,399.568 167.396,399.397C170.088,399.224 172.794,399.75 175.485,399.758C178.478,399.766 181.362,399.191 184.271,398.545C189.521,397.379 194.902,396.325 200.233,397.601C202.945,398.251 204.283,399.731 205.829,401.912C207.002,403.568 209.51,404.204 211.4,404.527C213.496,404.887 215.717,404.551 217.811,404.368C220.909,404.102 224.077,404.073 227.181,404.219C233.092,404.494 239.085,404.341 244.987,403.963C246.725,403.854 246.372,401.366 244.718,401.341C241.057,401.283 237.419,401.424 233.782,401.614C228.922,399.845 223.753,398.756 219.852,395.089C216.415,391.86 214.843,387.289 213.429,382.928C213.044,381.74 211.369,382.44 211.654,383.593C212.838,388.352 213.877,393.766 217.26,397.521C219.279,399.763 221.86,400.84 224.604,401.959C224.721,402.005 224.843,402.049 224.961,402.097C224.931,402.097 224.899,402.1 224.869,402.101C222.041,402.237 219.212,402.191 216.386,402.346C216.215,402.354 216.044,402.359 215.874,402.37C215.865,402.127 215.796,401.887 215.652,401.676C214.571,400.093 213.136,398.927 212.304,397.153C211.439,395.312 210.967,393.278 210.651,391.278C210.013,387.249 209.931,383.168 208.708,379.245C208.283,377.888 206.361,378.689 206.684,380.005C207.763,384.402 207.331,389.152 207.915,393.637C208.272,396.39 209.247,400.037 211.411,402.159C210.242,401.813 209.51,401.066 208.503,400.186C206.852,398.742 205.295,397.108 203.346,396.069C201.061,394.852 198.232,394.667 195.702,394.61C189.734,394.479 184.034,396.641 178.172,397.368C172.689,398.047 166.577,395.81 161.377,398.346C158.259,399.864 155.629,402.767 155.598,406.207C153.386,405.216 150.676,404.94 148.382,404.758C146.024,403.367 143.753,402.03 141.195,401.011C138.549,399.957 135.847,399.051 133.219,397.949C128.966,396.169 125.243,394.799 120.588,395.918C117.909,396.563 114.099,399.205 117.293,401.92C118.622,403.05 120.843,403.139 122.397,403.84C123.605,404.385 124.751,405.03 125.934,405.583C125.333,405.728 124.736,405.895 124.146,406.089C121.656,406.914 116.817,409.76 119.738,412.803C120.575,413.678 121.632,414.253 122.798,414.646C121.466,415.716 120.422,417.152 120.151,418.436C119.868,419.77 120.446,421.088 121.651,421.664C121.593,421.714 121.544,421.771 121.499,421.83C115.937,421.946 110.491,423.625 105.433,425.864C94.71,430.607 91.571,441.323 88.026,451.518C87.602,452.738 89.326,453.536 89.882,452.334C91.911,447.951 93.793,443.465 96.457,439.418C99.162,435.307 102.668,432.476 107.129,430.389C120.659,424.057 140.049,424.854 140.205,424.908C143.333,425.994 146.081,427.727 149.063,429.118C149.088,429.131 149.115,429.142 149.142,429.152C146.284,429.283 143.462,429.559 140.719,430.636C137.868,431.753 133.781,433.991 134.365,437.664C134.935,441.244 139.769,440.365 142.18,439.785C144.05,439.336 145.688,438.785 147.641,438.569C150.895,438.213 154.169,438.818 157.43,438.635C160.616,438.459 163.641,437.764 166.785,437.327C170.065,436.875 173.338,436.375 176.598,435.795C182.752,434.701 188.75,432.974 194.667,430.975C197.609,429.979 200.438,428.687 203.517,428.154C206.893,427.572 209.971,428.417 213.161,429.439C215.729,430.266 218.293,431.074 220.954,431.553C224.165,432.129 227.521,432.067 230.767,432.418C234.039,432.773 237.29,433.293 240.522,433.916C244.026,434.586 247.499,435.715 251.053,436.038C252.931,436.208 253.826,433.607 251.999,432.8Z" style="fill:rgb(182,153,105);fill-rule:nonzero;"/>
                    </g>
                    <g transform="matrix(1,0,0,1,-74.3113,77.8752)">
                        <path d="M174.463,355.621C173.836,354.444 171.749,355.256 172.025,356.541C172.903,360.625 174.44,364.533 175.279,368.628C176.167,372.958 176.17,377.119 175.472,381.47C175.266,382.755 177.107,383.277 177.638,382.104C181.471,373.615 178.629,363.438 174.463,355.621Z" style="fill:rgb(182,153,105);fill-rule:nonzero;"/>
                    </g>
                    <g transform="matrix(1,0,0,1,-74.3113,77.8752)">
                        <path d="M168.902,376.795C166.897,374.696 164.903,373.118 163.67,370.389C162.224,367.188 162.46,363.559 162.267,360.135C162.202,358.984 160.323,358.917 160.237,360.082C159.948,364.013 159.581,367.631 160.851,371.445C161.893,374.573 164.296,377.945 167.283,379.444C168.999,380.306 170.029,377.974 168.902,376.795Z" style="fill:rgb(182,153,105);fill-rule:nonzero;"/>
                    </g>
                    <g transform="matrix(1,0,0,1,-74.3113,77.8752)">
                        <path d="M128.99,352.964C129.31,352.768 129.487,352.492 129.563,352.192C129.742,352.249 129.921,352.307 130.1,352.365C130.933,352.637 130.912,354.585 130.976,355.258C131.161,357.223 130.804,359.116 130.401,361.027C130.125,362.337 129.95,363.622 129.882,364.893C129.429,363.448 129.119,361.973 128.878,360.666C128.59,359.112 127.314,353.998 128.99,352.964ZM253.61,321.195C252.042,321.626 250.409,321.708 248.827,322.116C247.27,322.518 245.713,322.917 244.154,323.317C241.046,324.114 237.926,324.875 234.833,325.729C228.46,327.489 222.091,329.271 215.782,331.25C209.851,333.113 204.007,335.28 197.882,336.445C191.681,337.625 185.789,337.073 179.636,335.97C173.49,334.867 167.601,332.628 161.848,330.259C159.175,329.159 156.776,327.819 154.251,326.443C152.695,325.595 150.087,324.146 148.239,324.803C144.904,325.986 145.612,330.915 146.33,333.533C146.537,334.285 146.834,334.994 147.203,335.661C141.97,336.162 136.973,338.643 131.896,339.834C128.618,340.605 125.391,341.604 122.16,342.549C118.865,343.512 115.47,344.712 112.103,345.393C111.239,345.136 110.286,346.162 110.839,347.173C112.467,350.152 115.429,351.516 118.678,352.056C117.582,352.294 116.48,352.532 115.371,352.782C111.457,353.662 107.848,355.557 105.839,359.191C104.641,361.36 104.785,364.159 104.909,366.558C105.047,369.245 105.663,371.911 106.473,374.479C105.279,374.899 103.898,374.991 102.66,375.313C100.929,375.763 99.178,376.115 97.411,376.392C96.564,376.526 95.714,376.631 94.861,376.714C94.848,376.694 94.836,376.671 94.822,376.65C93.761,375.125 93.604,373.145 93.405,371.346C93.133,368.871 93.075,366.374 92.959,363.888C92.761,359.69 92.47,354.795 90.352,351.054C88.347,347.515 84.577,346.801 80.864,346.111C75.755,345.163 70.554,344.84 65.466,343.792C64.315,343.555 64.047,345.339 65.187,345.588C69.94,346.628 74.693,347.68 79.447,348.715C81.116,349.078 82.808,349.394 84.425,349.95C86.607,350.701 87.46,352.132 88.108,354.257C89.399,358.488 89.263,363.132 89.348,367.5C89.408,370.555 89.352,374.036 90.513,376.97C89.637,376.99 88.761,376.996 87.888,376.988C84.736,376.959 81.624,376.82 78.489,376.479C75.726,376.18 73.428,374.819 70.803,374.01C69.528,373.615 68.674,375.362 69.948,375.954C72.481,377.126 74.614,378.816 77.382,379.446C80.755,380.215 84.367,380.123 87.802,380.28C94.32,380.578 101.532,380.232 107.442,377.245C109.538,382.642 112.759,387.641 115.887,392.471C116.531,393.461 117.909,392.413 117.353,391.423C114.428,386.224 111.527,381.061 109.462,375.448C108.455,372.716 107.801,369.881 107.552,366.979C107.335,364.461 107.339,361.113 108.43,358.757C109.362,356.743 111.883,355.912 113.838,355.315C117.004,354.349 120.461,354.08 123.692,353.331C124.328,353.183 124.955,353.015 125.577,352.833C124.862,355.129 125.457,358.27 125.777,360.217C126.086,362.106 126.497,363.996 127.115,365.808C128.047,368.552 129.681,370.72 131.207,373.127C131.954,374.31 134.16,373.89 134.231,372.411C134.351,369.972 133.275,367.723 133.43,365.247C133.596,362.572 134.324,359.993 134.365,357.303C134.398,355.161 134.126,352.833 132.875,351.041C132.686,350.771 132.481,350.557 132.263,350.384C134.705,349.378 137.135,348.336 139.653,347.508C141.039,347.051 142.457,346.804 143.892,346.679C141.889,348.573 139.653,351.74 140.238,354.487C140.475,355.593 142.038,355.742 142.269,354.54C142.693,352.321 145.801,347.645 148.334,347.757C150.898,347.873 153.614,349.322 156.07,350.037C158.718,350.811 161.423,351.343 164.192,351.135C166.585,350.956 169.679,349.667 170.283,347.123C170.574,345.897 169.046,345.182 168.125,345.79C166.922,346.584 166.302,347.579 164.787,347.916C163.334,348.238 161.816,348.08 160.362,347.862C158.802,347.626 157.283,347.216 155.777,346.757C156.816,346.716 157.85,346.624 158.872,346.447C161.639,345.974 164.303,344.961 167.039,344.339C170.297,343.598 173.616,343.879 176.892,344.343C179.956,344.777 182.97,345.53 186,346.146C188.728,346.699 191.528,346.87 194.26,347.429C199.771,348.553 203.643,351.308 206.269,356.276C208.978,361.4 209.618,367.28 210.861,372.87C211.157,374.199 213.258,374.042 213.011,372.65C212.104,367.545 211.153,362.42 209.915,357.385C208.737,352.59 206.323,348.667 202.004,346.147C201.969,346.127 201.932,346.11 201.896,346.088C204.694,346.221 207.375,346.837 209.821,348.75C213.876,351.921 216.738,357.048 219.044,361.547C223.989,371.194 227.939,381.956 228.307,392.878C228.36,394.463 230.667,394.142 230.703,392.632C230.859,386.044 230.386,379.994 228.141,373.751C226.219,368.406 223.691,363.273 220.898,358.337C218.228,353.616 214.79,348.373 210.082,345.468C206.037,342.974 201.203,343.219 196.688,344.05C193.378,343.195 189.861,342.896 186.579,342.427C180.333,341.532 174.448,339.808 168.084,340.925C165.421,341.391 162.876,342.415 160.29,343.171C156.889,344.166 153.093,343.958 149.6,343.837C146.701,343.737 143.768,343.546 140.9,344.097C138.248,344.605 135.831,345.8 133.502,347.117C131.472,348.267 129.393,349.13 127.274,349.836C127.218,349.813 127.163,349.793 127.102,349.777C122.446,348.693 117.312,350.449 113.678,346.95C116.494,346.57 119.258,346.21 122.069,345.573C125.354,344.827 128.617,343.986 131.9,343.233C137.672,341.908 143.343,339.127 149.302,338.872C149.467,338.865 149.612,338.835 149.746,338.794C151.383,340.255 153.375,341.362 155.356,342.112C157.27,342.835 158.52,340.063 156.641,339.189C152.84,337.425 149.463,335.28 148.686,330.841C148.497,329.764 147.943,326.683 149.845,327.246C151.073,327.61 152.083,328.879 152.995,329.726C153.922,330.588 154.949,331.261 156.042,331.891C158.437,333.274 161.308,334.166 163.882,335.164C166.461,336.167 169.074,337.105 171.719,337.918C176.954,339.529 182.04,340.037 187.468,340.346C198.526,340.971 208.748,336.847 219.14,333.707C224.994,331.939 230.865,330.236 236.746,328.562C239.565,327.757 242.363,326.873 245.17,326.029C246.706,325.567 248.239,325.104 249.773,324.641C251.32,324.174 252.721,323.402 254.268,322.95C255.437,322.61 254.762,320.878 253.61,321.195Z" style="fill:rgb(182,153,105);fill-rule:nonzero;"/>
                    </g>
                </g>
            </g>
        </g>
    </g>
</svg>
