<?xml version="1.0" encoding="UTF-8" standalone="no"?>
<!DOCTYPE svg PUBLIC "-//W3C//DTD SVG 1.1//EN" "http://www.w3.org/Graphics/SVG/1.1/DTD/svg11.dtd">
<svg width="100%" height="100%" viewBox="0 0 212 216" version="1.1" xmlns="http://www.w3.org/2000/svg" xmlns:xlink="http://www.w3.org/1999/xlink" xml:space="preserve" xmlns:serif="http://www.serif.com/" style="fill-rule:evenodd;clip-rule:evenodd;stroke-linejoin:round;stroke-miterlimit:2;">
    <g transform="matrix(1,0,0,1,-291,-765)">
        <g id="masaz-karku" transform="matrix(1,0,0,1,-0.467526,-77.8723)">
            <rect x="291.468" y="843.612" width="211.796" height="214.541" style="fill:none;"/>
            <clipPath id="_clip1">
                <rect x="291.468" y="843.612" width="211.796" height="214.541"/>
            </clipPath>
            <g clip-path="url(#_clip1)">
                <g transform="matrix(1,0,0,1,-589.098,332.225)">
                    <path d="M1029.58,599.581C1023.99,598.305 1018.67,599.849 1013.97,602.881C1011.67,604.361 1009.5,606.271 1007.93,608.521C1006.86,610.047 1005.21,612.966 1006.46,614.784C1006.6,614.985 1006.85,614.93 1007,614.782C1007.54,614.23 1007.79,613.475 1008.11,612.783C1008.51,611.921 1009.07,611.095 1009.62,610.331C1010.85,608.643 1012.4,607.214 1014.05,605.959C1017.28,603.51 1021.11,601.801 1025.2,601.818C1029.5,601.84 1034.54,603.283 1036.14,607.693C1036.9,609.774 1035.89,611.752 1033.92,612.595C1031.59,613.596 1028.65,612.094 1026.52,611.191C1025.83,610.896 1025.09,611.807 1025.61,612.397C1029.19,616.454 1037.56,617.189 1039.06,610.739C1040.46,604.728 1034.64,600.733 1029.58,599.581Z" style="fill:rgb(182,153,105);fill-rule:nonzero;"/>
                </g>
                <g transform="matrix(1,0,0,1,-589.098,332.225)">
                    <path d="M1029.72,609.781C1029.45,606.703 1024.89,606.688 1022.63,606.831C1021.36,606.911 1019.92,607.241 1018.92,608.068C1018.46,608.449 1018.04,609.1 1017.96,609.693C1017.81,610.709 1018.28,611.822 1017.06,612.378C1016.79,612.498 1016.96,612.891 1017.23,612.79C1018.38,612.373 1019.08,612.078 1019.87,611.124C1020.6,610.226 1020.75,609.913 1021.97,609.747C1024.18,609.451 1026.25,610.183 1028.27,610.917C1029.05,611.195 1029.79,610.586 1029.72,609.781Z" style="fill:rgb(182,153,105);fill-rule:nonzero;"/>
                </g>
                <g transform="matrix(1,0,0,1,-589.098,332.225)">
                    <path d="M1011.12,590.772C1010.69,589.595 1009.65,589.502 1008.7,588.911C1007.83,588.367 1007.24,587.492 1006.85,586.561C1006.09,584.75 1005.89,581.805 1006.39,579.915C1006.5,579.475 1005.96,579.26 1005.74,579.653C1004.27,582.284 1003.22,584.626 1003.98,587.708C1004.55,590.015 1007.94,594.599 1010.68,592.421C1011.19,592.02 1011.35,591.371 1011.12,590.772Z" style="fill:rgb(182,153,105);fill-rule:nonzero;"/>
                </g>
                <g transform="matrix(1,0,0,1,-589.098,332.225)">
                    <path d="M1027.82,565.134C1025.41,566.951 1022.54,567.946 1019.98,569.509C1017.3,571.154 1015.38,573.914 1013.89,576.627C1011.77,580.467 1009.63,587.916 1014.12,591.012C1014.63,591.365 1015.4,591.572 1015.99,591.253C1018.57,589.859 1015.94,587.932 1015.55,586.141C1015.05,583.868 1015.8,581.438 1016.29,579.232C1016.97,576.182 1018.73,572.986 1021.06,570.918C1023.28,568.952 1025.96,567.589 1028.19,565.624C1028.49,565.363 1028.14,564.894 1027.82,565.134Z" style="fill:rgb(182,153,105);fill-rule:nonzero;"/>
                </g>
                <g transform="matrix(1,0,0,1,-589.098,332.225)">
                    <path d="M1027.86,574.796C1026.35,575.291 1024.81,575.815 1023.61,576.907C1022.24,578.149 1021.24,579.641 1020.37,581.259C1019.49,582.898 1018.95,584.706 1018.75,586.556C1018.56,588.279 1018.52,590.785 1020.35,591.594C1020.91,591.838 1021.78,591.657 1022.11,591.105C1022.85,589.841 1022.33,588.698 1022.26,587.327C1022.17,585.833 1022.58,584.199 1023.04,582.792C1023.49,581.4 1024.18,580.08 1024.99,578.858C1025.82,577.597 1026.73,576.124 1028.14,575.468C1028.57,575.268 1028.31,574.649 1027.86,574.796Z" style="fill:rgb(182,153,105);fill-rule:nonzero;"/>
                </g>
                <g transform="matrix(1,0,0,1,-589.098,332.225)">
                    <path d="M1049.74,579.304C1046.68,577.772 1042.72,579.985 1040.16,581.646C1038.68,582.612 1037.37,583.765 1036.15,585.036C1034.87,586.378 1033.98,587.911 1032.82,589.324C1032.56,589.639 1033,590.044 1033.31,589.814C1034.51,588.927 1035.92,588.253 1037.16,587.414C1038.53,586.485 1039.95,585.563 1041.41,584.771C1042.7,584.069 1044.07,583.545 1045.46,583.083C1047.04,582.559 1048.63,582.434 1050.03,581.43C1050.85,580.839 1050.53,579.705 1049.74,579.304Z" style="fill:rgb(182,153,105);fill-rule:nonzero;"/>
                </g>
                <g transform="matrix(1,0,0,1,-589.098,332.225)">
                    <path d="M1045.67,587.119C1042.18,586.951 1038.89,589.571 1036.3,591.672C1035.63,592.216 1035.95,593.195 1036.76,593.349C1040.12,593.998 1043.6,591.087 1046.31,589.474C1047.3,588.886 1046.76,587.175 1045.67,587.119Z" style="fill:rgb(182,153,105);fill-rule:nonzero;"/>
                </g>
                <g transform="matrix(1,0,0,1,-589.098,332.225)">
                    <path d="M1051.96,592.763C1050.27,591.225 1047.48,592.121 1045.57,592.678C1043.64,593.242 1040.94,594.692 1040.66,596.918C1040.57,597.673 1041.42,598.453 1042.16,598.057C1043.72,597.22 1045.24,596.75 1046.98,596.403C1048.67,596.066 1050.47,596.16 1051.97,595.17C1052.86,594.589 1052.64,593.377 1051.96,592.763Z" style="fill:rgb(182,153,105);fill-rule:nonzero;"/>
                </g>
                <g transform="matrix(1,0,0,1,-589.098,332.225)">
                    <path d="M1051.03,602.402C1049.93,597.808 1042.76,600.322 1041.1,603.229C1040.78,603.787 1041,604.385 1041.65,604.527C1042.92,604.807 1044.31,604.453 1045.57,604.276C1046.96,604.08 1048.32,604.207 1049.71,604.138C1050.49,604.098 1051.21,603.171 1051.03,602.402Z" style="fill:rgb(182,153,105);fill-rule:nonzero;"/>
                </g>
                <g transform="matrix(1,0,0,1,-589.098,332.225)">
                    <path d="M1071.81,659.881C1072.14,660.826 1072.62,661.837 1071.49,662.292C1070.41,662.73 1069.28,662.278 1068.37,661.686C1067.18,660.905 1065.84,659.655 1064.84,658.302C1065.25,657.636 1065.37,656.743 1065.14,655.652C1064.82,654.148 1064.22,652.717 1063.87,651.221C1063.34,648.918 1063.32,646.563 1063.57,644.229C1064.65,643.836 1065.85,643.683 1066.96,643.423C1067.13,643.382 1067.31,643.34 1067.5,643.291C1067.18,649.067 1069.91,654.52 1071.81,659.881ZM1076.52,651.694C1078.08,652.399 1078.58,653.188 1078.87,654.905C1079.13,656.447 1079.37,657.869 1080.04,659.293C1080.44,660.121 1080.86,660.977 1081.09,661.868C1081.33,662.765 1081.34,662.833 1080.47,662.811C1078.96,662.774 1077.54,662.211 1076.37,661.274C1075.73,660.762 1075.29,660.317 1074.77,660.021C1074.31,658.323 1073.42,656.601 1072.96,655.353C1072.05,652.877 1071.08,650.284 1070.55,647.646C1072.71,648.764 1074.26,650.678 1076.52,651.694ZM1061.49,656.545C1059.31,656.374 1057.06,655.742 1055.68,653.948C1054.64,652.598 1053.93,650.857 1053.54,649.148C1055.24,648.521 1056.88,647.745 1058.48,646.88C1059.29,646.435 1060.1,645.979 1060.92,645.536C1060.8,648.156 1061.05,650.756 1061.71,653.322C1061.95,654.229 1062.26,655.11 1062.46,656.021C1062.49,656.138 1062.48,656.404 1062.49,656.545C1062.16,656.604 1061.82,656.57 1061.49,656.545ZM1050.25,652.463C1050.17,654.108 1047.86,654.148 1046.67,654.202C1044.97,654.278 1043.01,653.997 1041.4,653.451C1040.57,653.173 1040.24,652.421 1039.96,651.611C1039.99,651.603 1040.01,651.597 1040.04,651.588C1041.19,651.231 1041.97,650.639 1042.44,649.908C1043.1,650.162 1043.77,650.398 1044.51,650.521C1045.96,650.758 1047.64,650.625 1049.08,650.378C1049.41,650.324 1049.72,650.256 1050.04,650.189C1050.13,650.945 1050.29,651.716 1050.25,652.463ZM1037.7,661.146C1034.9,664.617 1033.15,668.838 1030.68,672.543C1028.03,676.52 1024.51,679.629 1021.15,682.971C1019.54,684.565 1018.02,686.363 1016.74,688.23C1016.05,689.231 1015.46,690.251 1015.19,691.354C1012.44,689.058 1009.24,687.362 1006.55,684.97C1003.49,682.247 1000.5,679.361 997.7,676.377C996.737,675.352 991.297,669.835 987.498,665.76C987.545,665.55 987.53,665.323 987.413,665.105C984.457,659.711 981.488,654.303 978.356,649C974.938,643.213 970.957,637.678 967.041,632.218C965.629,630.247 964.205,628.271 962.737,626.326C964.129,626.31 965.571,625.971 966.875,625.729C969.394,625.27 971.915,625.224 974.468,625.237C974.616,625.24 974.756,625.224 974.888,625.197C974.667,626.511 974.575,627.832 974.608,629.08C974.705,632.594 975.765,636.238 976.796,639.588C977.271,641.135 978.016,642.476 978.95,643.779C979.476,644.507 980.876,645.479 981.088,646.026C982.073,648.568 986.591,648.711 988.817,648.81C990.554,648.889 992.065,648.64 993.667,649.411C995.218,650.155 996.653,651.115 998.23,651.813C1001.45,653.24 1005.33,653.797 1008.8,654.161C1012.35,654.534 1015.71,654.492 1019.17,653.511C1021.84,652.756 1024.69,651.973 1027.1,650.521C1027.63,650.898 1028.03,651.249 1028.57,651.494C1028.34,651.848 1028.16,652.259 1028.06,652.827C1027.79,654.346 1027.93,655.746 1028.14,657.265C1028.29,658.382 1029.93,658.35 1030.09,657.248C1030.28,655.878 1030.47,654.508 1030.65,653.137C1030.7,652.758 1030.8,652.372 1030.87,651.991C1031.55,652.076 1032.24,652.122 1032.94,652.127C1034.78,652.138 1036.85,652.22 1038.73,651.894C1038.88,652.927 1039.13,653.846 1040.16,654.651C1040.81,655.154 1041.48,655.549 1042.18,655.857C1040.22,656.86 1038.95,659.603 1037.7,661.146ZM1072.43,639.916C1075.66,636.703 1078.94,633.537 1081.99,630.144C1085.17,626.592 1088.59,622.96 1090.91,618.768C1093.25,614.557 1093.01,609.864 1092.46,605.244C1091.92,600.767 1092.02,596.262 1091.55,591.776C1090.63,583.039 1087.53,574.337 1081.59,567.736C1075.9,561.41 1067.94,557.496 1060.03,554.7C1049.31,550.913 1037.87,550.471 1027.5,555.654C1022.99,557.91 1019.24,561.123 1015.44,564.381C1013.63,565.921 1011.8,567.442 1009.86,568.807C1008.57,569.713 1007.21,570.449 1005.82,571.146C1008.25,567.117 1010.95,563.131 1012.87,558.837C1014.69,554.756 1014.9,550.186 1016.36,545.992C1017.88,541.616 1020.7,538.173 1024.51,535.602C1026.31,534.383 1028.27,533.42 1030.13,532.293C1032.53,530.842 1034.93,529.401 1037.33,527.963C1040.84,525.856 1044.35,523.748 1047.85,521.646C1051.54,519.433 1055.32,517.346 1058.77,514.785C1059.71,514.094 1058.82,512.497 1057.75,513.005C1052.99,515.258 1048.56,518.203 1044.05,520.906C1039.44,523.68 1034.83,526.463 1030.2,529.213C1026.27,531.55 1022.25,533.54 1018.83,536.625C1015.44,539.687 1014.08,543.563 1013.04,547.88C1012.53,550.012 1012.18,552.181 1011.63,554.304C1011.02,556.684 1010.03,558.827 1008.84,560.966C1006.4,565.394 1003.67,569.665 1001.19,574.067C998.861,578.187 997.305,582.555 995.443,586.882C994.088,590.032 992.251,593.414 989.491,595.578C987.7,596.987 987.413,595.108 987.559,593.1C988.654,590.566 989.629,587.973 990.696,585.471C991.874,582.707 993.519,580.147 994.546,577.332C995.075,575.888 995.551,574.449 996.2,573.05C996.75,571.861 997.837,570.767 997.933,569.431C997.957,569.117 997.689,568.785 997.349,568.855C995.364,569.26 994.385,572.019 993.622,573.661C992.556,575.949 991.38,578.175 990.185,580.398C987.704,585.016 986.113,590.054 983.796,594.749C982.083,598.216 979.871,602.086 976.097,603.524C975.518,603.744 974.938,603.918 974.325,604.008C974.146,604.035 973.878,604.069 973.7,604.021C973.675,604.014 973.659,604.012 973.642,604.008C973.646,603.996 973.648,603.979 973.645,603.954C973.475,602.889 974.188,601.575 974.595,600.645C974.628,600.57 974.658,600.493 974.688,600.418C975.271,599.462 975.838,598.499 976.409,597.539C979.576,592.214 982.027,586.449 984.392,580.729C985.593,577.827 987.22,575.116 988.773,572.394C989.499,571.126 990.206,569.851 990.879,568.558C991.505,567.36 992.215,566.21 992.032,564.82C991.947,564.192 991.209,563.922 990.711,564.28C989.866,564.885 989.527,565.682 989.083,566.596C988.496,567.812 987.843,568.996 987.183,570.173C985.968,572.345 984.691,574.48 983.534,576.688C982.346,578.955 981.468,581.348 980.45,583.688C979.396,586.108 978.302,588.512 977.309,590.954C976.375,593.25 975.685,595.521 974.536,597.734C974.46,597.884 974.382,598.032 974.304,598.18C972.806,600.165 970.977,602.807 971.228,604.646C970.307,605.733 968.653,606.323 967.451,605.439C965.839,604.258 965.975,602.008 966.315,599.998C966.838,599.373 967.253,598.634 967.603,597.996C968.479,596.395 969.02,594.637 969.916,593.021C972.626,588.146 975.153,583.145 976.937,577.847C977.776,575.351 978.44,572.72 978.811,570.109C979.165,567.609 979.548,564.813 978.782,562.358C978.54,561.583 977.284,561.613 977.043,562.373C976.351,564.557 976.541,566.96 976.396,569.227C976.233,571.748 975.94,574.103 975.205,576.529C973.815,581.112 971.849,585.504 969.645,589.748C968.718,591.538 967.566,593.187 966.569,594.931C965.865,596.168 965.367,597.545 964.492,598.672C962.755,600.913 961.921,598.29 960.806,597.027C960.908,596.83 961.001,596.646 961.081,596.484C963.778,590.982 964.39,585.084 965.822,579.189C967.063,574.095 969.179,569.315 970.655,564.303C971.301,562.11 971.632,559.871 972.19,557.646C972.616,555.948 972.955,554.196 972.932,552.444C974.121,552.301 975.284,551.125 976.038,550.382C977.278,549.164 978.351,547.811 979.446,546.467C982.711,542.453 987.241,539.484 990.843,535.783C992.568,534.011 994.239,532.224 996.239,530.755C998.27,529.263 1000.28,527.81 1002.07,526.021C1003.9,524.191 1005.42,522.058 1007.15,520.135C1009.09,517.959 1009.81,515.727 1010.51,512.961C1010.76,511.983 1009.42,511.726 1008.88,512.305C1007.18,514.147 1006.46,516.469 1004.75,518.316C1003.07,520.135 1001.51,522.148 999.721,523.849C998.037,525.446 996.088,526.761 994.161,528.043C992.152,529.379 990.476,531.247 988.815,532.979C985.198,536.743 981.04,539.924 977.514,543.791C976.573,544.822 975.817,546.021 975.017,547.16C974.494,547.897 973.939,548.607 973.334,549.277C973.116,549.516 972.862,549.707 972.605,549.894C972.108,547.72 971.335,545.673 970.987,543.442C970.579,540.831 970.505,538.222 970.496,535.584C970.485,530.965 970.329,526.395 968.989,521.94C968.657,520.836 968.201,519.773 967.698,518.738C966.904,517.104 964.295,518.177 965.083,519.825C967.04,523.901 967.507,528.295 967.605,532.765C967.704,537.323 967.616,541.724 968.44,546.237C968.827,548.359 969.545,550.385 969.997,552.49C970.539,555.007 969.7,557.502 968.854,559.847C968.152,561.798 967.63,563.829 967.19,565.859C966.645,568.387 965.64,570.757 964.856,573.217C963.454,577.614 962.517,582.154 961.704,586.693C961.392,588.442 960.901,590.193 960.271,592.207C959.766,593.815 957.654,601.507 955.021,600.623C955.08,600.188 955.139,599.763 955.205,599.354C955.754,596.031 956.282,592.701 956.859,589.38C957.349,586.584 958.677,583.986 959.346,581.229C960.07,578.236 959.729,575.192 960.065,572.149C960.438,568.779 961.179,565.482 961.949,562.186C962.271,560.816 960.018,560.507 959.751,561.924C958.817,566.906 957.28,571.781 957.4,576.905C957.46,579.446 956.658,581.817 955.829,584.186C954.979,586.604 954.401,588.973 953.979,591.5C953.521,594.229 953.062,596.957 952.603,599.688C952.375,601.063 952.379,604.022 950.932,604.839C948.78,606.051 948.146,601.961 947.999,600.778C947.87,599.759 947.842,598.738 947.825,597.719C948.052,597.345 948.244,596.93 948.397,596.477C949.532,593.089 948.665,588.963 948.431,585.497C948.149,581.368 949.025,577.354 949.5,573.271C949.999,568.992 950.329,564.688 950.994,560.429C951.239,558.861 948.715,558.547 948.546,560.137C947.81,567.061 946.879,573.963 946.105,580.878C945.735,584.17 946.403,587.473 946.401,590.763C946.401,592.46 946.295,594.304 945.645,595.89C944.925,597.647 943.667,596.286 942.869,595.313C941.18,593.252 940.563,589.849 940.15,587.303C940.041,586.615 939.965,585.918 939.915,585.217C940.023,584.873 940.114,584.516 940.192,584.154C940.729,581.689 940.599,578.879 940.485,576.369C940.457,575.76 940.424,575.149 940.392,574.537C941.045,568.382 942.242,562.146 941.82,555.974C941.766,555.18 940.483,555.198 940.431,555.987C940.111,559.998 939.823,563.992 939.324,567.987C938.822,572.019 938.304,576.046 938.1,580.103C938.026,581.544 938,582.996 938.021,584.454C937.924,584.527 937.822,584.591 937.713,584.645C936.046,585.438 935.755,582.602 935.604,581.421C935.314,579.171 935.436,576.881 935.522,574.625C935.677,570.545 935.515,566.533 935.181,562.467C934.771,557.457 934.478,552.688 935.269,547.694C936.047,542.787 937.511,537.987 938.804,533.198C939.155,531.895 937.326,531.072 936.799,532.401C934.946,537.067 933.466,541.815 932.53,546.753C931.594,551.696 931.494,556.715 931.752,561.726C931.972,565.988 932.248,570.15 932.045,574.419C931.959,576.212 931.891,578.01 931.97,579.798C927.771,579.757 923.583,579.521 919.377,579.57C914.891,579.625 910.762,580.316 906.468,581.605C902.222,582.883 898.103,584.679 894.124,586.624C889.878,588.693 885.866,591.199 881.623,593.268C881.3,593.426 881.506,593.93 881.839,593.785C885.771,592.06 889.92,590.815 893.991,589.458C898.058,588.103 902.16,586.772 906.306,585.669C908.272,585.146 910.197,584.508 912.203,584.131C914.35,583.727 916.548,583.617 918.728,583.556C923.094,583.429 927.44,583.731 931.803,583.754C932.039,583.756 932.257,583.723 932.46,583.663C932.944,585.618 933.964,587.689 936.047,588.032C936.911,588.174 937.595,588.057 938.142,587.763C938.216,588.983 938.318,590.197 938.456,591.396C938.782,594.232 940.069,597.232 942.465,598.895C943.73,599.768 944.946,599.873 945.97,599.433C945.441,602.602 945.465,605.759 948.428,607.324C950.263,608.294 952.392,607.697 953.526,606C954.234,604.941 954.566,603.614 954.787,602.275C956.641,603.263 958.727,600.589 960.055,598.372C960.233,598.944 960.423,599.52 960.777,600.037C961.599,601.237 963.031,601.615 964.372,601.301C963.997,602.421 963.884,603.589 964.397,604.96C965.082,606.794 966.82,608.262 968.812,608.246C970.325,608.229 971.59,607.424 972.267,606.158C972.581,606.347 972.966,606.5 973.446,606.614C977.125,607.46 980.748,604.196 982.762,601.617C984.044,599.978 985.104,598.195 986.044,596.344C986.263,596.826 986.586,597.287 987.036,597.705C989.177,599.677 992.113,596.482 993.381,595.038C996.002,592.055 997.565,588.39 999.026,584.74C1000.63,580.729 1002.46,576.972 1004.58,573.256C1007.76,572.877 1010.7,571.212 1013.36,569.501C1016.69,567.354 1019.64,564.636 1022.86,562.335C1030.27,557.055 1039.25,555.703 1048.13,556.834C1052.39,557.374 1056.46,558.74 1060.44,560.288C1064.31,561.787 1068.05,563.609 1071.5,565.918C1078.7,570.736 1083.42,577.889 1085.46,586.287C1086.55,590.754 1086.94,595.388 1087.13,599.969C1087.33,604.649 1088.79,609.5 1087.84,614.152C1087.39,616.393 1085.98,618.502 1084.71,620.357C1083.29,622.442 1081.74,624.46 1080.21,626.467C1077.21,630.4 1074.16,634.295 1071.16,638.226C1071.12,638.226 1071.09,638.221 1071.06,638.221C1070.04,638.287 1069.37,638.885 1068.46,639.254C1067.43,639.672 1066.27,639.808 1065.18,639.996C1062.35,640.481 1060.16,641.782 1057.73,643.281C1055.22,644.837 1052.66,646.214 1049.83,647.094C1048.44,647.527 1046.97,647.833 1045.53,648.074C1044.75,648.209 1043.86,648.436 1042.97,648.576C1043.32,646.645 1042.29,644.315 1040.69,642.812C1040.43,642.568 1040.01,642.808 1039.97,643.117C1039.8,644.355 1039.9,645.661 1039.75,646.929C1039.6,648.219 1038.57,648.171 1037.43,648.269C1035.76,648.409 1034.1,648.644 1032.43,648.746C1031.64,648.795 1030.84,648.868 1030.04,648.868C1029.78,648.868 1029.5,648.891 1029.22,648.918C1030.25,647.803 1029.23,645.679 1027.65,646.438C1024.82,647.799 1021.73,648.791 1018.74,649.732C1015.56,650.73 1012.53,650.739 1009.24,650.442C1005.97,650.142 1002.7,649.469 999.608,648.35C998.306,647.879 997.101,647.171 995.863,646.555C994.427,645.842 992.966,645.838 991.392,645.857C988.457,645.892 985.749,645.868 982.926,644.963C982.258,644.748 982.396,644.976 982.297,644.354C982.216,643.849 982.092,643.363 981.974,642.864C981.63,641.401 980.787,640.156 980.26,638.75C979.732,637.341 979.459,635.844 979.136,634.381C978.747,632.627 978.179,631.006 978.012,629.2C977.707,625.899 979.405,622.177 978.264,618.996C978.112,618.576 977.451,618.471 977.202,618.862C976.619,619.775 976.138,620.792 975.753,621.863C975.525,621.729 975.244,621.648 974.897,621.653C972.559,621.672 970.219,621.703 967.891,621.975C966.496,622.136 965.154,622.624 963.8,622.965C962.714,623.242 961.62,623.363 960.513,623.474C958.761,621.282 956.93,619.158 954.956,617.175C952.941,615.148 950.708,613.399 948.405,611.716C947.328,610.924 946.247,610.144 945.208,609.302C943.963,608.294 942.173,607.009 941.385,605.607C941.21,605.296 940.69,605.508 940.866,605.82C941.483,606.923 941.847,608.03 942.618,609.049C943.377,610.051 944.321,610.912 945.249,611.762C947.533,613.854 949.864,615.786 951.858,618.176C956.071,623.229 960.037,628.525 963.86,633.873C967.786,639.362 971.626,644.97 975.142,650.732C976.761,653.386 978.261,656.107 979.817,658.8C980.802,660.497 981.827,662.058 982.989,663.532C984.975,667.974 991.974,675.648 992.921,676.725C997.694,682.129 1002.81,687.519 1008.79,691.589C1011.56,693.468 1014.15,695.329 1016.42,697.799C1017.46,698.923 1018.46,700.068 1019.3,701.348C1020.07,702.504 1020.35,703.876 1021.17,704.984C1021.56,705.507 1022.5,705.566 1022.87,704.98C1024.26,702.77 1022.61,699.994 1021.41,698.059C1020.15,696.012 1018.45,694.241 1016.65,692.624C1017.53,691.364 1018.66,690.262 1019.71,689.173C1021.12,687.708 1022.54,686.261 1024.01,684.851C1027.12,681.877 1030.29,679.057 1032.8,675.531C1035.11,672.291 1036.9,668.706 1038.82,665.237C1040.19,662.776 1040.92,658.252 1044.09,657.439C1044.52,657.328 1044.79,656.99 1044.88,656.628C1045.6,656.739 1046.34,656.792 1047.1,656.805C1049.08,656.835 1051.22,656.391 1052.4,654.659C1052.54,654.458 1052.66,654.217 1052.78,653.954C1052.94,654.52 1053.18,655.071 1053.52,655.605C1055.25,658.325 1058.07,659.222 1061.12,659.623C1062.05,659.744 1062.87,659.657 1063.53,659.391C1064.15,661.115 1065.16,662.628 1066.67,663.926C1068.73,665.703 1072.73,666.616 1074.52,663.924C1074.67,663.689 1074.79,663.44 1074.88,663.181C1075.22,663.516 1075.59,663.815 1075.99,664.092C1076.75,664.627 1077.63,664.979 1078.55,665.186C1077.49,668.507 1072.21,667.641 1069.3,667.754C1067.52,667.82 1065.35,667.96 1063.75,668.817C1061,670.294 1060.24,673.891 1059.75,676.703C1058.32,685.11 1058.42,693.666 1056.85,702.043C1056.03,706.406 1055.44,711.156 1053.4,715.146C1051.59,718.685 1048.35,721.584 1045.93,724.701C1045.12,725.727 1046.52,727.094 1047.54,726.305C1050.77,723.813 1053.86,721.292 1056.05,717.792C1058.44,713.984 1059.19,709.241 1060.04,704.897C1061,699.959 1061.61,695.122 1061.92,690.098C1062.16,686.019 1062.74,682.001 1063.32,677.961C1063.54,676.4 1063.84,674.867 1064.48,673.416C1064.88,672.506 1065.36,672.193 1065.97,672.071C1068.19,671.622 1070.57,671.834 1072.84,671.48C1074.97,671.145 1077.34,670.666 1079.05,669.251C1080.37,668.154 1080.64,666.791 1080.28,665.404C1080.59,665.415 1080.91,665.42 1081.21,665.404C1084.25,665.258 1084,662.092 1083.14,660.082C1082.49,658.58 1081.63,657.33 1081.28,655.704C1080.86,653.782 1080.78,652.069 1079.24,650.688C1078.71,650.219 1077.97,649.932 1077.34,649.624C1076.46,649.195 1075.78,648.607 1075.07,647.954C1073.71,646.71 1072.16,645.082 1070.26,644.784C1070.23,644.78 1070.21,644.782 1070.18,644.78C1070.14,643.983 1070.15,643.186 1070.23,642.387C1071.37,641.846 1072.32,641.068 1072.43,639.916Z" style="fill:rgb(182,153,105);fill-rule:nonzero;"/>
                </g>
                <g transform="matrix(1,0,0,1,-589.098,332.225)">
                    <path d="M943.702,673.685C942.127,671.021 939.855,669.013 937.628,666.91C935.447,664.85 933.372,662.689 931.507,660.342C928.077,656.027 924.655,652.181 919.569,649.788C913.923,647.13 907.976,647.821 902.106,649.211C898.858,649.981 895.575,650.442 892.251,650.732C888.576,651.052 884.993,651.44 881.319,650.883C880.976,650.832 880.924,651.346 881.257,651.412C884.309,652.042 887.351,652.731 890.434,653.19C893.546,653.649 896.988,653.557 900.107,653.217C906.022,652.576 912.198,651.733 917.806,654.212C922.474,656.278 925.313,660.297 928.429,664.11C930.354,666.469 932.547,668.609 934.751,670.706C936.949,672.798 939.168,674.688 941.874,676.098C943.42,676.902 944.391,674.852 943.702,673.685Z" style="fill:rgb(182,153,105);fill-rule:nonzero;"/>
                </g>
                <g transform="matrix(1,0,0,1,-589.098,332.225)">
                    <path d="M1033.35,577.994C1031.29,578.676 1029.43,580.517 1028.46,582.432C1027.72,583.889 1026.91,586.388 1028.55,587.559C1028.73,587.692 1028.96,587.686 1029.14,587.559C1030.34,586.726 1031.3,585.165 1032.25,584.058C1033.39,582.726 1034.75,581.62 1035.25,579.859C1035.59,578.642 1034.6,577.58 1033.35,577.994Z" style="fill:rgb(182,153,105);fill-rule:nonzero;"/>
                </g>
                <g transform="matrix(1,0,0,1,-589.098,332.225)">
                    <path d="M1064.23,599.686C1061.87,600.375 1060.19,602.418 1058.07,603.612C1055.78,604.898 1052.89,605.691 1051.02,607.591C1050.65,607.968 1050.96,608.53 1051.34,608.729C1053.72,609.993 1057.52,608.835 1059.92,608.077C1062.73,607.193 1065.9,605.209 1066.93,602.349C1067.58,600.555 1065.91,599.195 1064.23,599.686Z" style="fill:rgb(182,153,105);fill-rule:nonzero;"/>
                </g>
                <g transform="matrix(1,0,0,1,-589.098,332.225)">
                    <path d="M1077.08,599.924C1076.74,599.234 1076.08,598.791 1075.29,598.896C1072.78,599.226 1072.12,602.122 1071.11,604.029C1070.06,606.015 1068.46,607.752 1066.8,609.247C1066.54,609.48 1066.65,609.876 1067,609.947C1069.57,610.447 1071.92,609.304 1073.69,607.441C1075.34,605.713 1078.36,602.489 1077.08,599.924Z" style="fill:rgb(182,153,105);fill-rule:nonzero;"/>
                </g>
                <g transform="matrix(1,0,0,1,-589.098,332.225)">
                    <path d="M1084.17,602.45C1084.08,601.245 1082.57,601.365 1082.1,602.199C1080.41,605.216 1079.56,608.547 1077.2,611.168C1076.09,612.396 1075.02,613.646 1073.91,614.871C1072.95,615.943 1071.5,617.367 1071,618.728C1070.77,619.331 1071.04,620.038 1071.66,620.273C1075.11,621.605 1078.93,616.758 1080.44,614.281C1082.58,610.765 1084.49,606.623 1084.17,602.45Z" style="fill:rgb(182,153,105);fill-rule:nonzero;"/>
                </g>
            </g>
        </g>
    </g>
</svg>
