<?xml version="1.0" encoding="UTF-8" standalone="no"?>
<!DOCTYPE svg PUBLIC "-//W3C//DTD SVG 1.1//EN" "http://www.w3.org/Graphics/SVG/1.1/DTD/svg11.dtd">
<svg width="100%" height="100%" viewBox="0 0 193 217" version="1.1" xmlns="http://www.w3.org/2000/svg" xmlns:xlink="http://www.w3.org/1999/xlink" xml:space="preserve" xmlns:serif="http://www.serif.com/" style="fill-rule:evenodd;clip-rule:evenodd;stroke-linejoin:round;stroke-miterlimit:2;">
    <g transform="matrix(1,0,0,1,-448,-7)">
        <g id="masaz-plecy" transform="matrix(1,0,0,1,832.586,-77.9038)">
            <rect x="-384.206" y="85.644" width="192.288" height="215.285" style="fill:none;"/>
            <clipPath id="_clip1">
                <rect x="-384.206" y="85.644" width="192.288" height="215.285"/>
            </clipPath>
            <g clip-path="url(#_clip1)">
                <g transform="matrix(1,0,0,1,-447.729,41.4726)">
                    <path d="M199.41,192.649C198.905,191.768 198.368,191.704 197.558,191.183C196.642,190.595 195.831,189.736 195.051,188.983C193.253,187.25 190.773,186.518 190.481,183.655C190.412,182.984 189.382,183.002 189.313,183.667C189.024,186.409 190.782,188.151 192.748,189.791C193.104,190.088 193.468,190.543 193.849,191.058C192.575,190.667 191.398,190.066 190.408,189.056C189.988,188.626 189.209,188.598 188.966,189.255C188.607,190.233 188.864,191.154 189.464,191.953C188.335,192.004 187.207,192.105 186.075,191.957C184.284,191.723 182.888,190.583 181.899,189.15C179.893,186.243 179.529,181.858 179.056,178.471C178.501,174.514 178.084,170.433 178.035,166.437C177.99,162.805 179.628,159.658 182.24,157.148C182.732,156.674 182.184,155.961 181.598,156.312C179.976,157.282 178.563,158.085 177.268,159.49C176.471,160.353 175.938,161.434 175.584,162.567C174.235,162.189 172.65,162.641 171.266,162.81C169.81,162.988 168.348,163.119 166.895,163.316C166.649,163.349 166.398,163.387 166.146,163.43C167.809,161.696 169.115,159.575 170.027,157.366C172.103,152.332 171.729,146.839 173.312,141.718C173.496,141.123 172.702,140.811 172.419,141.363C171.262,143.605 170.218,145.914 169.441,148.318C168.665,150.723 168.081,153.184 167.201,155.556C166.306,157.969 164.948,160.173 163.077,161.951C162.327,162.662 161.309,163.459 160.659,164.381C159.49,163.141 158.118,161.984 156.872,160.871C155.43,159.578 153.731,158.543 152.119,157.484C150.333,156.314 148.607,155.046 146.791,153.926C144.94,152.783 142.914,151.946 140.974,150.972C141.369,150.622 141.718,150.211 141.981,149.84C142.56,149.02 142.977,148.196 143.714,147.501C144.795,146.481 146.121,145.71 147.289,144.792C149.155,143.331 150.943,141.676 151.295,139.234C151.563,137.394 150.64,134.953 148.989,133.907C149.17,133.02 147.9,132.24 147.219,133.117C146.493,134.048 145.276,134.704 144.367,135.458C143.225,136.4 142.092,137.129 140.782,137.832C139.443,138.548 137.944,138.938 136.53,139.478C135.114,140.016 133.753,140.676 132.354,141.249C129.526,142.405 126.547,143.219 123.681,144.275C122.462,144.725 121.03,144.884 119.783,145.323C116.703,142.276 112.864,139.937 109.22,137.665C104.843,134.938 100.423,132.328 96.209,129.348C87.986,123.531 81.137,116.107 72.476,110.857C72.276,110.736 72.053,111.011 72.252,111.154C76.219,114.009 79.563,117.659 82.97,121.139C86.448,124.691 90.16,128.023 94.094,131.065C98.015,134.094 102.293,136.581 106.488,139.198C110.784,141.88 114.771,144.744 118.661,147.979C119.628,148.785 120.862,147.813 120.798,146.727C120.825,147.175 125.876,145.76 126.374,145.619C129.317,144.776 132.208,143.758 135.16,142.945C138.101,142.135 140.552,140.242 143.228,138.873C144.28,138.333 145.14,137.47 146.031,136.714C146.379,136.418 146.749,136.146 147.114,135.871C147.641,137.111 148.202,138.309 147.566,139.694C146.804,141.357 144.694,142.704 143.334,143.84C142.077,144.89 140.911,145.938 140.056,147.339C139.713,147.902 139.384,148.501 138.876,148.933C138.639,149.132 138.433,149.258 138.249,149.411C137.875,149.158 137.509,148.889 137.155,148.601C136.709,148.238 136.059,148.764 136.279,149.278C137.521,152.19 140.394,153.287 142.824,155.002C144.188,155.963 145.4,157.117 146.76,158.086C148.356,159.224 149.988,160.306 151.603,161.415C153.027,162.393 154.408,163.424 155.668,164.608C156.765,165.638 158.645,166.897 159.312,168.25C159.75,169.14 159.517,170.545 158.764,171.187C158.706,171.237 158.656,171.29 158.604,171.34C157.037,170.152 154.977,169.488 153.17,168.964C150.507,168.193 148.403,166.461 145.601,166.013C145.129,165.936 145.056,166.559 145.41,166.757C147.138,167.721 148.664,169.117 150.298,170.236C151.969,171.378 153.771,172.292 155.555,173.24C156.857,173.933 157.868,174.69 158.102,176.228C158.18,176.741 158.267,177.702 157.831,178.109C157.797,178.141 157.767,178.166 157.734,178.194C157.429,178.098 157.088,178.043 156.718,178.024C155.086,177.938 153.602,177.066 152.061,176.527C150.294,175.907 148.489,175.526 146.761,174.785C145.333,174.167 144.012,173.677 142.437,173.715C142.077,173.724 142.029,174.291 142.353,174.4C143.782,174.884 145.056,175.868 146.323,176.674C147.633,177.507 149.048,178.131 150.45,178.79C151.722,179.388 152.917,180.142 154.195,180.724C154.659,181.464 154.894,182.26 154.632,183.008C153.786,185.429 150.435,184.981 148.689,184.191C146.777,183.324 145.36,181.638 143.657,180.462C142.153,179.425 140.384,178.327 138.654,177.74C137.727,177.428 137.146,178.555 137.837,179.186C137.933,179.272 138.033,179.354 138.132,179.435C138.486,180.465 139.113,181.11 140.04,181.803C141.7,183.046 143.22,184.313 144.72,185.75C146.337,187.3 148.748,188.067 150.666,189.159C151.219,189.472 152.405,190.215 152.838,191.013C151.652,190.627 150.33,190.555 149.126,190.292C147.183,189.869 145.305,189.146 143.493,188.34C140.362,186.949 137.244,185.527 134.079,184.211C127.481,181.469 121.21,178.18 115.773,173.494C110.197,168.688 105.423,163.058 99.371,158.798C92.922,154.262 85.778,150.845 78.934,146.967C78.749,146.862 78.541,147.113 78.727,147.238C85.403,151.711 92.272,155.927 98.667,160.803C104.713,165.413 109.35,171.539 114.964,176.617C120.279,181.425 126.898,184.662 133.418,187.494C136.735,188.935 140.177,190.27 143.57,191.517C145.268,192.143 147.039,192.582 148.806,192.962C148.823,192.963 148.841,192.969 148.858,192.973C150.24,193.976 152.063,194.436 153.226,195.817C155.474,198.489 157.045,201.605 158.726,204.643C160.459,207.778 162.469,210.757 163.951,214.027C165.458,217.352 166.458,220.917 167.931,224.246C168.209,224.879 168.999,224.668 169.148,224.08C170.015,220.641 168.483,216.543 167.348,213.318C166.086,209.729 163.954,206.53 162.082,203.25C160.365,200.248 158.904,196.589 156.169,194.336C155.496,193.78 154.784,193.351 154.038,192.983C154.149,192.895 154.232,192.785 154.276,192.665C155.223,192.56 155.883,191.591 155.503,190.514C154.952,188.949 153.298,187.723 151.894,186.982C151.739,186.902 151.584,186.823 151.43,186.744C152.003,186.737 152.574,186.656 153.123,186.472C155.192,185.775 156.864,184.277 156.637,181.954C156.611,181.691 156.553,181.443 156.473,181.205C157.126,181.191 157.785,181.085 158.419,180.989C158.729,180.942 159.004,180.736 159.143,180.459C160.062,179.942 160.809,178.947 161.07,178.028C161.473,176.609 161.24,175.045 160.586,173.718C162.332,172.866 162.817,170.188 162.776,168.444C162.765,167.921 162.653,167.437 162.473,166.978C162.754,166.729 162.998,166.422 163.337,166.077C164.952,165.43 166.753,165.203 168.46,165.086C170.44,164.95 173.158,165.917 175.072,165.047C174.796,167.412 175.135,169.886 175.394,172.227C175.688,174.879 175.958,177.535 176.37,180.174C176.977,184.061 177.715,188.467 180.225,191.633C182.871,194.969 188.181,195.717 191.884,193.842C193.223,194.51 194.715,194.85 195.745,194.713C196.184,194.655 196.509,194.461 196.734,194.201C197.429,194.562 198.19,194.598 199.042,194.018C199.431,193.754 199.655,193.075 199.41,192.649Z" style="fill:rgb(182,153,105);fill-rule:nonzero;"/>
                </g>
                <g transform="matrix(1,0,0,1,-447.729,41.4726)">
                    <path d="M219.295,185.608C215.646,187.168 212.898,189.997 210.833,193.319C210.346,194.105 209.828,194.871 209.166,195.518C208.492,196.179 207.613,195.222 207.02,194.736C206.142,194.018 205.689,192.942 204.847,192.192C204.115,191.54 202.852,190.904 202.739,189.858C202.734,189.811 202.693,189.768 202.646,189.764C200.413,189.66 200.653,192.232 201.946,193.412C203.779,195.087 205.21,198.337 208.07,198.42C210.204,198.482 211.99,195.143 212.917,193.618C214.577,190.887 217.082,188.625 220.032,187.385C221.177,186.904 220.435,185.123 219.295,185.608Z" style="fill:rgb(182,153,105);fill-rule:nonzero;"/>
                </g>
                <g transform="matrix(1,0,0,1,-447.729,41.4726)">
                    <path d="M221.844,181.525C220.583,177.006 215.477,171.649 210.387,172.333C209.925,172.396 209.819,172.967 210.149,173.249C211.825,174.68 213.76,175.737 215.496,177.098C217.522,178.688 218.05,180.903 219.502,182.876C220.488,184.219 222.234,182.919 221.844,181.525Z" style="fill:rgb(182,153,105);fill-rule:nonzero;"/>
                </g>
                <g transform="matrix(1,0,0,1,-447.729,41.4726)">
                    <path d="M213.351,185.501C213.001,184.921 212.446,184.647 211.91,184.26C211.299,183.822 210.823,183.231 210.383,182.63C209.462,181.376 209.554,179.875 208.843,178.538C208.445,177.79 207.366,178.061 207.42,178.926C207.475,179.832 207.127,180.691 207.222,181.604C207.329,182.613 207.703,183.428 208.22,184.287C209.015,185.6 210.877,187.78 212.607,187.31C213.476,187.075 213.821,186.284 213.351,185.501Z" style="fill:rgb(182,153,105);fill-rule:nonzero;"/>
                </g>
                <g transform="matrix(1,0,0,1,-447.729,41.4726)">
                    <path d="M249.939,125.974C248.383,121.572 246.883,117.117 244.243,113.224C242.862,111.188 241.102,109.564 239.119,108.252C244.613,104.02 244.675,95.311 241.012,89.653C237.346,83.986 230.006,81.482 223.66,80.556C216.318,79.486 208.694,80.571 202.064,83.973C195.31,87.438 188.271,94.993 190.41,103.255C191.019,105.604 192.219,107.343 194.101,108.332C191.475,110.143 189.222,112.637 187.466,115.263C185.879,117.639 184.986,120.77 185.088,123.792C183.583,123.814 182.061,123.922 180.568,123.893C178.354,123.85 176.05,124.035 173.862,123.669C171.928,123.349 169.858,122.544 168.084,121.712C166.99,121.199 166.125,120.565 165.998,119.291C165.892,118.23 165.881,117.35 165.517,116.379C166.139,113.892 164.721,111.886 164.417,109.313C164.079,106.447 165.857,103.935 165.963,101.123C166.953,99.572 167.585,97.613 168.529,96.133C169.981,93.855 171.865,92.06 173.939,90.358C176.032,88.641 178.341,87.107 179.742,84.719C180.509,83.415 181.261,82.094 182.27,80.962C183.408,79.686 184.729,78.634 185.636,77.164C185.918,76.705 185.499,75.88 184.903,76.218C182.238,77.73 180.015,79.511 177.974,81.78C175.937,84.046 173.202,85.439 171.067,87.577C169.117,89.531 167.622,91.839 166.27,94.231C165.791,95.078 165.204,96.126 164.71,97.232C164.508,96.892 164.307,96.549 164.134,96.187C163.47,94.807 162.894,93.386 162.314,91.97C161.147,89.122 159.787,86.502 157.788,84.146C155.956,81.991 153.929,80.017 152.794,77.379C151.747,74.948 151.457,71.995 151.209,69.218C152.205,68.165 153.501,67.345 154.657,66.519C156.598,65.136 158.686,63.916 160.724,62.686C164.813,60.221 169.532,58.377 172.917,54.933C173.889,53.943 172.449,52.128 171.251,52.779C168.997,54.004 166.879,55.452 164.649,56.725C162.309,58.059 159.959,59.36 157.708,60.842C155.577,62.245 153.54,63.664 151.641,65.374C151.405,65.588 151.155,65.813 150.906,66.052C150.182,59.041 150.026,51.952 149.544,44.923C149.483,44.035 148.092,44.071 148.007,44.937C147.317,51.937 147.094,58.822 147.599,65.848C147.846,69.292 148.313,72.707 148.976,76.096C149.513,78.85 150.955,81.204 152.731,83.332C154.566,85.532 156.575,87.484 157.921,90.052C159.348,92.772 160.221,95.742 161.757,98.409C162.572,99.826 164.167,100.929 163.554,102.768C163.064,104.241 162.277,105.491 161.965,107.036C161.303,110.34 164.574,113.36 163.31,116.451C163.259,116.575 163.239,116.691 163.232,116.801C163.225,116.819 163.212,116.833 163.206,116.855C163.042,117.292 162.941,117.76 162.796,118.209C162.581,118.033 162.345,117.866 162.084,117.685C161.07,116.983 160.224,116.13 159.422,115.199C157.866,113.394 156.608,111.351 155.152,109.469C153.967,107.936 153.226,106.589 151.138,106.305C149.264,106.048 146.853,106.79 145.52,108.119C144.116,109.517 143.887,111.588 143.776,113.47C143.657,115.497 143.462,117.346 142.904,119.303C142.48,120.785 141.882,122.943 140.365,123.664C139.851,123.907 138.85,123.681 137.979,123.651C138.93,121.363 138.662,118.82 138.512,116.37C138.309,113.085 138.367,109.917 137.66,106.681C136.941,103.391 137.76,100.057 136.734,96.807C136.188,95.073 135.107,93.738 134.714,91.906C134.332,90.126 134.374,88.27 134.373,86.461C134.37,84.765 134.513,83.122 134.383,81.417C134.248,79.647 133.844,77.865 133.623,76.1C133.18,72.564 132.324,69.169 131.334,65.749C129.285,58.668 126.912,51.688 124.885,44.601C124.663,43.826 123.319,44.19 123.52,44.973C125.298,51.884 127.377,58.712 129.16,65.622C130.006,68.904 131.155,72.332 131.606,75.687C131.672,76.18 131.721,76.671 131.756,77.162C131.239,77.114 130.679,77.286 130.233,77.755C129.516,78.506 128.257,78.777 127.34,79.192C125.852,79.867 124.462,81.007 123.057,81.851C120.055,83.651 116.551,84.751 113.207,85.745C106.146,87.846 99.29,90.978 92.636,94.106C92.217,94.302 92.478,94.92 92.909,94.765C96.537,93.46 100.182,92.223 103.866,91.085C107.859,89.85 111.909,89.373 115.96,88.443C119.534,87.624 122.733,86.353 125.89,84.499C127.355,83.638 128.729,82.695 130.287,82.017C130.795,81.796 131.294,81.542 131.741,81.229C131.735,81.301 131.732,81.37 131.727,81.441C131.588,83.247 131.878,85.046 131.879,86.846C131.883,89.967 132.291,92.674 133.221,95.646C133.733,97.281 134.291,98.903 134.429,100.621C134.566,102.332 134.625,104.052 134.812,105.757C134.971,107.202 135.413,108.634 135.741,110.045C136.115,111.649 136.157,113.239 136.226,114.873C136.359,117.947 136.478,121.014 136.572,124.092C136.534,124.144 136.499,124.201 136.472,124.267C135.825,125.864 137.902,126.659 139.059,126.921C140.896,127.335 142.477,126.425 143.68,125.117C145.95,122.649 146.649,118.042 146.661,114.83C146.671,112.583 146.279,110.127 148.786,109.217C151.563,108.211 152.609,110.205 153.976,112.192C155.347,114.187 156.614,116.243 158.236,118.049C159.371,119.314 160.884,120.866 162.656,120.719C162.692,120.755 162.726,120.794 162.771,120.83C163.069,121.055 163.388,121.075 163.66,120.962C163.797,121.685 164.104,122.382 164.701,123.048C166.373,124.908 169.143,125.523 171.419,126.269C174.037,127.128 176.637,127.02 179.356,126.98C181.233,126.952 183.545,127.16 185.502,126.625C186.012,128.522 187,130.249 188.559,131.552C189.324,132.193 190.295,131.272 190.003,130.437C188.225,125.343 188.49,120.774 191.757,116.393C193.381,114.217 195.459,112.443 197.611,110.811C199.736,109.2 202.13,108.246 204.354,106.836C205.596,106.048 204.537,104.456 203.374,104.485C201.197,104.538 198.955,105.474 196.938,106.585C191.93,101.676 196.235,93.986 200.784,90.431C205.9,86.429 213.132,84.388 219.577,84.503C223.109,84.566 226.793,85.186 230.126,86.558C234.057,89.86 235.311,95.502 232.625,99.968C231.972,101.056 232.874,102.27 234.108,101.885C237.73,100.759 237.954,96.108 237.359,92.993C237.247,92.406 237.11,91.844 236.938,91.303C240.097,95.52 240.898,103.189 235.397,105.458C235.102,105.579 234.865,105.743 234.677,105.93C234.01,105.653 233.334,105.397 232.652,105.162C231.387,104.728 229.917,104.659 228.597,104.76C227.779,104.823 227.631,105.877 228.184,106.34C229.771,107.674 231.667,108.416 233.525,109.281C235.677,110.284 237.667,111.689 239.33,113.386C242.582,116.709 244.381,120.925 246.044,125.188C249.406,133.798 251.466,142.849 252.15,152.067C252.765,160.36 251.29,170.151 244.608,175.816C241.734,178.25 238.279,179.765 234.84,181.209C231.497,182.615 227.498,183.321 224.495,185.378C224.056,185.678 224.247,186.504 224.805,186.514C228.493,186.583 232.486,185.038 235.958,183.899C239.732,182.659 243.41,180.797 246.513,178.302C253.479,172.699 255.533,162.877 255.79,154.372C256.086,144.558 253.171,135.123 249.939,125.974Z" style="fill:rgb(182,153,105);fill-rule:nonzero;"/>
                </g>
                <g transform="matrix(1,0,0,1,-447.729,41.4726)">
                    <path d="M199.069,115.277C195.817,116.208 193.981,119.93 193.494,123.03C192.976,126.317 193.89,129.794 195.857,132.435C196.097,132.759 196.691,132.541 196.603,132.124C196.057,129.553 196.867,126.556 197.286,124C197.723,121.338 199.586,119.904 201.064,117.857C202.12,116.394 200.621,114.832 199.069,115.277Z" style="fill:rgb(182,153,105);fill-rule:nonzero;"/>
                </g>
                <g transform="matrix(1,0,0,1,-447.729,41.4726)">
                    <path d="M214.618,149.262C214.258,146.709 213.292,144.23 212.217,141.908C211.081,139.443 209.674,137.143 208.177,134.885C206.383,132.182 205.226,129.365 204.719,126.162C204.675,125.88 204.271,125.888 204.228,126.167C203.845,128.615 203.4,130.872 204.002,133.319C204.686,136.103 206.414,138.414 207.763,140.891C208.981,143.128 209.98,145.546 210.741,147.973C211.146,149.258 211.384,150.662 211.375,152.012C211.367,153.098 211.077,154.069 211.861,154.964C212.207,155.36 212.693,155.509 213.193,155.321C215.396,154.494 214.874,151.091 214.618,149.262Z" style="fill:rgb(182,153,105);fill-rule:nonzero;"/>
                </g>
                <g transform="matrix(1,0,0,1,-447.729,41.4726)">
                    <path d="M221.262,147.342C219.14,142.811 216.457,138.531 213.865,134.258C213.498,133.653 212.507,134.246 212.801,134.874C214.503,138.522 216.429,142.168 217.579,146.04C218.109,147.822 218.511,149.619 218.604,151.476C218.686,153.09 218.171,154.383 217.651,155.856C216.967,157.797 219.445,160.232 221.175,158.525C224.183,155.559 222.846,150.723 221.262,147.342Z" style="fill:rgb(182,153,105);fill-rule:nonzero;"/>
                </g>
                <g transform="matrix(1,0,0,1,-447.729,41.4726)">
                    <path d="M245.066,159.97C244.688,155.182 242.492,150.086 239.084,146.68C238.292,145.887 237.046,146.779 237.682,147.753C239.945,151.228 240.584,155.5 240.735,159.569C240.811,161.655 240.638,163.712 240.34,165.775C240.067,167.666 238.787,169.553 239.012,171.475C239.083,172.089 239.753,172.672 240.393,172.52C242.584,171.997 243.529,169.645 244.206,167.707C245.073,165.236 245.273,162.567 245.066,159.97Z" style="fill:rgb(182,153,105);fill-rule:nonzero;"/>
                </g>
                <g transform="matrix(1,0,0,1,-447.729,41.4726)">
                    <path d="M205.628,139.416C203.498,136.284 199.041,137.379 196.125,138.459C192.712,139.723 188.747,141.646 186.932,144.954C185.876,146.878 185.704,148.988 186.074,151.129C186.376,152.885 187.292,155.139 189.158,155.667C189.417,155.739 189.63,155.573 189.622,155.303C189.571,153.914 188.801,152.685 188.511,151.338C188.18,149.804 188.315,148.224 188.946,146.793C190.006,144.392 192.906,142.968 195.126,141.863C197.314,140.773 199.836,139.676 202.33,140.074C203.742,140.299 204.483,141.311 204.981,142.583C205.739,144.518 204.728,145.982 203.679,147.498C203.255,148.109 203.874,149.121 204.63,148.728C208.229,146.862 207.558,142.252 205.628,139.416Z" style="fill:rgb(182,153,105);fill-rule:nonzero;"/>
                </g>
                <g transform="matrix(1,0,0,1,-447.729,41.4726)">
                    <path d="M202.023,144.108C201.412,142.647 199.318,142.294 197.948,142.491C197.268,142.589 197.309,143.544 197.959,143.66C199.553,143.941 201.385,144.055 200.55,146.301C199.771,148.398 197.355,147.416 195.739,147.977C194.794,148.307 194.239,148.908 194.064,149.886C193.946,150.551 194.152,150.848 193.303,151.077C192.672,151.249 192.171,151.438 191.577,151.74C191.227,151.919 191.26,152.336 191.584,152.516C193.177,153.404 194.986,153.529 196.045,151.758C196.714,150.641 195.826,149.919 197.664,150.036C198.782,150.108 199.864,150.048 200.696,149.199C201.996,147.872 202.77,145.895 202.023,144.108Z" style="fill:rgb(182,153,105);fill-rule:nonzero;"/>
                </g>
                <g transform="matrix(1,0,0,1,-447.729,41.4726)">
                    <path d="M236.814,120.032C233.647,115.483 228.847,112.399 224.135,109.687C223.515,109.33 222.786,109.961 223.225,110.601C226.112,114.801 230.154,117.981 233.215,122.047C236.168,125.971 237.385,130.818 240.059,134.904C240.555,135.66 241.901,135.292 241.942,134.388C242.173,129.16 239.741,124.235 236.814,120.032Z" style="fill:rgb(182,153,105);fill-rule:nonzero;"/>
                </g>
                <g transform="matrix(1,0,0,1,-447.729,41.4726)">
                    <path d="M147.745,258.384C147.272,256.448 146.044,254.921 144.909,253.317C143.522,251.356 142.093,249.433 140.817,247.395C138.374,243.499 136.764,239.192 134.92,234.998C133.334,231.388 131.457,228.039 128.519,225.358C125.388,222.5 121.923,220.092 118.857,217.137C115.622,214.021 111.88,214.083 107.657,213.812C102.917,213.508 98.283,211.9 93.608,211.118C83.776,209.471 73.848,208.764 63.974,207.481C63.429,207.409 63.356,208.197 63.874,208.311C72.948,210.315 82.098,211.945 91.169,213.955C95.653,214.946 100.114,216.149 104.633,216.972C106.773,217.364 108.917,217.37 111.083,217.484C113.416,217.61 115.04,218.373 116.741,219.93C118.122,221.196 119.353,222.626 120.73,223.9C122.326,225.373 124.119,226.601 125.783,227.99C128.792,230.503 131.595,233.339 133.034,237.043C134.568,240.993 135.8,245.109 137.935,248.791C139.03,250.68 140.235,252.494 141.494,254.275C142.764,256.072 144.229,258.199 146.162,259.31C146.811,259.681 147.977,259.335 147.745,258.384Z" style="fill:rgb(182,153,105);fill-rule:nonzero;"/>
                </g>
            </g>
        </g>
    </g>
</svg>
