<?xml version="1.0" encoding="UTF-8" standalone="no"?>
<!DOCTYPE svg PUBLIC "-//W3C//DTD SVG 1.1//EN" "http://www.w3.org/Graphics/SVG/1.1/DTD/svg11.dtd">
<svg width="100%" height="100%" viewBox="0 0 176 167" version="1.1" xmlns="http://www.w3.org/2000/svg" xmlns:xlink="http://www.w3.org/1999/xlink" xml:space="preserve" xmlns:serif="http://www.serif.com/" style="fill-rule:evenodd;clip-rule:evenodd;stroke-linejoin:round;stroke-miterlimit:2;">
    <g transform="matrix(1,0,0,1,-16,-419)">
        <g id="masaz-czolo" transform="matrix(1,0,0,1,23.9447,-78.1801)">
            <rect x="-7.945" y="497.92" width="175.88" height="165.693" style="fill:none;"/>
            <clipPath id="_clip1">
                <rect x="-7.945" y="497.92" width="175.88" height="165.693"/>
            </clipPath>
            <g clip-path="url(#_clip1)">
                <g transform="matrix(1,0,0,1,-347.615,194.645)">
                    <path d="M388.987,371.541C386.833,371.311 386.345,370.158 386.479,368.055C386.588,366.342 386.896,364.694 386.477,362.991C385.627,359.557 386.236,356.185 389.486,354.289C390.39,353.763 389.578,352.404 388.656,352.727C384.063,354.326 383.143,359.291 384.027,363.566C384.562,366.144 383.373,368.7 384.261,371.262C384.955,373.267 387.202,374.596 389.216,373.765C390.239,373.343 390.19,371.671 388.987,371.541Z" style="fill:rgb(182,153,105);fill-rule:nonzero;"/>
                </g>
                <g transform="matrix(1,0,0,1,-347.615,194.645)">
                    <path d="M401.859,390.483C402.259,387.437 405.503,385.273 405.18,382.149C405.09,381.291 403.721,380.965 403.427,381.875C402.932,383.397 401.408,384.371 400.51,385.659C399.338,387.341 398.489,389.118 398.13,391.144C397.551,394.432 399.086,398.73 401.841,400.678C402.835,401.379 404.708,400.76 404.394,399.3C403.729,396.198 401.418,393.85 401.859,390.483Z" style="fill:rgb(182,153,105);fill-rule:nonzero;"/>
                </g>
                <g transform="matrix(1,0,0,1,-347.615,194.645)">
                    <path d="M418.674,391.835C418.524,386.552 415.957,381.547 415.799,376.229C415.756,374.834 413.71,374.901 413.457,376.167C412.505,380.923 413.769,385.266 414.675,389.916C415.13,392.262 415.633,394.614 415.449,397.013C415.253,399.598 413.854,402.31 412.373,404.371C411.583,405.472 413.102,406.722 414.007,405.702C417.358,401.922 418.816,396.821 418.674,391.835Z" style="fill:rgb(182,153,105);fill-rule:nonzero;"/>
                </g>
                <g transform="matrix(1,0,0,1,-347.615,194.645)">
                    <path d="M382.501,354.033C380.852,354.992 379.074,356.078 377.619,357.311C375.946,358.73 374.924,360.802 374.306,362.87C373.615,365.183 373.434,367.488 373.494,369.891C373.56,372.527 373.437,375.286 374.374,377.798C374.689,378.643 376.146,378.598 376.206,377.61C376.349,375.27 376.129,372.943 376.386,370.601C376.625,368.408 377.528,366.069 378.235,363.986C378.889,362.058 379.831,360.487 381.303,359.089C382.473,357.979 383.859,356.671 384.048,354.988C384.147,354.094 383.237,353.605 382.501,354.033Z" style="fill:rgb(182,153,105);fill-rule:nonzero;"/>
                </g>
                <g transform="matrix(1,0,0,1,-347.615,194.645)">
                    <path d="M373.607,355.509C372.025,356.863 369.816,358.059 368.871,360.003C367.821,362.159 368.012,364.323 368.539,366.587C368.809,367.743 370.752,368.077 370.83,366.646C370.93,364.837 370.701,362.818 371.463,361.143C372.253,359.404 374.163,358.41 375.006,356.647C375.391,355.844 374.322,354.897 373.607,355.509Z" style="fill:rgb(182,153,105);fill-rule:nonzero;"/>
                </g>
                <g transform="matrix(1,0,0,1,-347.615,194.645)">
                    <path d="M434.147,467.508C433.321,465.352 431.71,463.598 430.855,461.412C429.785,458.684 428.614,456.305 426.944,453.884C423.711,449.2 420.154,444.938 415.156,442.068C414.053,441.432 412.661,443.102 413.544,444.047C413.729,444.244 413.908,444.443 414.091,444.642C414.045,444.824 414.043,445.029 414.099,445.248C414.553,447.045 414.312,448.361 412.708,449.395C410.823,450.605 408.264,449.753 406.419,448.932C404.623,448.134 402.93,447.008 401.203,446.075C399.26,445.024 397.418,443.835 395.678,442.479C393.136,440.495 390.01,438.441 388.229,435.726C387.22,434.189 387.975,432.069 388.292,430.418C388.412,429.787 388.479,429.18 388.506,428.582C390.479,430.274 392.503,431.913 394.608,433.392C395.361,433.922 396.135,434.407 396.926,434.868C396.862,436.131 396.743,437.373 397.188,438.656C397.739,440.244 399.283,441.756 400.726,442.533C401.685,443.049 402.871,441.896 402.432,440.921C401.854,439.637 400.763,438.81 399.998,437.646C399.747,437.264 399.654,436.784 399.612,436.295C402.048,437.492 404.575,438.53 407.032,439.66C408.49,440.332 409.871,438.172 408.524,437.219C405.258,434.912 401.909,432.734 398.63,430.446C395.022,427.924 391.674,425.002 388.358,422.111C382.374,416.898 375.15,411.506 371.51,404.275C369.794,400.865 368.863,397.124 367.826,393.468C366.622,389.24 364.813,385.307 363.093,381.276C361.409,377.331 359.754,373.297 359.865,368.93C359.967,364.952 361.757,361.328 363.6,357.88C364.043,357.052 362.737,356.262 362.191,357.02C359.872,360.24 358.288,363.575 357.218,367.399C356.099,371.392 356.917,375.709 358.149,379.563C359.578,384.024 361.916,388.138 363.348,392.603C364.694,396.803 365.644,401.129 367.359,405.201C369.763,410.908 373.966,415.421 378.454,419.591C377.949,419.437 377.445,419.282 376.939,419.135C373.041,417.982 369.066,417.309 365.018,416.916C356.432,416.078 348.46,418.628 340.55,421.666C338.971,422.273 339.875,424.585 341.462,424.101C345.462,422.879 349.455,421.555 353.582,420.824C357.666,420.106 361.668,420.342 365.727,421.066C367.034,421.299 368.322,421.541 369.599,421.803C368.2,422.946 366.964,424.338 366.157,425.251C363.478,428.28 361.576,431.981 359.768,435.566C357.957,439.157 356.319,442.831 353.607,445.842C350.83,448.927 347.447,451.521 344.011,453.824C342.957,454.531 343.915,456.417 345.071,455.818C348.466,454.054 351.571,451.928 354.449,449.407C357.482,446.752 359.601,443.621 361.888,440.348C364.079,437.21 365.786,433.76 367.988,430.627C369.119,429.019 370.379,427.48 371.85,426.172C372.984,425.163 374.919,424.579 375.837,423.35C376.238,423.469 376.639,423.592 377.041,423.722C378.874,424.318 380.708,424.947 382.49,425.682C383.783,426.211 384.963,426.775 386.257,427.071C385.854,431.039 383.859,434.926 386.556,438.541C387.842,440.27 389.661,441.57 391.333,442.893C393.385,444.514 395.31,446.173 397.546,447.552C399.685,448.872 401.918,450.044 404.105,451.275C406.469,452.604 408.865,453.504 411.608,453.223C414.388,452.945 416.735,450.582 417.089,448.001C419.499,450.811 421.715,453.71 423.707,456.951C425.116,459.246 425.971,461.529 426.961,464.01C427.862,466.269 429.334,468.923 431.748,469.778C433.159,470.273 434.734,469.04 434.147,467.508Z" style="fill:rgb(182,153,105);fill-rule:nonzero;"/>
                </g>
                <g transform="matrix(1,0,0,1,-355.615,194.645)">
                    <path d="M487.508,374.123C487.03,374.194 486.517,373.974 486.01,373.729C486.091,373.374 486.031,372.988 485.752,372.643C485.098,371.839 484.418,371.441 484.197,370.361C483.981,369.297 484.033,368.178 483.969,367.1C483.794,364.245 483.722,361.304 483.46,358.436C485.917,358.379 488.359,357.947 490.713,357.2C489.789,360.208 489.263,363.415 488.718,366.397C488.351,368.408 487.77,370.495 487.708,372.54C487.7,372.809 487.818,374.077 487.508,374.123ZM478.897,367.122C477.386,365.501 475.854,363.896 474.158,362.468C474.05,362.376 473.935,362.289 473.824,362.198C474.451,361.602 474.937,360.871 475.413,360.14C475.722,359.67 476.029,359.199 476.369,358.749C476.594,358.454 476.844,358.198 477.057,357.912C478.14,358.078 479.231,358.22 480.318,358.313C480.135,361.758 480.64,365.15 480.782,368.603C480.788,368.715 480.795,368.834 480.802,368.953C480.146,368.382 479.513,367.781 478.897,367.122ZM475.222,371.137C475.124,370.723 474.9,370.349 474.556,370.13C473.454,369.433 472.821,368.011 471.754,367.177C470.584,366.265 469.211,365.747 467.865,365.177C466.255,364.497 464.396,364.874 462.731,364.421C461.846,364.181 461.209,365.592 461.991,366.084C463.854,367.265 465.912,368.311 467.906,369.241C468.847,369.678 469.726,370.294 470.335,371.141L470.366,371.185C466.861,371.2 463.211,370.822 459.763,370.383C456.192,369.931 452.745,368.586 449.352,367.443C446.654,366.534 443.9,365.801 441.185,364.949C443.672,363.774 446.021,361.834 447.603,360.378C449.625,358.515 451.59,356.599 453.829,355.004C454.019,355.087 454.237,355.116 454.46,355.052C457.4,354.203 460.735,354.367 463.912,354.89C463.631,355.667 463.363,356.623 463.282,357.536C462.23,357.456 461.256,357.407 460.198,357.658C459.422,357.842 459.456,359.069 460.151,359.326C461.207,359.714 462.153,360.259 463.267,360.495C464.162,360.685 465.064,360.91 465.965,361.094C467.367,361.604 468.731,362.291 469.983,363.087C473.23,365.146 475.342,368.598 478.044,371.325C477.108,371.212 476.168,371.157 475.222,371.137ZM466.63,355.422C467.168,355.542 467.694,355.667 468.21,355.793C470.178,356.28 472.062,356.931 474.033,357.372C473.835,357.661 473.657,357.951 473.493,358.214C472.936,359.099 472.371,359.922 471.674,360.689C470.602,360.03 469.479,359.453 468.34,358.948C468.289,358.926 468.235,358.906 468.182,358.884C468.05,358.697 467.876,358.532 467.649,358.409C467.202,358.166 466.72,358.002 466.222,357.886C466.224,357.045 466.362,356.218 466.63,355.422ZM512.865,365.846C508.675,367.533 504.685,369.739 500.794,372.029C498.905,373.139 497.1,374.374 495.21,375.481C494.354,375.983 493.477,376.461 492.606,376.942C492.371,377.073 492.072,377.313 491.759,377.54C491.297,377.065 490.787,376.625 490.248,376.214C491.358,375.031 491.058,373.287 491.386,371.518C491.954,368.482 492.421,365.416 493.061,362.394C493.535,360.158 494.475,357.87 494.754,355.561C498.645,353.624 502.117,350.809 504.75,347.408C505.674,346.216 504.159,344.498 502.911,345.444C499.494,348.026 496.377,350.686 492.413,352.431C487.927,354.407 483.464,354.666 478.654,354.176C474.245,353.727 469.942,352.772 465.541,352.316C464.606,352.219 463.658,352.112 462.714,352.031C463.397,351.963 464.083,351.905 464.772,351.849C467.856,351.593 470.807,351.13 473.598,349.732C476.343,348.36 478.816,346.46 481.297,344.671C486.582,340.862 491.081,336.07 495.742,331.532C497.021,330.286 495.072,328.731 493.773,329.434C488.538,332.261 484.914,337.478 480.221,341.076C477.885,342.866 475.693,344.92 473.181,346.46C470.31,348.218 467.095,348.567 463.813,348.843C460.695,349.105 457.62,349.478 454.778,350.867C452.219,352.116 450.053,353.977 447.977,355.895C444.656,358.967 441.251,362.284 436.801,363.435C436.109,363.172 435.422,362.896 434.754,362.597C433.587,362.074 432.418,361.153 431.044,361.333C430.087,361.457 429.235,361.899 428.587,362.542C428.266,362.317 427.89,362.232 427.489,362.066C427.119,361.915 426.836,361.585 426.594,361.279C426.145,360.708 425.984,360.037 425.748,359.396C432.253,356.769 437.908,352.711 443.12,348.005C445.947,345.454 448.524,342.691 451.026,339.826C453.797,336.654 456.448,332.984 459.774,330.375C462.479,328.253 465.929,327.271 468.97,325.743C472.178,324.13 475.176,321.891 477.551,319.201C482.442,313.659 489.631,311.114 495.753,307.295C497.376,306.283 495.921,303.549 494.181,304.336C487.929,307.165 481.74,310.801 476.785,315.59C475.463,316.868 474.331,318.318 472.917,319.497C471.559,320.63 470.021,321.544 468.551,322.52C465.587,324.484 461.952,325.358 458.902,327.222C455.712,329.169 453.296,332.493 450.873,335.272C448.12,338.426 445.409,341.592 442.382,344.488C441.432,345.397 440.454,346.279 439.456,347.142C439.44,347.134 439.43,347.125 439.416,347.118C435.104,345.039 430.645,346.54 426.119,346.197C421.454,345.842 417.055,343.957 412.473,343.148C408.077,342.374 403.304,343.011 399.168,344.641C397.783,345.187 396.48,345.919 395.155,346.611C395.082,346.372 394.961,346.128 394.777,345.89C392.302,342.646 392.011,338.321 390.825,334.532C389.584,330.578 387.382,327.555 383.873,325.342C377.16,321.107 368.991,320.849 361.31,320.947C360.273,320.96 360.242,322.649 361.263,322.752C368.168,323.437 375.837,324.859 381.609,328.925C388.228,333.585 386.532,342.391 391.063,348.397C389.057,349.146 387.035,349.846 385.023,350.583C384.03,350.946 384.612,352.321 385.585,352.08C390.068,350.965 394.253,349.875 398.454,347.904C402.667,345.932 407.42,345.642 411.946,346.546C413.726,346.902 415.472,347.396 417.214,347.895C416.274,348.501 415.439,349.229 414.862,349.828C412.916,351.845 411.939,354.713 412.058,357.469C412.101,358.422 413.518,358.401 413.678,357.512C414.061,355.373 415.22,353.38 416.84,351.938C417.611,351.255 418.46,350.729 419.403,350.314C420.421,349.866 421.458,349.991 422.423,349.411C422.48,349.376 422.532,349.338 422.579,349.3C423.34,349.46 424.104,349.595 424.877,349.698C424.767,349.776 424.658,349.853 424.549,349.935C421.971,351.869 420.516,354.897 418.429,357.295C416.076,359.996 413.294,360.771 409.807,360.261C405.88,359.689 401.544,358.55 398.082,356.592C397.234,356.113 396.369,357.525 397.186,358.059C402.928,361.813 411.178,365.919 417.808,361.982C420.503,360.382 422.317,357.502 424.165,355.063C426.516,351.958 430.083,350.726 433.636,349.507C434.5,349.53 435.351,349.62 436.182,349.819C432.322,352.83 428.217,355.553 424.074,358.09C423.805,358.148 423.551,358.288 423.376,358.511C421.691,360.636 424.722,365.111 427.228,365.359C427.043,366.622 426.974,367.884 427.171,369.183C427.475,371.18 428.71,372.663 430.139,374.003C431.7,375.467 433.729,376.456 435.594,377.47C437.854,378.697 440.011,380.073 442.166,381.473C444.236,382.819 446.211,384.295 448.236,385.705C449.745,386.753 451.583,387.914 452.417,389.616C453.322,391.468 451.475,393.542 450.39,394.856C449.063,396.463 447.724,397.978 446.575,399.724C445.237,401.753 444.097,403.902 442.715,405.904C441.362,407.863 439.653,409.453 437.777,410.896C434.111,413.715 429.943,415.854 425.98,418.21C419.536,422.041 407.795,429.561 412.914,438.467C413.217,438.993 413.805,439.105 414.323,438.951C414.543,439.159 414.846,439.276 415.223,439.211C421.25,438.162 426.631,434.838 431.767,431.703C434.661,429.939 437.546,428.156 440.58,426.637C442.992,425.432 445.488,423.984 448.152,423.407C445.864,426.179 443.713,429.059 441.438,431.846C438.791,435.088 435.85,438.072 433.144,441.262C430.896,443.908 429.027,446.983 428.544,450.474C428.17,453.181 429.202,456.065 431.978,456.823C432.21,456.889 432.42,456.865 432.602,456.781C433.032,456.724 433.438,456.424 433.57,455.881C433.421,456.493 433.698,455.977 434.074,455.662C434.543,455.275 434.998,454.873 435.475,454.494C436.39,453.761 437.327,453.063 438.244,452.336C441.393,449.844 444.357,447.285 447.838,445.242C449.625,444.194 450.758,443.089 451.896,441.353C452.865,439.872 453.977,438.635 455.23,437.441C453.029,440.088 450.532,442.735 449.257,445.862C448.907,446.725 448.829,447.759 448.657,448.672C448.475,449.625 448.115,450.472 447.802,451.384C447.371,452.642 447.47,454.268 448.557,455.19C450.338,456.702 453.669,456.914 455.725,455.84C456.025,455.682 456.23,455.464 456.357,455.215C457.807,454.351 458.767,452.872 459.803,451.494C461.677,449.007 464.017,446.973 466.248,444.822C468.479,442.672 470.672,440.481 472.71,438.142C472.771,438.072 472.833,438.001 472.895,437.931C472.673,439.658 473.245,441.289 475.121,441.782C477.161,442.324 479.233,441.289 480.955,440.284C483.466,438.816 485.435,436.509 487.4,434.412C489.959,431.68 493.12,429.361 495.512,426.485C497.294,426.055 499.04,425.469 500.722,424.727C502.75,423.83 504.705,422.746 506.613,421.624C508.793,420.342 511.08,419.117 512.987,417.441C514.44,416.165 513.32,413.79 511.375,414.409C507.056,415.783 503.346,418.97 499.342,421.04C495.546,423.004 491.489,424.149 487.356,425.147C485.981,425.48 486.681,427.375 487.882,427.379C488.6,427.382 489.319,427.357 490.038,427.313C486.861,430.063 484.142,433.379 481.084,436.221C480.083,437.152 478.765,437.875 477.52,438.419C475.958,439.101 474.974,439.269 474.489,437.422C474.389,437.043 474.085,436.893 473.772,436.913C475.357,435.038 476.946,432.962 477.845,430.755C478.404,429.382 476.486,428.095 475.561,429.361C473.977,431.529 472.662,433.815 470.92,435.888C469.057,438.103 466.99,440.143 464.915,442.154C462.823,444.181 460.684,446.206 458.826,448.453C457.582,449.955 456.645,451.828 455.283,453.254C455.128,453.259 454.966,453.28 454.789,453.342C453.841,453.686 452.883,453.778 451.881,453.682C450.353,453.536 450.235,452.957 450.815,451.6C451.4,450.224 451.641,448.774 451.967,447.32C452.332,445.715 453.617,444.342 454.649,443.124C456.86,440.513 458.937,437.827 460.999,435.096C462.188,433.526 464.201,431.879 465.11,429.953C466.621,429.51 466.165,426.919 464.337,426.896C460.313,426.857 458.063,431.449 455.489,433.789C453.862,435.268 452.168,436.636 450.71,438.289C449.977,439.125 449.434,440.161 448.747,441.039C447.961,442.047 446.718,442.586 445.629,443.203C442.077,445.223 439.106,448.029 435.924,450.555C434.967,451.315 432.761,452.726 431.801,454.223C430.216,452.738 431.841,448.821 432.608,447.234C433.963,444.428 436.313,442.099 438.37,439.805C443.192,434.43 447.745,428.896 451.418,422.66C451.697,422.185 451.505,421.743 451.146,421.49C450.99,420.889 450.486,420.357 449.697,420.375C446.639,420.437 444.068,421.867 441.377,423.156C438.295,424.635 435.327,426.248 432.401,428.02C429.625,429.697 426.916,431.493 424.069,433.049C421.206,434.619 418.183,435.639 415.135,436.736C414.735,434.684 414.428,432.988 415.49,430.913C416.595,428.76 418.781,427.04 420.653,425.591C424.149,422.881 427.941,420.633 431.808,418.501C435.639,416.387 439.475,414.193 442.628,411.113C446.026,407.795 447.847,403.395 450.688,399.653C452.98,396.63 456.001,394.198 455.958,390.093C455.915,386.328 451.364,383.896 448.762,381.989C444.829,379.115 440.705,376.573 436.344,374.406C434.336,373.41 432.318,372.361 430.607,370.897C429.098,369.605 428.921,367.78 429.091,365.957C429.443,365.074 430.105,363.961 431.048,364.338C432.233,364.805 433.25,365.724 434.434,366.236C437.192,367.436 439.993,368.289 442.861,369.172C448.71,370.976 454.383,373.597 460.52,374.264C463.535,374.592 466.679,374.91 469.708,374.945C472.875,374.982 476.023,374.638 479.15,375.297C483.946,376.307 487.637,379.722 490.551,383.434C492.029,385.318 494.792,383.749 494.147,381.523C494.032,381.12 493.884,380.737 493.715,380.365C493.907,380.284 494.101,380.201 494.294,380.118C496.567,379.136 498.752,378.159 500.911,376.934C505.48,374.34 510.325,372.229 514.752,369.396C516.705,368.147 514.979,364.991 512.865,365.846Z" style="fill:rgb(182,153,105);fill-rule:nonzero;"/>
                </g>
            </g>
        </g>
    </g>
</svg>
