<?xml version="1.0" encoding="UTF-8" standalone="no"?>
<!DOCTYPE svg PUBLIC "-//W3C//DTD SVG 1.1//EN" "http://www.w3.org/Graphics/SVG/1.1/DTD/svg11.dtd">
<svg width="100%" height="100%" viewBox="0 0 227 137" version="1.1" xmlns="http://www.w3.org/2000/svg" xmlns:xlink="http://www.w3.org/1999/xlink" xml:space="preserve" xmlns:serif="http://www.serif.com/" style="fill-rule:evenodd;clip-rule:evenodd;stroke-linejoin:round;stroke-miterlimit:2;">
    <g transform="matrix(1,0,0,1,0,-685)">
        <g id="masaz-piersioweplecow" transform="matrix(1,0,0,1,15.1778,-179.183)">
            <rect x="-15.178" y="864.438" width="226.728" height="136.155" style="fill:none;"/>
            <clipPath id="_clip1">
                <rect x="-15.178" y="864.438" width="226.728" height="136.155"/>
            </clipPath>
            <g clip-path="url(#_clip1)">
                <g transform="matrix(1,0,0,1,-60.6578,317.687)">
                    <path d="M205.674,620.227C205.515,620.037 205.36,619.848 205.199,619.66C200.499,614.224 194.95,609.543 190.213,604.152C192.351,605.838 194.462,607.533 196.391,609.468C198.692,611.775 201.122,613.952 203.37,616.313C204.072,617.051 204.745,617.833 205.351,618.647C205.576,618.951 205.985,619.467 205.971,619.873C205.971,619.883 205.834,620.042 205.674,620.227ZM216.058,639.007C215.316,637.7 214.158,636.56 213.098,635.437C214.709,634.515 215.372,632.461 214.074,630.623C212.906,628.965 211.345,627.527 210.114,625.897C209.21,624.7 208.312,623.512 207.392,622.339C208.945,621.701 208.927,619.084 208.075,617.675C206.508,615.092 204.036,612.962 201.862,610.918C198.906,608.138 196.035,605.313 192.781,602.875C191.274,601.743 189.698,600.693 188.321,599.403C187.45,598.59 186.63,597.734 185.799,596.887C185.09,595.411 183.72,594.449 182.219,593.591C179.83,592.229 177.356,591.035 174.788,590.047C171.823,588.904 168.596,588.115 165.949,586.311C163.241,584.461 161.17,581.828 158.988,579.424C149.336,568.778 139.029,558.763 129.313,548.182C128.473,547.267 126.882,548.32 127.701,549.329C136.57,560.254 146.101,570.583 155.483,581.06C157.519,583.334 159.475,585.68 161.744,587.731C164.061,589.827 166.731,591.059 169.631,592.133C172.6,593.23 175.655,594.22 178.408,595.811C180.103,596.791 182.699,597.547 183.681,599.35C183.794,599.556 183.944,599.701 184.114,599.799C187.815,606.383 193.045,611.877 198.382,617.196C201.379,620.185 204.202,623.288 206.869,626.573C208.15,628.156 209.481,629.674 210.876,631.159C211.138,631.434 212.443,632.326 212.142,632.779C212.063,632.899 211.275,632.87 211.108,632.877C211.004,632.88 210.905,632.895 210.814,632.919C210.123,632.151 209.435,631.383 208.741,630.618C206.318,627.949 203.936,625.133 201.277,622.697C198.531,620.183 195.543,617.943 192.814,615.417C190.116,612.919 187.5,610.366 184.602,608.089C183.736,607.407 182.714,608.683 183.528,609.412C186.194,611.804 188.392,614.659 190.829,617.276C193.288,619.92 196.143,622.152 198.812,624.579C201.636,627.142 204.152,630.084 206.716,632.908C207.963,634.284 209.205,635.667 210.441,637.054C211.165,637.864 211.859,638.766 212.621,639.578C211.479,640.076 210.392,639.941 208.954,639.687C207.892,639.5 206.584,639.241 205.403,638.822C205.402,638.558 205.319,638.276 205.119,638.001C200.622,631.783 193.378,628.86 187.91,623.742C184.844,620.87 181.7,618.114 178.523,615.361C175.452,612.701 172.761,609.625 170.023,606.628C169.167,605.688 167.532,606.839 168.397,607.787C170.819,610.438 172.717,613.512 175.196,616.131C178.11,619.207 181.3,622.049 184.334,625.008C187.239,627.839 190.348,630.014 193.724,632.239C196.507,634.075 199.444,636.065 201.75,638.537C201.744,638.58 201.741,638.626 201.741,638.672C198.389,639.249 194.766,637.828 191.824,636.444C187.437,634.378 183.445,631.57 179.522,628.743C175.532,625.87 171.554,622.967 167.46,620.238C165.354,618.837 163.167,617.521 160.907,616.389C159.806,615.835 158.588,615.451 157.413,615.098C156.226,614.742 154.901,614.71 153.784,614.227C153.612,614.151 153.452,614.128 153.306,614.138C152.669,613.116 151.97,612.156 151.175,611.35C150.183,610.341 148.551,611.697 149.018,612.898C149.727,614.714 151.081,616.316 152.138,617.947C153.398,619.889 154.713,621.814 155.862,623.825C156.966,625.763 158.35,627.864 157.397,630.133C157.035,630.999 156.071,631.836 155.101,632.402C153.948,631.309 153.47,629.484 152.469,628.248C151.129,626.59 149.4,625.241 147.782,623.869C144.396,621.004 141.115,617.848 138.581,614.191C135.621,609.919 135.499,605.174 135.317,600.152C135.141,595.221 135.078,589.927 133.589,585.177C132.278,581 127.833,578.521 124.399,576.307C120.155,573.571 115.979,570.77 111.997,567.664C104.068,561.482 96.699,554.509 89.553,547.449C88.682,546.591 87.553,548.05 88.369,548.904C95.198,556.072 101.937,563.278 109.431,569.771C113.263,573.091 117.248,576.238 121.503,578.992C125.236,581.411 129.233,583.778 131.009,588.07C131.548,589.378 131.893,590.767 132.118,592.197C130.173,592.06 128.134,593.187 126.439,594.09C123.057,595.89 119.719,597.709 116.058,598.906C111.933,600.257 107.36,601.189 103.061,601.771C102.366,601.865 101.582,601.964 100.76,602.037C100.596,601.973 100.435,601.905 100.27,601.841C96.12,600.241 91.897,598.847 87.624,597.622C83.327,596.391 78.924,595.59 74.608,594.431C70.241,593.263 65.934,591.884 61.698,590.303C57.405,588.698 52.881,587.072 48.844,584.896C47.728,584.293 46.964,586.082 48.054,586.694C51.959,588.879 55.674,591.184 59.772,593.027C63.83,594.85 67.995,596.456 72.226,597.824C76.442,599.189 80.735,600.214 85.005,601.378C89.362,602.564 93.611,604.108 97.833,605.703C101.972,607.271 106.045,608.929 109.985,610.946C111.874,611.912 113.784,612.874 115.819,613.498C117.889,614.132 120.464,614.207 122.32,615.355C129.407,619.735 132.875,628.139 139.856,632.527C140.79,633.288 141.977,633.628 143.099,634.234C143.997,634.719 143.542,634.976 142.8,635.361C141.783,635.893 140.577,636.18 139.456,636.374C137.014,636.794 135.259,635.831 133.346,634.401C130.882,632.56 128.06,631.401 125.483,629.763C125.383,629.698 125.283,629.659 125.183,629.63C124.053,626.754 123.151,623.838 122.83,620.621C122.727,619.593 121.269,619.601 121.073,620.574C120.265,624.589 121.986,628.82 123.433,632.496C125.042,636.582 126.842,640.596 128.078,644.815C129.307,649.014 130.054,653.354 131.234,657.573C131.789,659.556 132.202,661.832 131.045,663.672C130.192,665.029 128.766,665.327 127.305,665.615C127.18,665.157 127.044,664.716 126.912,664.306C125.9,661.16 123.905,658.219 122.476,655.246C121.025,652.229 119.972,649.034 118.832,645.891C117.6,642.49 116.323,639.103 115.159,635.676C114.874,634.838 113.508,635.146 113.644,636.031C114.627,642.3 116.542,648.598 119.009,654.443C120.198,657.261 121.672,659.955 123.033,662.692C124.396,665.431 124.919,667.81 124.691,670.857C124.691,670.863 124.692,670.872 124.691,670.881C124.02,672.891 122.914,675.565 121.037,675.723C120.851,675.51 120.586,675.353 120.229,675.302C118.916,675.129 118.544,674.159 118.118,673.018C117.536,671.467 116.988,669.92 116.593,668.303C115.675,664.559 113.936,661.371 112.288,657.903C110.659,654.482 109.499,650.898 107.974,647.437C106.339,643.725 104.308,640.264 102.173,636.821C101.682,636.031 100.31,636.748 100.727,637.593C102.672,641.533 104.497,645.462 105.866,649.645C107.265,653.916 108.876,657.917 110.882,661.939C111.708,663.601 112.642,665.202 113.194,666.979C113.784,668.881 114.105,670.824 114.864,672.67C114.556,672.783 114.279,673.008 114.099,673.386C113.795,674.025 112.819,674.161 112.194,674.266C111.648,674.357 111.074,674.449 110.503,674.523C107.814,673.38 106.86,670.167 105.705,667.719C104.918,666.056 104.054,664.436 103.372,662.725C102.634,660.891 102.179,658.961 101.405,657.133C99.909,653.593 98.294,650.131 96.373,646.801C94.353,643.302 91.789,640.185 89.14,637.147C88.365,636.261 86.88,637.267 87.625,638.227C90.086,641.4 92.482,644.658 94.486,648.148C95.502,649.919 96.139,651.852 96.929,653.729C97.808,655.81 98.754,657.858 99.565,659.97C100.258,661.774 100.73,663.612 101.557,665.369C102.074,666.467 102.626,667.545 103.153,668.634C101.621,669.575 99.198,668.026 98.236,666.859C96.722,665.02 95.308,663.136 94.101,661.079C91.489,656.643 89.835,651.973 86.397,648.054C83.025,644.213 79.749,640.238 77.361,635.679C76.064,633.201 75.82,631.087 76.087,628.339C76.298,626.16 76.309,624.153 75.119,622.248C74.554,621.347 73.248,621.993 73.299,622.937C73.332,623.599 73.299,624.26 73.227,624.915C72.453,624.599 71.607,624.406 70.799,624.213C68.994,623.775 67.228,623.397 65.45,622.841C63.067,622.097 60.702,621.319 58.331,620.543C55.971,619.771 53.538,619.119 51.41,617.797C50.325,617.117 49.031,618.581 50.118,619.383C53.866,622.148 58.677,623.599 62.961,625.332C63.089,625.387 63.218,625.438 63.347,625.487C62.631,625.771 61.944,626.089 61.31,626.411C58.589,627.791 56.36,630.018 54.259,632.191C50.326,636.266 47.037,641.549 46.319,647.248C46.052,649.381 49.059,650.32 49.95,648.312C52.014,643.661 54.043,639.346 57.322,635.404C59.021,633.366 60.907,631.301 63.131,629.839C64.681,628.82 66.57,628.284 68.08,627.233C68.238,627.282 68.393,627.337 68.555,627.385C69.96,627.789 71.285,628.166 72.57,628.844C72.463,629.5 72.378,630.16 72.345,630.823C72.21,633.613 73.474,636.123 74.787,638.506C77.68,643.755 81.786,647.894 85.491,652.521C89.177,657.126 91.094,662.805 94.813,667.418C96.31,669.272 97.501,670.799 99.918,671.396C101.562,671.803 103.104,672.001 104.18,670.896C105.281,673.445 106.849,676.245 109.627,677.142C110.166,677.318 110.647,677.173 110.997,676.883C111.755,676.945 112.508,676.97 113.321,676.835C114.401,676.655 115.375,676.215 116.069,675.438C116.812,676.898 117.822,678.1 119.657,678.054C121.258,678.788 123.138,678.132 124.558,676.737C125.895,675.426 127.548,673.008 127.526,670.883C127.736,670.286 127.821,669.645 127.827,668.989C131.294,668.076 133.764,666.324 134.796,662.617C135.345,660.644 134.734,658.358 134.254,656.439C133.652,654.039 132.969,651.669 132.409,649.253C131.833,646.766 131.288,644.268 130.422,641.865C129.571,639.503 128.453,637.248 127.448,634.948C127.17,634.318 126.895,633.691 126.622,633.067C127.489,633.649 128.369,634.212 129.251,634.787C130.813,635.804 132.009,637.223 133.539,638.266C136.23,640.106 139.334,639.855 142.301,638.94C144.539,638.249 147.006,636.331 146.307,633.745C145.846,632.034 143.825,631.148 142.097,630.438C142.027,630.326 141.945,630.214 141.84,630.109C136.184,624.236 131.695,616.883 124.836,612.267C122.975,611.012 120.967,610.494 118.85,609.843C116.807,609.216 114.847,608.364 112.934,607.419C111.054,606.494 109.173,605.611 107.277,604.767C109.128,604.515 110.915,604.176 112.541,603.857C116.998,602.975 120.964,601.56 125.051,599.568C126.358,598.93 127.581,598.18 128.847,597.474C129.451,597.138 130.089,596.859 130.729,596.602C131.039,596.474 131.361,596.362 131.693,596.301C131.785,596.285 131.848,596.267 131.892,596.254C131.91,596.278 131.946,596.307 132.015,596.346C132.173,596.434 132.333,596.492 132.49,596.529C132.571,599.072 132.489,601.626 132.584,603.997C132.774,608.712 133.881,612.419 136.672,616.248C139.19,619.703 142.507,622.658 145.683,625.492C147.422,627.045 149.121,628.505 150.455,630.438C151.522,631.983 151.845,633.794 153.37,635.042C154.213,635.732 155.184,635.332 155.647,634.622C158.747,633.878 160.767,630.004 159.863,627.003C159.032,624.236 157.312,621.613 155.978,619.061C155.71,618.55 155.439,618.019 155.16,617.479C155.463,617.675 155.778,617.865 156.124,618.031C157.243,618.569 158.401,619.001 159.505,619.576C162.039,620.892 164.395,622.583 166.693,624.268C170.974,627.404 175.187,630.629 179.525,633.688C183.777,636.688 188.227,639.466 193.065,641.42C196.45,642.789 201.591,643.808 204.889,641.804C205.001,641.737 205.101,641.66 205.189,641.582C206.48,642.227 207.863,642.693 209.277,643.031C211.424,643.549 215.278,643.518 215.861,640.777C216.271,640.353 216.431,639.661 216.058,639.007Z" style="fill:rgb(182,153,105);fill-rule:nonzero;"/>
                </g>
                <g transform="matrix(1,0,0,1,-60.6578,317.687)">
                    <path d="M266.672,642.552C259.854,637.873 253.075,633.258 247.115,627.486C241.408,621.963 236.72,615.654 231.809,609.446C227.16,603.569 221.92,598.075 215.104,594.739C211.244,592.85 206.989,591.557 202.739,590.939C200.756,590.652 198.75,590.536 196.748,590.483C194.395,590.424 192.069,590.763 189.721,590.736C188.648,590.728 188.604,592.545 189.672,592.616C193.798,592.877 198.119,593.832 202.146,594.757C206.195,595.689 210.152,597.093 213.828,599.029C220.309,602.447 224.993,608.081 229.433,613.747C234.24,619.883 239.072,625.962 244.832,631.246C250.863,636.778 257.742,641.587 265.231,644.907C266.636,645.529 267.992,643.459 266.672,642.552Z" style="fill:rgb(182,153,105);fill-rule:nonzero;"/>
                </g>
                <g transform="matrix(1,0,0,1,-60.6578,317.687)">
                    <path d="M271.64,672.677C268.476,671.948 265.203,671.273 262.221,669.956C258.966,668.521 256.923,666.076 255.126,663.097C251.275,656.723 248.284,649.867 244.027,643.731C239.756,637.581 234.122,632.425 228.768,627.241C223.207,621.861 217.827,616.288 213.668,609.721C212.852,608.432 211.068,609.789 211.777,611.066C215.605,617.976 220.758,623.977 226.024,629.814C231.302,635.667 237.096,641.261 241.447,647.862C245.762,654.408 248.514,661.967 253.129,668.307C257.334,674.087 264.695,676.341 271.552,676.049C273.586,675.961 273.431,673.086 271.64,672.677Z" style="fill:rgb(182,153,105);fill-rule:nonzero;"/>
                </g>
                <g transform="matrix(1,0,0,1,-76.6578,317.687)">
                    <path d="M218,680.168C216.342,677.771 212.968,676.869 210.381,675.838C207.481,674.682 204.716,673.322 201.997,671.788C196.629,668.755 191.195,665.528 186.502,661.516C181.853,657.54 177.515,653.371 172.415,649.949C170.02,648.344 167.494,647.01 164.833,645.908C161.946,644.707 158.949,643.727 156.27,642.078C154.903,641.239 153.263,643.127 154.653,644.065C159.588,647.402 165.296,649.195 170.077,652.818C174.953,656.519 179.039,661.048 183.489,665.215C188.01,669.448 193.528,672.571 198.812,675.746C201.473,677.346 204.204,678.834 207.092,679.988C208.526,680.561 209.97,681.109 211.397,681.7C212.92,682.331 214.374,683.188 216.043,683.334C217.756,683.486 219.036,681.672 218,680.168Z" style="fill:rgb(182,153,105);fill-rule:nonzero;"/>
                </g>
            </g>
        </g>
    </g>
</svg>
