<?xml version="1.0" encoding="UTF-8" standalone="no"?>
<!DOCTYPE svg PUBLIC "-//W3C//DTD SVG 1.1//EN" "http://www.w3.org/Graphics/SVG/1.1/DTD/svg11.dtd">
<svg width="100%" height="100%" viewBox="0 0 208 139" version="1.1" xmlns="http://www.w3.org/2000/svg" xmlns:xlink="http://www.w3.org/1999/xlink" xml:space="preserve" xmlns:serif="http://www.serif.com/" style="fill-rule:evenodd;clip-rule:evenodd;stroke-linejoin:round;stroke-miterlimit:2;">
    <g transform="matrix(1,0,0,1,-229,-4)">
        <g id="masaz-stopy" transform="matrix(1,0,0,1,233.328,180.046)">
            <rect x="-3.483" y="-175.914" width="206.372" height="138.07" style="fill:none;"/>
            <clipPath id="_clip1">
                <rect x="-3.483" y="-175.914" width="206.372" height="138.07"/>
            </clipPath>
            <g clip-path="url(#_clip1)">
                <g transform="matrix(1,0,0,1,-330.344,-254.93)">
                    <path d="M454.803,201.743C457.187,201.271 458.378,198.958 460.424,197.914C461.346,197.442 462.245,196.97 462.787,196.051C463.513,194.82 463.648,193.45 464.589,192.32C465.528,191.195 466.9,190.466 468.243,189.953C469.726,189.384 471.033,189.706 472.399,190.151C470.668,191.581 469.482,193.429 468.647,195.613C468.125,196.972 467.848,198.418 467.393,199.801C466.938,201.174 465.754,201.897 464.587,202.614C463.475,203.3 462.535,204.072 461.661,205.047C460.665,206.155 458.955,208.47 457.73,209.359C455.521,210.963 453.683,209.199 451.094,209.289C450.16,208.739 449.235,208.183 448.281,207.659C446.725,206.807 445.093,206.114 443.618,205.12C442.191,204.157 441.1,202.636 439.949,201.371C439.714,201.113 439.474,200.842 439.226,200.565C439.813,200.65 440.396,200.774 440.959,200.938C442.727,201.459 444.336,202.41 446.136,202.83C447.523,203.154 448.81,202.361 449.772,201.419C450.076,201.494 450.396,201.543 450.722,201.581C452.09,201.982 453.838,201.935 454.803,201.743ZM473.787,199.097C474.944,198.264 475.359,196.808 475.843,195.546C476.491,193.86 477.636,192.445 479.125,191.442C480.184,190.728 481.258,190.622 482.385,190.611C481.806,191.542 481.373,192.56 481.03,193.608C480.519,195.172 480.587,196.686 480.323,198.275C480.179,199.149 479.136,199.536 478.466,199.933C476.936,200.838 475.566,201.948 474.152,203.015C473.385,203.595 472.578,204.123 471.71,204.506C469.973,204.635 468.249,205.082 466.517,205.313C466.21,205.356 465.916,205.414 465.631,205.48C466.53,204.766 467.565,204.206 468.426,203.437C469.532,202.448 470.055,201.228 470.472,199.852C470.447,200.027 470.426,200.198 470.396,200.372C471.593,200.126 472.771,199.831 473.787,199.097ZM532.061,168.031C528.112,166.455 524.3,164.572 520.426,162.827C516.393,161.01 512.201,159.715 508.026,158.274C503.747,156.801 499.646,154.943 495.442,153.273C493.385,152.453 491.297,151.695 489.201,150.972C489.075,150.93 488.948,150.89 488.82,150.846C490.053,150.992 491.285,150.916 492.401,150.378C494.478,149.379 496.337,146.833 496.54,144.527C496.595,143.883 496.314,143.067 495.622,142.85C493.619,142.224 491.76,141.335 489.913,140.347C488.057,139.354 486.116,138.449 484.33,137.343C482.556,136.242 480.894,134.959 479.148,133.816C477.287,132.598 475.438,131.477 473.724,130.046C470.62,127.457 468.185,123.908 464.28,122.454C462.723,121.875 460.96,121.724 459.675,120.703C459.711,120.575 459.724,120.44 459.704,120.298C459.394,118.135 458.77,115.935 458.223,113.815C457.616,111.453 456.614,109.214 455.501,107.052C453.313,102.794 450.528,98.715 447.861,94.74C445.365,91.011 442.326,87.636 439.21,84.413C436.203,81.303 432.836,78.512 428.804,76.852C427.789,76.434 427.216,77.856 428.131,78.382C431.781,80.478 434.912,83.443 437.725,86.543C440.677,89.794 443.424,93.243 445.737,96.977C448.204,100.956 450.66,105.085 452.693,109.304C453.632,111.248 454.376,113.288 454.944,115.371C454.429,115.006 453.576,115.417 453.864,116.146C454.568,117.933 455.937,119.254 456.78,120.937C457.646,122.664 458.647,123.423 460.466,124.066C462.696,124.854 464.62,125.4 466.463,126.961C468.259,128.482 469.768,130.327 471.498,131.924C473.119,133.421 474.889,134.694 476.764,135.855C478.701,137.052 480.485,138.479 482.391,139.727C484.229,140.931 486.232,141.868 488.153,142.933C489.785,143.835 491.419,144.684 493.156,145.319C492.752,146.343 491.963,147.268 491.007,147.712C489.983,148.193 488.848,147.856 487.731,147.555C488.504,146.393 488.801,145.048 487.64,144.082C487.621,143.692 487.403,143.327 486.9,143.157C485.063,142.533 483.263,142.081 481.48,141.278C479.411,140.343 477.343,139.378 475.299,138.385C471.451,136.515 467.851,134.167 464.655,131.318C463.16,129.983 461.818,128.497 460.577,126.929C459.222,125.212 457.587,124.25 455.622,123.356C454.498,122.845 453.758,122.372 453.11,121.316C452.631,120.534 452.243,119.697 451.785,118.898C450.681,116.961 449.664,115.006 448.434,113.14C447.893,112.316 446.785,113.185 447.222,114.003C448.311,116.027 449.02,118.242 450.038,120.306C450.792,121.83 451.345,123.478 452.752,124.542C454.701,126.018 456.963,126.362 458.588,128.343C459.886,129.926 461.221,131.436 462.71,132.848C465.834,135.814 469.527,138.164 473.331,140.153C475.315,141.19 477.383,142.042 479.393,143.029C481.382,144.004 483.356,144.577 485.42,145.254C485.335,145.898 485.276,146.307 484.573,146.872C483.944,147.373 483.133,147.619 482.36,147.785C480.643,148.15 478.868,147.995 477.156,147.688C474.226,147.164 471.471,146.045 469.04,144.379C468.962,144.253 468.854,144.141 468.704,144.045C467.218,143.088 465.882,141.853 464.444,140.817C462.994,139.772 461.381,139.001 459.941,137.933C456.944,135.716 454.441,132.826 452.189,129.879C450.032,127.052 447.984,124.085 446.202,121.007C445.196,119.275 444.658,117.377 444.121,115.462C443.513,113.302 442.769,111.325 442.002,109.223C441.653,108.261 440.314,108.825 440.554,109.769C441.578,113.813 441.777,117.918 443.725,121.695C445.479,125.099 447.795,128.313 450.012,131.428C452.234,134.542 454.705,137.457 457.703,139.853C459.247,141.091 461.002,141.942 462.625,143.052C464.059,144.03 465.337,145.038 466.84,145.856C466.843,145.879 466.845,145.896 466.849,145.919C466.578,146.455 466.384,146.84 465.638,147.07C464.759,147.34 463.675,147.207 462.781,147.112C459.188,146.729 455.988,145.402 453.035,143.336C449.802,141.071 447.051,138.108 444.438,135.169C443.381,133.98 442.52,132.719 441.651,131.398C441.16,130.648 440.654,130.246 440.036,130.058C438.749,128.793 436.857,128.403 435.634,126.929C434.281,125.301 433.408,123.423 431.83,121.968C430.285,120.542 428.104,119.82 426.431,118.528C424.536,117.058 423.064,115.349 421.783,113.332C419.455,109.662 417.844,105.363 416.392,101.284C415.567,98.975 415.047,96.627 414.839,94.186C414.651,91.958 415.433,90.791 416.895,89.212C417.552,88.503 416.51,87.444 415.752,87.992C414.95,88.573 414.166,89.025 413.463,89.56C412.638,88.458 411.194,87.753 410.048,87.07C408.252,86 406.197,85.519 404.356,84.554C403.485,84.096 402.76,85.391 403.476,85.991C404.931,87.214 406.453,88.322 407.979,89.451C409.102,90.282 410.144,91.527 411.424,92.135C410.683,94.194 411.419,97.192 411.886,99.122C413.101,104.145 415.226,109.147 417.612,113.722C417.954,114.374 418.317,115.006 418.698,115.62C415.508,113.542 412.504,111.232 409.974,108.352C408.593,106.78 407.459,105.016 405.702,103.824C403.83,102.555 401.563,101.855 399.371,101.405C397.154,100.95 394.715,100.964 392.48,101.264C389.833,101.62 387.082,102.385 384.445,101.575C383.65,101.331 382.694,101.513 382.356,102.389C381.395,104.875 382.134,108.207 384.015,110.232C382.548,111.826 383.768,114.35 384.914,115.81C385.361,116.378 385.943,116.945 386.603,117.448C386.465,117.699 386.395,117.999 386.409,118.327C386.541,120.992 389.063,123.734 391.799,124.217C391.447,127.008 394.046,128.718 396.456,129.383C396.655,129.436 396.879,129.474 397.122,129.496C397.929,131.419 398.523,133.439 399.536,135.25C400.754,137.424 402.369,139.246 404.199,140.927C407.504,143.96 411.623,145.583 415.318,147.943C410.824,147.551 406.077,148.446 401.927,149.69C392.917,152.402 384.313,156.388 375.654,160.023C366.955,163.675 358.039,166.694 349.141,169.814C345.009,171.265 340.685,171.924 336.765,173.948C333.101,175.838 330.034,178.329 327.251,181.347C326.037,182.661 327.921,184.408 329.305,183.539C332.421,181.58 335.346,179.216 338.631,177.54C342.215,175.71 346.234,175.137 350.026,173.878C358.579,171.042 367.126,168.097 375.464,164.669C383.823,161.233 392.08,157.542 400.617,154.558C404.475,153.209 408.41,152.056 412.501,151.754C414.454,151.607 416.325,151.69 418.268,151.917C419.354,152.04 420.397,152.314 421.421,152.638C424.168,154.939 426.804,157.478 428.508,160.492C429.853,162.87 430.73,165.486 431.679,168.035C432.146,169.292 432.641,170.529 433.212,171.74C433.29,171.904 433.363,172.068 433.433,172.236C433.198,172.196 432.964,172.166 432.728,172.149C431.14,172.038 429.46,172.572 427.948,173.009C427.036,173.271 427.447,174.587 428.311,174.549C431.241,174.411 433.968,175.42 436.582,176.667C437.229,176.976 437.941,176.725 438.401,176.228C440.616,173.84 442.671,171.313 444.694,168.764C446.551,166.423 448.217,163.796 450.628,161.982C452.509,160.567 454.415,160.345 456.651,160.711C456.946,160.76 457.29,160.835 457.579,160.969C457.398,161.14 457.228,161.319 457.071,161.514C456.204,162.509 455.504,163.625 454.867,164.778C453.548,167.162 452.782,169.806 451.479,172.204C450.226,174.515 448.519,176.551 446.679,178.413C444.63,180.489 442.271,182.071 439.792,183.577C437.427,185.013 434.537,186.589 433.013,188.979C432.801,189.312 432.76,189.687 432.833,190.027C432.675,190.47 432.99,190.805 433.385,190.892C433.749,191.15 434.238,191.197 434.737,190.82C435.139,190.511 435.527,190.185 435.911,189.853C437.344,189.531 439.11,189.623 440.192,189.68C441.84,189.767 443.369,190.616 445.049,190.443C446.651,190.279 447.466,188.458 448.117,187.222C448.707,186.108 449.23,185.562 450.313,184.892C451.389,184.227 452.52,183.647 453.624,183.026C456.845,181.208 457.191,176.336 460.463,174.792C461.894,174.115 465.946,172.522 466.852,174.392C466.869,174.428 466.892,174.462 466.911,174.496C464.707,176.124 463.245,178.032 462.001,180.595C460.641,183.409 459.651,186.468 457.573,188.862C456.503,190.096 455.004,190.981 453.729,191.987C452.422,193.018 451.385,194.224 450.458,195.602C450.153,196.055 449.567,197.214 448.901,198.203C448.428,198.453 448.057,198.904 447.923,199.394C447.624,199.665 447.327,199.831 447.047,199.813C446.28,199.777 445.46,199.255 444.783,198.936C443.805,198.48 442.793,198.073 441.76,197.764C438.165,196.675 434.832,197.468 431.207,197.705C427.257,197.958 425.373,193.104 423.255,190.516C420.963,187.714 418.175,185.369 415.985,182.476C414.839,180.961 413.861,179.291 412.998,177.602C412.259,176.153 411.678,174.562 410.826,173.161C411.053,171.567 411.025,169.915 411.285,168.323C411.437,167.394 410.154,167.072 409.754,167.875C409.3,168.776 408.908,169.754 408.676,170.76C406.207,170.406 403.992,171.75 402.157,173.289C400.097,175.018 398.142,176.924 396.123,178.712C391.068,183.187 386.242,187.918 380.668,191.762C374.898,195.739 369.086,199.847 362.771,202.917C356.486,205.972 349.707,207.804 343.03,209.778C341.935,210.104 342.364,211.962 343.49,211.731C350.052,210.39 356.649,209.105 362.969,206.847C369.355,204.57 375.098,200.687 380.688,196.927C386.203,193.218 391.138,189.005 396.05,184.541C398.308,182.486 400.692,180.556 402.896,178.45C404.174,177.222 406.081,174.914 408.055,175.001C408.629,176.471 409.43,177.9 410.129,179.278C411.037,181.072 412.075,182.793 413.265,184.412C415.618,187.614 418.839,190.064 421.271,193.203C423.596,196.203 425.247,199.741 429.172,200.812C430.892,201.283 432.877,200.928 434.597,200.636C434.724,200.615 434.854,200.599 434.984,200.583C435.301,200.661 435.614,200.757 435.911,200.88C436.616,201.172 437.368,202.312 437.853,202.864C438.463,203.561 439.045,204.278 439.662,204.966C440.861,206.308 442.125,207.346 443.677,208.253C445.253,209.176 446.932,210.047 448.575,210.841C455.828,213.413 455.828,213.413 459.166,211.862C460.832,210.741 461.672,209.985 462.659,208.76C464.217,208.343 465.71,208.051 467.383,208.032C468.413,208.021 469.44,207.923 470.422,207.682C470.927,207.614 471.432,207.529 471.938,207.405C473.668,206.988 475.226,205.749 476.607,204.691C477.841,203.75 479.082,202.856 480.423,202.072C481.412,201.492 482.178,200.902 482.767,199.905C483.399,198.821 483.218,197.421 483.328,196.235C483.358,195.925 483.41,195.619 483.474,195.308C486.156,196.74 488.922,197.969 491.641,199.333C494.824,200.931 497.968,202.614 501.144,204.229C504.394,205.88 507.636,207.552 510.857,209.265C514.188,211.038 517.458,213.44 521.024,214.699C523.255,215.487 524.646,212.924 523.098,211.308C520.487,208.585 516.651,206.824 513.388,205.011C510.022,203.139 506.584,201.405 503.152,199.656C499.81,197.952 496.508,196.154 493.119,194.542C490.45,193.274 487.719,192.213 484.809,192.01C484.962,191.764 485.123,191.524 485.292,191.296C485.867,190.541 485.545,189.706 484.948,189.296C484.863,189.02 484.683,188.771 484.421,188.622C481.389,186.919 477.504,189.263 475.566,191.583C474.398,192.98 474.009,194.629 473.372,196.279C473.005,197.234 472.222,197.798 471.307,198.201C471.284,198.22 471.268,198.243 471.246,198.261C471.108,198.424 470.958,198.574 470.805,198.716C471.692,195.73 472.765,192.769 474.899,190.404C475.04,190.249 475.102,190.085 475.11,189.925C475.507,189.312 475.446,188.44 474.547,188.07C471.654,186.875 469.253,186.468 466.304,187.746C463.805,188.833 461.744,190.777 460.874,193.374C460.431,194.699 459.934,194.986 458.718,195.615C457.657,196.165 456.742,196.98 455.779,197.679C455.331,198.005 454.931,198.389 454.43,198.635C453.932,198.884 453.165,198.735 452.618,198.75C452.392,198.682 452.166,198.615 451.936,198.552C452.456,197.724 452.96,196.887 453.531,196.103C454.626,194.603 456.126,193.523 457.539,192.348C460.222,190.115 461.741,187.215 463.092,184.057C464.428,180.934 465.84,177.373 468.671,175.285C468.941,175.084 469.035,174.822 469.01,174.571C469.033,174.532 469.057,174.494 469.078,174.454C469.79,173.024 468.784,171.63 467.435,171.101C465.959,170.519 464.185,170.79 462.683,171.116C461.173,171.446 459.681,171.932 458.351,172.733C456.597,173.797 455.549,176.032 454.55,177.734C453.868,178.893 453.056,179.912 451.985,180.727C450.863,181.582 449.412,182.141 448.204,182.889C447.144,183.547 446.572,184.274 445.936,185.324C445.661,185.773 444.982,187.525 444.489,187.584C443.577,187.697 442.403,187.197 441.513,187.009C440.912,186.881 440.298,186.87 439.686,186.907C440.677,186.248 441.69,185.618 442.682,184.964C445.409,183.17 447.831,180.994 450.001,178.559C452.006,176.309 453.591,173.718 454.822,170.978C456.092,168.146 456.804,164.075 459.553,162.215C460.422,161.628 460.629,160.501 460.239,159.574C459.781,158.479 458.51,158.087 457.466,157.819C455.1,157.214 452.649,157.483 450.479,158.569C447.453,160.082 445.516,162.839 443.483,165.432C441.717,167.686 439.924,169.908 438.035,172.048C437.564,170.529 436.604,169.011 436.086,167.703C434.993,164.94 434.033,162.16 432.703,159.498C430.229,154.546 425.989,151.248 421.871,147.711C419.932,146.047 417.896,144.388 415.597,143.249C413.085,142.001 410.628,140.813 408.369,139.135C406.389,137.661 404.499,136.047 402.967,134.101C401.759,132.57 400.868,130.827 399.832,129.18C401.766,128.614 403.528,127.342 403.14,125.483C402.958,124.622 402.275,124.204 401.43,124.422C400.647,124.622 400.343,125.169 399.744,125.653C399.052,126.211 398.131,126.3 397.286,126.179C396.326,126.041 394.446,125.14 395.564,124.092C398.27,121.551 403.515,120.933 406.848,122.264C407.694,122.603 408.548,121.375 407.722,120.839C404.981,119.064 401.774,118.187 398.519,119.053C396.972,119.465 394.93,120.168 393.499,121.354C392.374,120.871 391.049,120.568 390.224,119.763C392.374,119.424 394.512,118.218 396.481,117.601C399.902,116.527 403.83,116.434 407.325,117.271C408.242,117.49 408.691,115.977 407.792,115.679C404.489,114.586 401.384,113.85 397.866,114.063C396.15,114.167 394.482,114.669 392.89,115.281C392.42,115.462 391.962,115.624 391.507,115.769C390.84,115.692 390.184,115.667 389.509,115.383C388.658,115.028 387.926,114.355 387.355,113.643C387.116,113.344 386.688,112.814 386.588,112.367C386.822,112.318 387.061,112.275 387.3,112.251C387.857,112.171 388.433,112.156 388.996,112.126C393.844,111.854 398.473,111.952 403.157,113.432C404.085,113.726 404.719,112.422 403.781,112.016C400.456,110.569 397.28,109.263 393.62,108.982C391.982,108.857 390.314,108.991 388.672,108.987C388.45,108.987 388.222,108.987 387.99,108.989C387.818,108.875 387.615,108.791 387.374,108.743C386.011,108.488 385.145,106.48 385.092,104.89C389.138,105.418 393.147,103.976 397.27,104.372C399.708,104.606 401.856,105.433 403.592,107.182C405.038,108.644 406.131,110.437 407.532,111.943C410.648,115.296 414.421,117.865 418.453,119.993C420.486,121.064 422.594,121.991 424.721,122.861C425.462,123.165 426.206,123.458 426.951,123.742C427.289,123.94 427.632,124.13 427.985,124.313C430.208,125.461 431.234,127.745 432.869,129.53C434.277,131.07 436.98,133.083 439.214,132.65C439.296,132.791 439.366,132.91 439.417,132.989C439.847,133.633 440.184,134.327 440.629,134.966C441.977,136.9 443.603,138.634 445.189,140.373C448.133,143.594 451.112,146.397 455.061,148.36C458.047,149.847 461.492,150.578 464.828,150.493C466.655,150.447 469.09,149.398 469.653,147.694C472.397,149.531 475.832,150.548 478.934,150.798C480.052,150.887 481.25,150.872 482.413,150.693C485.408,153.239 489.37,154.437 492.9,156.083C497.176,158.074 501.344,160.219 505.75,161.924C510.05,163.592 514.419,165.021 518.612,166.953C522.656,168.813 526.595,170.798 530.919,171.934C533.186,172.53 534.189,168.881 532.061,168.031Z" style="fill:rgb(182,153,105);fill-rule:nonzero;"/>
                </g>
            </g>
        </g>
    </g>
</svg>
