<svg xmlns="http://www.w3.org/2000/svg" width="17.158" height="17.158" viewBox="0 0 17.158 17.158"><defs><style>.a{fill:#0a3d57;}</style></defs><g transform="translate(0 9.263)"><path class="a" d="M12,2.658a3,3,0,0,1-.276.172c-.106.063-.213.12-.319.183a2.631,2.631,0,0,1-.563.248A2.661,2.661,0,0,1,10,3.384a2.8,2.8,0,0,1-.578-.065,3.345,3.345,0,0,1-1.1-.458,5.062,5.062,0,0,1-1.115-.969,7.932,7.932,0,0,1-.589-.754A10.993,10.993,0,0,1,6.033.187a11.2,11.2,0,0,1-.672-1.423,7.235,7.235,0,0,1-.317-1.058,4.739,4.739,0,0,1-.109-1.1,3.557,3.557,0,0,1,.091-.726A3.068,3.068,0,0,1,5.388-5a2.719,2.719,0,0,1,.654-.726,2.739,2.739,0,0,1,.509-.307c.1-.046.193-.1.285-.157a.978.978,0,0,1,.374-.141.547.547,0,0,1,.435.143,1.323,1.323,0,0,1,.289.4,5.49,5.49,0,0,1,.28.7c.059.163.113.326.157.493a1.392,1.392,0,0,1,.054.495A.825.825,0,0,1,8.12-3.5a1.94,1.94,0,0,1-.3.185c-.089.052-.18.1-.272.148-.076.037-.156.065-.232.1a.675.675,0,0,0-.328.3.825.825,0,0,0-.082.345,1.946,1.946,0,0,0,.1.617,5.411,5.411,0,0,0,.374.88,7.975,7.975,0,0,0,.506.859,3.2,3.2,0,0,0,.561.652,1.025,1.025,0,0,0,.476.243.622.622,0,0,0,.4-.065C9.4.725,9.467.673,9.541.626s.178-.107.267-.159.206-.111.313-.163a.8.8,0,0,1,.43-.069.9.9,0,0,1,.374.135,1.766,1.766,0,0,1,.432.382c.133.161.261.326.389.495.091.12.178.243.261.37a1.356,1.356,0,0,1,.2.452A.545.545,0,0,1,12,2.658M8.578-9.263A8.581,8.581,0,0,0,0-.683,8.578,8.578,0,0,0,8.578,7.895a8.579,8.579,0,0,0,8.58-8.578,8.581,8.581,0,0,0-8.58-8.58"/></g></svg>