<svg xmlns="http://www.w3.org/2000/svg" width="92.99" height="60.794" viewBox="0 0 92.99 60.794"><defs><style>.a{fill:#b69969;}</style></defs><g transform="translate(-913.125 -42.158)"><path class="a" d="M137.255-132.615a10.886,10.886,0,0,0-5.509,1.576,9.665,9.665,0,0,0-4.954,10.489,17.289,17.289,0,0,0,2.579,5.644c1.347,2.1,12.432,16.758,17.571,23.042a.427.427,0,0,0,.329.156h0a.426.426,0,0,0,.329-.16c2.089-2.6,5.083-6.5,8.216-10.7,5.8-7.772,9.388-12.956,9.941-14.06a14.546,14.546,0,0,0,1.46-5.056c.255-4.274-1.491-7.3-5.5-9.52a10.692,10.692,0,0,0-5.19-1.458,10.574,10.574,0,0,0-5.438,1.631,14.184,14.184,0,0,0-1.382.994,4.739,4.739,0,0,1-2.9,1,4.693,4.693,0,0,1-2.8-.919,16.521,16.521,0,0,0-3.51-2.138,10.836,10.836,0,0,0-3.244-.518m37.783,19.405a1.149,1.149,0,0,1,.624.182l.94.6a1.134,1.134,0,0,1,.5.656,1.012,1.012,0,0,1-.152.834l-14.674,21.21a.424.424,0,0,0-.027.439.425.425,0,0,0,.376.228h2.7a5.61,5.61,0,0,0,4.634-2.4c3.176-4.6,10.216-14.789,10.216-14.789a1.116,1.116,0,0,1,.761-.466,1.115,1.115,0,0,1,.161-.011,1.291,1.291,0,0,1,.681.208l.9.577a1.13,1.13,0,0,1,.5.656,1.01,1.01,0,0,1-.152.833l-10.1,14.6a.424.424,0,0,0-.009.471.425.425,0,0,0,.358.2.409.409,0,0,0,.072-.006,8.64,8.64,0,0,0,3.765-1.635,34.317,34.317,0,0,0,8.655-9.7,31.816,31.816,0,0,0,3.763-24.38,26.038,26.038,0,0,0-12.5-16.224,27.35,27.35,0,0,0-13.277-3.4,30.832,30.832,0,0,0-15.538,4.311,2.684,2.684,0,0,1-1.363.367,2.689,2.689,0,0,1-1.363-.367,30.829,30.829,0,0,0-15.537-4.311,27.356,27.356,0,0,0-13.277,3.4A26.035,26.035,0,0,0,104.19-124.9a31.8,31.8,0,0,0,3.763,24.38,34.3,34.3,0,0,0,8.654,9.7,8.617,8.617,0,0,0,4.4,1.72l.041,0a.425.425,0,0,0,.366-.21.425.425,0,0,0-.017-.457l-10.157-14.682a1.007,1.007,0,0,1-.153-.833,1.128,1.128,0,0,1,.5-.656l.9-.577a1.287,1.287,0,0,1,.682-.208,1.091,1.091,0,0,1,.16.011,1.114,1.114,0,0,1,.761.466s7.04,10.186,10.216,14.789a5.611,5.611,0,0,0,4.635,2.4h2.7a.427.427,0,0,0,.377-.228.424.424,0,0,0-.027-.439l-14.674-21.21a1.009,1.009,0,0,1-.153-.834,1.132,1.132,0,0,1,.5-.656l.939-.6a1.149,1.149,0,0,1,.624-.182,1.134,1.134,0,0,1,.937.479c.107.154,10.713,15.5,14.7,21.279a5.611,5.611,0,0,0,4.634,2.4h4.716a.427.427,0,0,0,.384-.244.427.427,0,0,0-.057-.453c-5.738-6.945-16.882-21.69-18.224-23.7a19.429,19.429,0,0,1-3.056-6.522c-1.2-5.3,1.347-10.552,6.486-13.392a14.636,14.636,0,0,1,7.121-1.938,14.538,14.538,0,0,1,4.216.645,20.6,20.6,0,0,1,4.466,2.54,2.112,2.112,0,0,0,1.232.391,2.128,2.128,0,0,0,1.278-.425,17.343,17.343,0,0,1,1.722-1.183,14.143,14.143,0,0,1,7.092-2.015,14.285,14.285,0,0,1,6.756,1.8c5.066,2.707,7.47,6.755,7.143,12.033a16.718,16.718,0,0,1-1.8,6.1C167.6-112.776,155.7-97,149.743-89.752a.427.427,0,0,0-.056.452.425.425,0,0,0,.384.244h4.691a5.613,5.613,0,0,0,4.635-2.4c3.99-5.783,14.6-21.124,14.7-21.279a1.135,1.135,0,0,1,.937-.479M119.274-86.364a3.353,3.353,0,0,1-1.789-.514A37.244,37.244,0,0,1,105.5-99.183a34.32,34.32,0,0,1-4.414-24.849,28.7,28.7,0,0,1,14.177-19.415,29.9,29.9,0,0,1,14.513-3.711,33.866,33.866,0,0,1,15.431,3.813,3.63,3.63,0,0,0,1.658.4,3.64,3.64,0,0,0,1.66-.4,33.857,33.857,0,0,1,15.43-3.813,29.9,29.9,0,0,1,14.513,3.711,28.706,28.706,0,0,1,14.178,19.415,34.323,34.323,0,0,1-4.416,24.849,37.233,37.233,0,0,1-11.988,12.305,3.353,3.353,0,0,1-1.789.514Z" transform="translate(812.759 189.316)"/></g></svg>