<svg xmlns="http://www.w3.org/2000/svg" width="47" height="47" viewBox="0 0 47 47"><defs><style>.a,.e{fill:none;}.a{stroke:#b69969;}.b,.f{fill:#b69969;}.c{fill:#0e3d57;}.d,.f{stroke:none;}</style></defs><g class="a"><circle class="d" cx="23.5" cy="23.5" r="23.5"/><circle class="e" cx="23.5" cy="23.5" r="23"/></g><g class="b" transform="translate(18 13)"><path class="d" d="M 5.499900341033936 17.96236991882324 L 0.8456349968910217 9.5 L 0.8681503534317017 9.5 L 0.6881003379821777 8.863840103149414 C 0.5632903575897217 8.422820091247559 0.5000003576278687 7.964160442352295 0.5000003576278687 7.500600337982178 C 0.5000003576278687 4.743150234222412 2.742950439453125 2.499800205230713 5.499900341033936 2.499800205230713 C 8.256850242614746 2.499800205230713 10.49980068206787 4.743150234222412 10.49980068206787 7.500600337982178 C 10.49980068206787 7.964160442352295 10.43651008605957 8.422820091247559 10.31169986724854 8.863840103149414 L 10.1316499710083 9.5 L 10.15416526794434 9.5 L 5.499900341033936 17.96236991882324 Z"/><path class="f" d="M 5.499900341033936 2.999799728393555 C 3.018650531768799 2.999799728393555 1 5.018850326538086 1 7.50059986114502 C 1 7.918120384216309 1.056930541992188 8.33096981048584 1.169210433959961 8.727680206298828 L 1.357599258422852 9.39332103729248 L 5.499900341033936 16.92483901977539 L 9.64220142364502 9.39332103729248 L 9.83059024810791 8.727680206298828 C 9.942870140075684 8.33096981048584 9.999800682067871 7.918120384216309 9.999800682067871 7.50059986114502 C 9.999800682067871 5.018850326538086 7.98115062713623 2.999799728393555 5.499900341033936 2.999799728393555 M 5.499900341033936 1.999799728393555 C 8.537400245666504 1.999799728393555 10.99980068206787 4.462200164794922 10.99980068206787 7.50059986114502 C 10.99980068206787 8.019900321960449 10.92780017852783 8.523000717163086 10.792799949646 9 L 10.99980068206787 9 L 5.499900341033936 18.99990081787109 L 0 9 L 0.207000732421875 9 C 0.07200050354003906 8.523000717163086 0 8.019900321960449 0 7.50059986114502 C 0 4.462200164794922 2.462400436401367 1.999799728393555 5.499900341033936 1.999799728393555 Z"/></g><circle class="c" cx="2.5" cy="2.5" r="2.5" transform="translate(21 18)"/></svg>