<svg xmlns="http://www.w3.org/2000/svg" width="17.642" height="17.64" viewBox="0 0 17.642 17.64"><defs><style>.a{fill:#0a3d57;}</style></defs><g transform="translate(0 9.262)"><path class="a" d="M5.336-6.192A1.465,1.465,0,0,0,3.869-4.727,1.466,1.466,0,0,0,5.336-3.265,1.466,1.466,0,0,0,6.8-4.727,1.465,1.465,0,0,0,5.336-6.192" transform="translate(3.5 2.777)"/><path class="a" d="M12.176.548l-.013.021a.04.04,0,0,0-.008.011l-1.12,1.661h0l-.091.137v0l-.444.657L9.717,4.192l-.9,1.326-.9-1.326-.368-.545L6.62,2.26,5.493.588,5.487.577,5.468.548h0a3.947,3.947,0,0,1-.661-2.19,4.006,4.006,0,0,1,4.013-4,4.006,4.006,0,0,1,4.011,4A3.964,3.964,0,0,1,12.176.548ZM8.822-9.262A8.82,8.82,0,0,0,0-.444,8.821,8.821,0,0,0,8.822,8.378a8.821,8.821,0,0,0,8.82-8.822,8.82,8.82,0,0,0-8.82-8.818" transform="translate(0 0)"/></g></svg>