<svg xmlns="http://www.w3.org/2000/svg" width="17.047" height="17.049" viewBox="0 0 17.047 17.049"><defs><style>.a{fill:#0a3d57;}</style></defs><g transform="translate(0 9.263)"><path class="a" d="M11.542-4.571h-.147c-.359,0-.718-.009-1.077,0-.491.018-.854.2-.872.817-.013.447-.015,1.48-.015,1.48s1.152,0,1.655,0c.127,0,.256,0,.4,0-.094.712-.182,1.4-.274,2.091H9.444V5.043H7.279V-.189H5.507V-2.271H7.289v-.156c0-.42-.009-.836,0-1.255a5.523,5.523,0,0,1,.066-.8A2.327,2.327,0,0,1,8.29-6.037a2.693,2.693,0,0,1,1.557-.48c.368-.009.736.009,1.1.026.2.009.4.039.591.055ZM8.524-9.263A8.524,8.524,0,0,0,0-.739,8.524,8.524,0,0,0,8.524,7.786,8.523,8.523,0,0,0,17.047-.739,8.523,8.523,0,0,0,8.524-9.263" transform="translate(0 0)"/></g></svg>