<svg xmlns="http://www.w3.org/2000/svg" width="17.642" height="17.643" viewBox="0 0 17.642 17.643"><defs><style>.a{fill:#0a3d57;}</style></defs><g transform="translate(0 9.263)"><path class="a" d="M2.305-5.593a.96.96,0,0,0-.076.377V-.966a.955.955,0,0,0,.1.419L5.05-3.269Z" transform="translate(2.017 3.321)"/><path class="a" d="M6.664-3.3a.326.326,0,0,1-.211.078A.334.334,0,0,1,6.241-3.3l-.956-.81L2.523-1.351a.941.941,0,0,0,.419.1h7.19a.981.981,0,0,0,.453-.114L7.714-4.193Z" transform="translate(2.283 4.587)"/><path class="a" d="M14.049,2.354a1.638,1.638,0,0,1-1.634,1.634H5.227A1.638,1.638,0,0,1,3.592,2.354V-1.894A1.639,1.639,0,0,1,5.227-3.528h7.188a1.639,1.639,0,0,1,1.634,1.634ZM8.821-9.263A8.823,8.823,0,0,0,0-.44,8.82,8.82,0,0,0,8.821,8.38,8.82,8.82,0,0,0,17.642-.44,8.823,8.823,0,0,0,8.821-9.263"/><path class="a" d="M8.21-5.576l-2.7,2.282L8.33-.525a.968.968,0,0,0,.08-.387V-5.159a.978.978,0,0,0-.139-.5.3.3,0,0,1-.061.078" transform="translate(4.986 3.265)"/></g></svg>