<?xml version="1.0" encoding="UTF-8" standalone="no"?>
<!DOCTYPE svg PUBLIC "-//W3C//DTD SVG 1.1//EN" "http://www.w3.org/Graphics/SVG/1.1/DTD/svg11.dtd">
<svg width="100%" height="100%" viewBox="0 0 206 135" version="1.1" xmlns="http://www.w3.org/2000/svg" xmlns:xlink="http://www.w3.org/1999/xlink" xml:space="preserve" xmlns:serif="http://www.serif.com/" style="fill-rule:evenodd;clip-rule:evenodd;stroke-linejoin:round;stroke-miterlimit:2;">
    <g transform="matrix(1,0,0,1,-307,-472)">
        <g id="masaz-zuchwa" transform="matrix(1,0,0,1,15.793,-77.4027)">
            <rect x="291.207" y="550.143" width="205.542" height="133.64" style="fill:none;"/>
            <clipPath id="_clip1">
                <rect x="291.207" y="550.143" width="205.542" height="133.64"/>
            </clipPath>
            <g clip-path="url(#_clip1)">
                <g transform="matrix(1,0,0,1,-309.473,230.063)">
                    <path d="M704.158,344.11C704.029,344.006 703.809,343.999 703.682,344.111C702.612,345.051 702.328,346.755 701.792,348.023C701.041,349.791 699.656,351.074 698.955,352.834C698.601,353.718 699.354,354.559 700.248,354.484C702.738,354.282 703.686,351.646 704.364,349.569C704.859,348.051 705.672,345.306 704.158,344.11Z" style="fill:rgb(182,153,105);fill-rule:nonzero;"/>
                </g>
                <g transform="matrix(1,0,0,1,-309.473,230.063)">
                    <path d="M691.449,359.131C690.263,357.656 690.406,354.47 690.293,352.602C690.227,351.396 690.174,350.223 690.303,349.018C690.45,347.649 691.305,346.694 690.928,345.252C690.734,344.525 690.103,343.779 689.245,343.979C685.332,344.885 685.86,349.966 686.749,352.905C687.573,355.634 688.77,357.868 691.33,359.282C691.42,359.33 691.504,359.202 691.449,359.131Z" style="fill:rgb(182,153,105);fill-rule:nonzero;"/>
                </g>
                <g transform="matrix(1,0,0,1,-309.473,230.063)">
                    <path d="M668.575,346.672C666.424,348.144 665.059,349.508 664.098,351.996C663.32,354.008 662.113,357.945 664.268,359.423C664.885,359.845 665.582,359.834 666.195,359.42C667.934,358.243 667.308,355.701 667.293,353.894C667.274,351.689 667.785,348.986 669.035,347.131C669.244,346.822 668.883,346.463 668.575,346.672Z" style="fill:rgb(182,153,105);fill-rule:nonzero;"/>
                </g>
                <g transform="matrix(1,0,0,1,-309.473,230.063)">
                    <path d="M677.212,416.757C676.551,415.167 675.202,414.063 674.171,412.719C673.086,411.309 672.281,409.639 671.5,408.047C669.76,404.502 667.266,401.156 666.885,397.104C666.847,396.727 666.277,396.744 666.235,397.109C665.695,401.496 666.746,405.35 667.949,409.521C668.936,412.938 671.206,418.918 675.52,418.992C676.704,419.012 677.716,417.969 677.212,416.757Z" style="fill:rgb(182,153,105);fill-rule:nonzero;"/>
                </g>
                <g transform="matrix(1,0,0,1,-309.473,230.063)">
                    <path d="M715.061,407.52C713.621,408.5 712.056,408.985 710.352,409.281C707.525,409.773 704.666,410.036 701.814,410.364C698.881,410.701 696.516,410.499 694.097,408.687C692.866,407.764 691.972,406.641 692.043,405.037C692.084,404.142 692.393,403.281 692.695,402.424C696.313,403.606 699.953,404.674 703.693,405.443C705.939,405.906 708.208,406.201 710.492,406.381C712.289,406.521 714.053,406.404 715.832,406.343C715.885,406.816 715.768,407.039 715.061,407.52ZM802.576,380.188C793.718,382.057 785.009,385.244 775.842,384.37C768.742,383.691 760.353,381.044 755.815,375.158C754.674,373.679 754.098,372.738 753.728,370.854C753.262,368.498 753.042,366.32 753.076,363.904C753.105,361.839 753.335,359.79 753.281,357.723C753.227,355.678 752.87,353.642 752.744,351.599C752.553,348.507 751.607,345.328 748.034,345.193C746.529,345.138 745.077,345.694 743.576,345.639C741.88,345.576 741.465,344.239 741.25,342.768C741.164,342.184 740.697,341.719 740.109,341.647C737.886,341.375 735.154,341.364 733.546,342.833C732.715,340.544 730.356,339.554 727.665,339.865C726.547,339.994 725.699,340.067 725.197,338.831C724.845,337.959 724.65,337.039 724.272,336.173C723.55,334.518 722.418,333.206 720.688,332.606C717.216,331.403 713.37,334.65 710.718,336.438C708.532,337.91 706.52,339.543 704.119,340.674C701.672,341.828 699.51,340.571 697.459,339.262C693.279,336.597 688.822,336.252 683.944,336.803C679.846,337.269 675.725,338.232 671.854,339.728C671.701,339.479 671.486,339.266 671.206,339.126C668.959,338.017 667.027,336.619 664.99,335.173C662.714,333.556 660.311,332.112 658.014,330.52C653.004,327.044 648.055,323.558 642.902,320.294C642.5,320.041 641.946,320.509 642.285,320.916C646.42,325.892 651.039,330.168 656.188,334.085C658.518,335.857 660.882,337.653 663.333,339.253C664.693,340.141 666.143,341.068 667.693,341.606C664.034,343.541 660.767,346.038 657.479,348.566C657.106,348.853 657.536,349.403 657.916,349.139C661.542,346.63 665.616,344.643 669.806,343.286C674.08,341.902 678.703,341.501 683.165,341.27C685.488,341.15 687.813,341.126 690.127,341.351C691.976,341.529 693.754,342.184 695.533,342.676C699.408,343.743 702.452,343.759 706.116,341.989C709.683,340.27 712.774,337.701 716.308,335.94C717.973,335.112 719.926,334.722 721.179,336.375C721.659,337.008 721.906,337.835 722.266,338.539C722.677,339.347 723.222,340.093 723.625,340.9C724.254,342.163 725.676,343.24 727.145,343.125C728.903,342.986 730.342,341.714 731.755,343.279C732.074,343.633 732.316,344.025 732.499,344.442C732.441,344.604 732.384,344.769 732.343,344.948C731.935,346.678 731.757,348.474 731.437,350.224C731.061,352.269 729.518,353.657 729.66,355.762C729.697,356.358 730.57,356.769 731.021,356.323C733.114,354.259 734.028,352.216 734.59,349.332C734.852,347.995 735.018,346.581 735.432,345.284C735.788,344.183 737.619,344.13 738.921,344.191C739.578,346.45 740.871,348.357 743.601,348.287C745.114,348.248 746.549,347.704 748.057,347.563C750.651,347.315 750.376,351.412 750.439,353.113C750.523,355.324 750.973,357.474 750.927,359.7C750.875,362.005 750.738,364.289 750.804,366.598C750.823,367.222 750.823,367.845 750.823,368.471C750.779,368.468 750.74,368.458 750.692,368.458C747.527,368.489 744.395,368.739 741.22,368.646C741.133,368.644 741.045,368.639 740.957,368.636C741.164,368.412 741.354,368.186 741.519,367.963C742.104,367.177 742.715,365.848 742.523,364.835C742.457,364.489 742.312,363.912 742.041,363.511C741.825,362.932 741.289,362.478 740.487,362.57C736.403,363.037 732.419,362.75 728.332,362.639C724.338,362.532 720.504,362.285 716.585,361.499C709.063,359.994 700.918,362.342 693.713,364.312C691.853,364.821 690.041,365.48 688.188,366.02C687.584,366.198 686.967,366.328 686.346,366.431C686.307,366.347 686.258,366.269 686.203,366.198C684.541,364.145 682.041,362.553 680.968,360.067C680.813,359.713 680.195,359.746 680.182,360.175C680.1,362.923 681.951,364.538 683.128,366.718C682.65,366.731 682.176,366.738 681.699,366.735C681.122,366.734 680.543,366.709 679.961,366.671C679.926,366.458 679.855,366.236 679.732,366.007C679.064,364.766 677.985,363.913 677.128,362.801C676.291,361.717 675.685,360.504 675.189,359.233C674.176,356.635 673.279,353.803 673.479,350.972C673.508,350.574 672.967,350.292 672.717,350.663C670.77,353.563 670.212,356.467 670.633,359.934C670.826,361.534 671.646,363.677 672.834,365.485C671.908,365.248 670.992,364.984 670.096,364.701C668.039,364.053 666.096,363.169 664.118,362.357C661.182,359.67 655.955,358.94 652.522,357.787C648.625,356.48 644.875,354.812 640.984,353.552C639.904,352.876 638.873,352.172 637.867,351.352C634.912,348.941 631.766,347.36 628.386,345.617C625.051,343.897 622.365,341.62 619.509,339.227C616.16,336.416 612.101,334.591 608.824,331.694C608.57,331.466 608.269,331.884 608.51,332.113C611.426,334.905 614.461,337.617 617.247,340.541C619.549,342.958 621.532,345.56 624.428,347.325C626.793,348.771 629.477,349.808 631.874,351.237C627.934,350.163 624.043,348.787 620.223,347.468C614.684,345.554 609.111,343.963 603.445,342.476C602.911,342.335 602.576,343.079 603.121,343.298C608.303,345.379 613.196,348.158 618.285,350.458C623.358,352.752 628.438,354.835 633.83,356.257C639.239,357.684 644.27,359.658 649.492,361.64C651.969,362.578 654.536,363.181 657.031,364.053C657.845,364.384 658.646,364.737 659.44,365.11C659.938,365.356 660.438,365.606 660.943,365.837C663.164,366.939 665.338,368.118 667.615,369.145C671.33,370.818 675.707,371.43 679.743,371.523C684.037,371.623 687.767,370.414 691.776,369.039C695.677,367.706 699.682,366.758 703.561,365.352C707.439,363.946 712.212,363.635 716.241,364.39C720.404,365.171 724.438,365.483 728.679,365.622C732.257,365.74 735.793,366.067 739.349,365.743C739.231,365.942 739.094,366.14 738.919,366.334C738.018,367.348 736.628,367.409 735.711,368.377C734.284,368.293 732.854,368.209 731.424,368.158C728.554,368.052 725.645,367.888 722.775,367.971C719.498,368.063 716.27,368.971 713.023,369.138C712.566,369.163 712.598,369.866 713.029,369.918C715.973,370.278 718.721,370.271 721.693,370.191C725.043,370.103 728.484,370.83 731.84,370.983C735.105,371.132 738.361,371.428 741.627,371.551C744.721,371.668 747.754,371.306 750.834,371.197C750.841,371.543 750.854,371.89 750.873,372.233C750.79,373.505 750.408,374.723 749.162,375.28C748.234,375.694 747.115,375.75 746.121,375.879C744.559,376.081 742.995,376.501 741.459,376.854C735.255,378.277 728.857,378.721 722.617,380.033C722.082,380.146 722.182,380.931 722.734,380.878C730.663,380.105 738.604,379.751 746.512,378.698C748.359,378.451 750.271,378.085 751.645,376.93C751.609,377.068 751.592,377.218 751.609,377.372C751.739,378.638 750.59,380.128 749.613,380.848C747.795,382.183 745.077,382.684 742.979,383.444C737.625,385.382 732.063,386.665 726.711,388.634C726.432,388.733 726.553,389.194 726.848,389.135C730.219,388.443 733.686,388.207 737.1,387.777C740.547,387.347 743.65,386.219 746.905,385.078C748.431,384.544 749.922,383.991 751.172,383.087C751.07,384.373 749.915,385.793 748.941,386.476C746.679,388.054 743.664,388.761 741.17,389.908C738.475,391.154 735.703,392.089 732.831,392.839C731.556,393.173 730.262,393.483 729.035,393.971C727.646,394.521 727.02,395.104 725.99,396.109C725.68,396.414 725.944,396.879 726.363,396.758C727.689,396.374 729.108,396.189 730.454,395.807C732.12,395.335 733.814,394.978 735.493,394.547C738.354,393.813 740.979,392.57 743.691,391.507C743.93,391.657 744.169,391.813 744.181,391.873C744.258,392.419 744.09,392.876 743.747,393.28C743.405,393.676 742.783,393.906 742.318,394.102C741.951,394.257 741.607,394.512 741.27,394.764C740.234,395.093 739.248,395.57 738.191,396.073C736.031,397.106 733.76,397.946 731.554,398.888C726.949,400.852 722.223,402.32 717.295,403.208C715.015,403.618 712.518,403.158 710.219,402.924C707.711,402.669 705.224,402.199 702.767,401.651C697.938,400.574 693.307,398.818 688.617,397.27C684.154,395.795 679.646,394.468 675.072,393.371C672.115,392.661 669.096,392.203 666.07,391.829C665.948,391.728 665.808,391.649 665.643,391.61C663.086,391.014 660.623,390.149 658.041,389.663C655.227,389.137 652.414,388.88 649.567,388.581C644.078,388.004 638.604,387.158 633.141,386.334C627.604,385.501 622.078,384.637 616.492,384.159C614.16,383.96 611.84,383.699 609.495,383.754C606.82,383.816 604.115,384.219 601.521,383.362C600.936,383.168 600.625,383.969 601.168,384.245C603.028,385.19 605.072,385.534 607.118,385.828C609.688,386.198 612.211,386.712 614.729,387.349C620.346,388.767 626.205,389.557 631.918,390.525C634.553,390.972 637.194,391.311 639.843,391.596C641.002,391.789 642.17,391.953 643.32,392.135C641.652,394.237 641.941,397.755 642.156,400.313C642.578,405.372 643.871,410.176 646.838,414.342C652.824,422.748 663.285,428.868 673.724,427.686C673.34,427.963 672.962,428.243 672.59,428.538C668.924,431.438 666.372,435.65 664.01,439.607C663.613,440.268 664.461,440.95 664.973,440.341C668.588,436.047 672.564,432.006 677.564,429.348C682.52,426.711 688.196,425.498 693.682,424.561C704.87,422.648 716.607,422.591 727.835,424.257C735.731,425.435 744.592,428.591 747.471,436.784C748.525,439.796 748.747,443.332 747.378,446.256C746.556,448.014 744.733,448.468 742.965,448.398C740.113,448.287 737.223,447.375 734.42,446.879C728.482,445.826 722.613,445.608 716.601,446.026C710.738,446.438 704.885,447.409 698.998,447.377C696.422,447.36 693.834,447.106 691.32,446.549C689.715,446.188 687.578,445.525 686.756,443.949C685.674,441.879 687.619,439.51 689.063,438.196C690.81,436.606 692.961,435.47 695.117,434.554C703.242,431.102 712.881,431.607 721.278,433.745C721.996,433.93 723.313,434.176 724.211,434.672C724.149,434.688 724.088,434.701 724.027,434.715C722.777,434.985 721.496,435.158 720.238,435.358C714.28,436.31 708.22,436.475 702.279,437.532C699.254,438.068 696.543,438.901 693.982,440.59C692.137,441.804 693.658,444.265 695.482,444.186C696.912,444.126 698.18,444.101 699.564,443.728C700.947,443.357 702.335,443.011 703.717,442.639C706.761,441.819 709.823,441.264 712.938,440.797C716.957,440.193 721.47,440.092 725.44,438.86C728.851,439.246 731.65,434.668 735.198,435.736C735.479,435.822 735.683,435.482 735.454,435.287C733.883,433.943 732.18,433.564 730.144,433.777C729.947,433.799 729.742,433.828 729.533,433.865C729.512,433.773 729.491,433.684 729.462,433.592C729.296,433.037 729.007,432.555 728.639,432.127C729.037,431.893 729.43,431.656 729.814,431.46C731.58,430.557 733.449,430.035 735.262,429.258C735.665,429.082 735.621,428.555 735.255,428.378C733.557,427.545 731.564,427.765 729.809,428.354C728.533,428.783 726.727,429.196 725.438,430.003C725.377,429.977 725.312,429.949 725.25,429.924C721.691,428.43 717.395,427.843 713.591,427.455C704.943,426.573 695.477,427.763 688.109,432.639C687.828,432.06 687.352,431.519 686.824,431.122C685.639,430.226 683.818,429.81 682.484,430.551C681.999,430.82 681.867,431.603 682.492,431.827C683.334,432.125 684.209,432.399 684.942,432.926C685.246,433.147 685.451,433.424 685.588,433.766C685.674,433.984 685.748,434.163 685.833,434.329C685.295,434.784 684.779,435.271 684.3,435.789C684.033,435.609 683.729,435.484 683.438,435.429C679.455,434.662 677.121,437.859 673.768,439.221C673.357,439.389 673.525,440.061 673.971,439.978C676.709,439.453 679.285,438.66 682.045,438.939C680.744,441.475 680.463,444.348 682.171,447.168C684.608,451.203 689.788,452.368 694.131,452.896C705.979,454.34 717.676,450.35 729.541,451.173C732.35,451.369 735.177,451.535 737.972,451.916C740.615,452.277 743.377,452.749 745.992,451.956C747.818,451.405 749.401,450.942 750.713,449.451C751.995,447.993 752.612,446.254 752.993,444.375C753.949,439.675 752.705,434.922 750.158,430.98C755.414,433.714 759.89,437.733 764.231,441.709C766.518,443.795 768.769,445.948 771.24,447.808C773.991,449.877 776.769,451.221 780.055,452.197C782.889,453.039 785.993,453.38 788.93,453.631C791.79,453.873 795.277,454.155 798.02,453.166C798.91,452.848 798.551,451.714 797.798,451.533C795.072,450.886 792.002,451.403 789.216,451.232C785.797,451.023 783.057,450.082 780.359,447.956C775.49,444.124 770.856,440.104 766.285,435.915C761.793,431.796 756.973,428.254 751.266,426.016C748.061,424.757 744.608,423.98 741.305,423.006C741.099,422.944 740.895,422.889 740.691,422.833C733.005,419.199 723.768,419.03 715.474,418.971C709.308,418.927 703.098,419.242 696.969,420.079C696.064,418.053 691.486,416.491 690.234,415.604C688.721,414.531 687.342,413.072 686.112,411.7C684.795,410.232 683.182,408.411 682.947,406.392C682.878,405.814 682.047,405.954 682.068,406.514C682.201,410.132 683.146,413.046 685.237,416.033C686.154,417.344 687.463,418.652 688.761,419.573C689.561,420.141 690.467,420.539 691.322,421.008C689.234,421.412 687.161,421.881 685.107,422.428C682.59,423.1 680.148,424.008 677.84,425.188C677.721,424.912 677.486,424.681 677.098,424.55C672.575,423.024 667.787,422.682 663.316,420.917C658.947,419.189 655.104,416.24 652.016,412.729C649.172,409.491 647.506,405.555 646.153,401.502C645.631,399.93 645.383,398.265 645.164,396.627C645.003,395.428 644.82,393.763 645.037,392.413C648.063,392.9 651.105,393.295 654.152,393.665C652.785,397.382 653.932,402.411 654.908,406C655.865,409.535 658.702,413.865 662.043,415.457C663.003,415.914 664.164,414.954 663.983,413.938C663.367,410.464 660.152,408.256 658.674,405.135C657.791,403.272 657.352,401.139 656.992,399.122C656.686,397.418 656.699,395.598 656.245,393.92C657.352,394.054 658.457,394.182 659.564,394.314C664.686,394.922 669.637,395.667 674.654,396.889C679.776,398.139 684.797,399.754 689.785,401.453C688.305,404.181 688.47,407.387 690.293,410.08C692.288,413.023 696.119,414.207 699.506,413.75C701.43,413.488 703.293,412.74 705.086,412.034C707.29,411.168 709.436,410.716 711.731,410.203C713.65,409.773 717.239,408.416 718.182,406.318C722.963,406.384 727.342,404.966 731.727,403.158C735.828,401.465 740.541,399.565 743.837,396.449C744.082,396.342 744.325,396.217 744.582,396.066C745.498,395.53 746.275,394.668 746.613,393.654C746.967,392.588 746.661,391.381 746.007,390.664C748.523,389.835 750.775,389.083 752.412,386.891C753.432,385.52 755.097,382.738 753.207,381.385C753.127,381.329 753.044,381.287 752.961,381.251C753.203,380.889 753.478,380.437 753.723,379.946C758.675,385.966 767.23,388.138 774.683,388.401C779.518,388.572 784.148,388.306 788.881,387.208C793.858,386.054 798.413,384.094 803.105,382.134C804.149,381.696 803.731,379.945 802.576,380.188Z" style="fill:rgb(182,153,105);fill-rule:nonzero;"/>
                </g>
                <g transform="matrix(1,0,0,1,-309.473,230.063)">
                    <path d="M805.112,393.254C800.844,393.066 796.012,394.579 792.808,397.49C790.984,399.15 789.724,401.373 788.419,403.436C787.012,405.666 785.432,407.52 783.457,409.272C779.691,412.617 776.398,416.217 775.09,421.226C773.768,426.297 775.892,430.334 778.158,434.711C778.379,435.133 779.147,435.147 779.167,434.573C779.307,430.216 777.16,426.232 778.513,421.913C779.943,417.351 783.316,414.563 786.672,411.426C789.973,408.339 791.697,404.309 794.572,400.909C797.379,397.585 801.895,397.944 805.522,396.208C806.815,395.589 806.764,393.327 805.112,393.254Z" style="fill:rgb(182,153,105);fill-rule:nonzero;"/>
                </g>
                <g transform="matrix(1,0,0,1,-309.473,230.063)">
                    <path d="M770.015,408.263C763.509,407.151 756.945,406.407 750.74,404.004C750.246,403.813 749.952,404.551 750.436,404.767C756.761,407.562 762.938,410.799 770.029,409.66C770.835,409.531 770.803,408.397 770.015,408.263Z" style="fill:rgb(182,153,105);fill-rule:nonzero;"/>
                </g>
                <g transform="matrix(1,0,0,1,-309.473,230.063)">
                    <path d="M794.73,390.38C793.237,390.651 791.907,391.354 790.62,392.133C789.106,393.049 788.243,394.19 787.095,395.473C786.869,395.725 787.198,396.089 787.482,395.974C788.819,395.437 790.117,395.091 791.416,394.429C792.696,393.773 794.082,393.314 795.335,392.61C796.408,392.007 796.137,390.124 794.73,390.38Z" style="fill:rgb(182,153,105);fill-rule:nonzero;"/>
                </g>
            </g>
        </g>
    </g>
</svg>
