<?xml version="1.0" encoding="UTF-8" standalone="no"?>
<!DOCTYPE svg PUBLIC "-//W3C//DTD SVG 1.1//EN" "http://www.w3.org/Graphics/SVG/1.1/DTD/svg11.dtd">
<svg width="100%" height="100%" viewBox="0 0 267 180" version="1.1" xmlns="http://www.w3.org/2000/svg" xmlns:xlink="http://www.w3.org/1999/xlink" xml:space="preserve" xmlns:serif="http://www.serif.com/" style="fill-rule:evenodd;clip-rule:evenodd;stroke-linejoin:round;stroke-miterlimit:2;">
    <g transform="matrix(1,0,0,1,-24,-188)">
        <g id="masaz-plecy" transform="matrix(1,0,0,1,23.1451,-112.247)">
            <rect x="0.855" y="300.347" width="266.626" height="179.193" style="fill:none;"/>
            <clipPath id="_clip1">
                <rect x="0.855" y="300.347" width="266.626" height="179.193"/>
            </clipPath>
            <g clip-path="url(#_clip1)">
                <g transform="matrix(1,0,0,1,-838.997,238.476)">
                    <path d="M873.037,192.738C874.853,192.308 876.685,192.015 878.541,191.834C880.14,191.678 881.663,191.843 883.227,191.999C882.938,192.348 882.604,192.68 882.55,193.13C882.493,193.625 882.569,194.203 882.731,194.674C883.036,195.57 883.691,196.25 884.609,196.513C885.906,196.883 887.103,196.662 888.192,196.081C887.792,196.962 887.486,197.876 887.415,198.908C887.335,200.101 888.04,201.719 889.349,201.922C890.595,202.112 891.743,201.691 892.79,200.961C892.96,202.052 893.392,202.961 894.714,203.478C896.753,204.274 898.837,203.113 900.354,201.818C902.222,200.224 903.7,198.194 905.194,196.265C905.504,195.869 905.816,195.48 906.128,195.088C906.424,195.304 906.75,195.489 907.05,195.668C908.36,196.454 909.823,197.003 911.218,197.619C913.965,198.833 916.843,199.834 919.628,200.967C925.425,203.327 931.501,204.28 937.542,205.778C940.459,206.5 943.342,207.329 946.157,208.39C946.692,208.593 947.226,208.802 947.763,209.009C945.164,210.46 942.653,212.072 940.038,213.507C936.216,215.605 931.979,217.05 927.872,218.475C919.572,221.348 911.097,223.712 903.035,227.24C896.735,229.998 893.868,234.73 897.251,234.15C900.21,232.556 903.265,231.127 906.396,229.865C914.226,226.708 922.416,224.544 930.382,221.766C934.337,220.388 938.33,218.923 942.011,216.907C945.562,214.96 948.901,212.627 952.491,210.748C953.152,210.96 953.819,211.152 954.496,211.32C957.552,212.068 960.678,212.297 963.817,212.244C965.487,212.216 967.148,212.014 968.792,211.717C970.323,211.442 971.987,211.205 972.99,209.917C973.54,209.21 973.223,208.14 972.404,207.81C971.039,207.262 969.672,207.743 968.272,207.957C966.604,208.209 964.915,208.289 963.229,208.243C960.113,208.157 957.038,207.564 954.074,206.631C951.29,205.754 948.616,204.558 945.862,203.589C942.978,202.572 939.967,201.859 936.995,201.134C933.951,200.39 930.849,199.922 927.799,199.205C924.853,198.512 921.968,197.446 919.097,196.494C916.222,195.542 913.352,194.649 910.416,193.902C910.14,193.832 908.918,193.39 907.722,193.115C908.658,191.962 909.593,190.809 910.489,189.619C914.03,184.917 917.326,179.703 922.167,176.217C922.941,175.66 923.726,175.123 924.499,174.572C924.458,174.926 924.419,175.248 924.401,175.385C924.272,176.398 924.205,177.442 924.167,178.462C924.103,180.167 923.268,181.825 922.798,183.447C922.503,184.462 922.329,185.527 922.182,186.573C921.675,190.149 922.441,194.439 926.562,194.428C927.14,195.817 929.763,195.845 930.04,193.914C931.322,185.002 936.698,177.494 938.351,168.723C939.122,164.633 938.931,160.31 938.689,156.175C938.448,151.968 937.209,147.821 936.104,143.773C934.827,139.114 935.565,134.238 935.551,129.481C935.534,124.665 935.341,119.851 935.335,115.037C935.33,110.096 935.521,105.156 935.837,100.224C938.268,99.518 940.669,98.814 943.181,98.403C946.027,97.936 948.93,98.085 951.799,98.056C954.493,98.027 957.179,97.784 959.874,97.756C961.98,97.733 964.87,97.333 965.16,94.786C965.255,93.96 964.533,93.25 963.708,93.36C962.701,93.493 961.921,93.954 960.967,94.281C960.007,94.61 958.879,94.654 957.873,94.756C955.21,95.023 952.555,95.315 949.879,95.42C945.322,95.597 940.229,96.251 935.974,98.197C936.261,94.214 936.621,90.237 937.031,86.268C937.661,80.145 938.19,74.016 938.941,67.907C938.996,67.452 938.313,67.375 938.24,67.822C937.466,72.578 936.445,77.285 935.681,82.04C934.918,86.786 934.214,91.539 933.614,96.306C932.416,105.814 931.924,115.309 932.064,124.892C932.134,129.65 931.794,134.421 931.939,139.169C932.078,143.563 933.72,147.799 934.626,152.07C935.53,156.34 936.526,160.494 936.211,164.889C936.066,166.958 935.727,169.073 935.041,171.033C934.29,173.183 933.173,175.206 932.188,177.254C929.891,182.052 927.917,186.991 926.76,192.186C922.789,192.159 924.445,185.697 925.198,183.321C925.631,181.958 926.126,180.636 926.366,179.218C926.526,178.287 926.444,177.262 926.444,176.316C926.444,175.395 926.362,174.5 926.06,173.623C926.037,173.563 926.013,173.514 925.987,173.463C926.632,172.958 927.257,172.424 927.843,171.839C929.192,170.486 931.153,168.14 930.018,166.183C929.798,165.807 929.091,165.708 928.78,166.021C928.136,166.667 927.997,167.358 927.626,168.165C927.229,169.021 926.506,169.778 925.832,170.424C924.285,171.907 922.448,173.08 920.692,174.291C916.597,177.121 913.362,181.233 910.52,185.268C907.7,189.27 904.787,193.167 901.785,197.034C900.525,198.65 899.117,200.421 897.285,201.418C895.589,202.344 894.423,201.533 893.668,200.258C895.327,198.769 896.686,196.64 897.706,195.28C901.108,190.754 904.247,186.048 907.718,181.566C909.639,179.082 914.479,174.967 912.342,171.43C911.868,170.645 910.866,171.208 910.698,171.881C910.312,173.42 910.09,174.65 909.181,176.009C908.261,177.383 907.103,178.59 906.035,179.848C903.261,183.109 900.974,186.884 898.513,190.385C897.354,192.029 896.19,193.668 895.027,195.309C894.05,196.684 893.139,198.089 891.818,199.158C890.79,199.992 889.075,200.886 888.845,198.896C888.714,197.784 889.192,196.314 889.629,195.073C891.763,193.207 893.366,190.153 894.315,188.22C895.899,184.999 897.48,181.78 899.113,178.58C899.936,176.967 900.901,175.468 901.916,173.972C902.859,172.58 903.854,171.225 904.19,169.557C904.323,168.901 903.399,168.344 902.9,168.821C900.774,170.843 899.206,173.797 897.782,176.349C896.108,179.35 894.622,182.505 893.156,185.613C891.888,188.304 890.651,191.373 888.343,193.378C887.642,193.984 885.317,195.068 885.05,193.776C886.456,192.236 887.009,190.01 887.703,188.086C888.752,185.182 889.712,182.221 890.876,179.36C891.866,176.926 893.532,174.568 894.963,172.369C896.209,170.452 897.651,168.4 897.735,166.032C897.778,164.879 896.618,164.182 895.637,164.837C893.788,166.073 892.293,167.751 890.769,169.354C889.017,171.196 887.173,172.929 885.499,174.851C884.288,176.243 883.53,177.939 882.153,179.205C881.407,179.891 880.176,180.571 879.307,179.698C879.179,179.57 879.058,179.451 878.936,179.345C881.162,175.957 883.402,172.666 885.13,168.968C886.003,167.101 886.745,165.179 887.649,163.327C888.626,161.328 889.979,159.514 891.352,157.774C893.989,154.434 897.081,151.473 900.242,148.637C903.091,146.079 906.198,143.752 908.88,141.022C911.716,138.132 912.046,134.679 911.503,130.835C911.212,128.772 910.782,126.743 910.661,124.66C910.522,122.23 910.344,119.81 910.087,117.391C909.087,107.938 908.267,98.47 907.73,88.978C907.301,81.334 907.012,73.733 906.059,66.129C906.01,65.74 905.366,65.728 905.36,66.137C905.167,75.59 905.466,85.012 905.98,94.453C906.068,96.029 906.159,97.605 906.248,99.181C906.196,99.192 906.146,99.209 906.098,99.23C904.372,99.961 902.659,100.353 900.802,100.582C898.394,100.881 896.018,101.441 893.618,101.806C888.413,102.6 883.093,102.436 878.228,100.27C875.753,99.167 873.493,97.5 871.132,96.172C868.646,94.775 866.045,93.593 863.423,92.481C861.003,91.457 858.433,90.626 855.883,89.997C854.589,89.677 853.288,89.385 851.985,89.103C850.333,88.746 848.599,88.812 846.962,88.367C846.763,88.313 846.638,88.6 846.841,88.674C848.165,89.146 849.33,89.966 850.553,90.644C851.897,91.386 853.31,92.019 854.679,92.723C857.365,94.103 860.087,95.42 862.791,96.765C865.329,98.026 867.811,99.415 870.249,100.863C872.911,102.442 875.401,104.226 878.313,105.336C883.691,107.387 889.64,107.205 895.229,106.282C897.834,105.849 900.354,105.086 902.87,104.294C904.139,103.892 905.475,103.412 906.441,102.566C906.838,109.316 907.266,116.07 907.722,122.815C907.865,124.952 908.011,127.047 908.36,129.16C908.712,131.286 909.332,133.72 908.764,135.854C907.854,139.257 904.034,141.553 901.526,143.715C895.305,149.081 888.789,154.83 885.051,162.292C883.745,164.896 882.697,167.635 881.446,170.267C880.085,173.134 878.113,175.69 876.4,178.348C875.621,179.561 876.997,180.903 878.015,180.428C878.372,180.798 878.677,181.249 879.188,181.424C879.907,181.673 880.684,181.706 881.41,181.434C883.18,180.778 884.411,179.265 885.454,177.757C886.112,176.803 886.768,175.925 887.566,175.075C888.582,173.994 889.858,173.181 890.997,172.238C891.659,171.688 892.288,171.1 892.913,170.504C892.343,171.43 891.782,172.357 891.224,173.292C890.396,174.676 889.521,176.024 888.78,177.459C887.977,179.02 887.497,180.767 886.913,182.419C886.299,184.156 885.683,185.894 885.07,187.634C884.96,187.943 884.857,188.261 884.751,188.582C881.185,187.546 877.18,188.054 873.62,188.812C869.847,189.612 866.073,190.748 862.44,192.042C855.126,194.646 847.906,197.485 840.884,200.799C840.579,200.941 840.691,201.43 841.042,201.376C848.287,200.259 855.185,197.865 862.194,195.8C865.796,194.739 869.384,193.602 873.037,192.738Z" style="fill:rgb(182,153,105);fill-rule:nonzero;"/>
                </g>
                <g transform="matrix(1,0,0,1,-838.997,238.476)">
                    <path d="M1034,150.257C1032.67,149.427 1031.27,149.552 1029.77,149.454C1028.24,149.354 1026.77,149.272 1025.26,148.958C1022.58,148.395 1020.29,147.043 1018.64,144.868C1017.1,142.846 1016.32,140.341 1015.77,137.896C1014.99,134.488 1014.39,131.043 1013.95,127.578C1012.5,116.286 1011.45,103.272 1002.33,95.414C1003.12,94.229 1003.92,93.051 1004.73,91.877C1007.08,88.476 1009.5,85.118 1011.93,81.773C1014.44,78.316 1017.02,74.966 1019.11,71.235C1019.78,70.038 1017.95,69.27 1017.15,70.131C1014.32,73.183 1011.96,76.584 1009.52,79.947C1006.98,83.444 1004.46,86.957 1002,90.513C997.104,97.592 992.56,104.89 988.214,112.321C986.132,115.883 984.005,119.421 981.915,122.981C980.007,126.225 978.172,129.608 977.242,133.281C976.63,135.696 976.996,137.886 977.753,139.998C977.712,139.953 977.667,139.908 977.626,139.865C976.131,138.352 974.892,136.63 973.438,135.099C973.214,134.86 972.747,134.985 972.811,135.363C973.453,139.284 977.861,141.485 979.419,144.964C981.345,149.261 982.849,153.804 984.33,158.271C985.104,160.602 985.804,163.047 987.016,165.197C988.194,167.285 988.238,170.062 988.747,172.371C989.196,174.416 989.897,176.445 990.584,178.422C991.182,180.138 991.897,182.023 993.003,183.521C992.425,183.995 991.964,183.91 991.145,183.287C990.653,182.915 990.268,182.62 989.796,182.454C989.415,180.594 988.429,178.842 987.771,177.091C986.736,174.336 985.588,171.655 984.865,168.784C984.762,168.375 984.198,168.446 984.216,168.873C984.344,171.643 984.597,174.235 985.55,176.862C986.565,179.657 987.886,182.211 987.548,185.247C987.239,187.981 987.158,190.716 986.921,193.454C986.808,194.757 986.649,196.156 986.851,197.47C986.149,197.428 985.485,197.238 984.834,196.742C984.381,196.395 984.05,196.029 983.645,195.819C983.587,194.432 983.538,193.047 983.565,191.67C983.601,189.796 983.703,188.063 984.011,186.216C984.271,184.651 984.335,183.101 984.069,181.531C983.089,175.704 978.511,170.989 978.257,164.97C978.235,164.438 977.371,164.456 977.332,164.979C977.141,167.702 977.696,170.129 978.717,172.637C979.828,175.363 981.417,178.019 981.859,180.968C982.128,182.742 981.784,184.34 981.285,186.044C980.776,187.781 980.588,189.496 980.512,191.303C980.377,194.5 980.437,197.775 980.636,200.987C979.837,201.058 979.088,201.092 978.326,200.97C979.333,199.466 978.081,197.211 977.744,195.638C977.337,193.735 977.114,191.805 976.894,189.874C976.679,187.981 976.902,186.125 976.835,184.235C976.693,180.27 974.188,176.57 972.353,173.16C970.656,170.006 968.03,166.914 967.483,163.288C967.404,162.771 966.706,162.818 966.608,163.295C965.948,166.487 967.362,169.149 968.814,171.896C969.658,173.49 970.476,175.092 971.236,176.729C972.101,178.593 973.192,180.583 973.675,182.586C974.087,184.29 973.752,186.125 973.712,187.853C973.673,189.549 973.922,191.238 974.197,192.906C974.448,194.43 974.69,196.098 975.237,197.547C975.38,197.924 975.542,198.296 975.684,198.678C975.771,198.907 975.85,199.14 975.938,199.371C972.456,198.582 970.991,194.768 969.997,191.706C969.367,189.764 969.402,187.601 969.177,185.592C968.951,183.613 968.343,181.831 967.372,180.096C966.499,178.537 965.44,177.109 964.431,175.643C963.165,173.801 962.421,171.761 961.64,169.682C959.991,165.279 957.968,160.945 956.002,156.674C955.835,156.311 955.21,156.443 955.303,156.863C955.789,159.114 956.29,161.293 956.985,163.49C957.745,165.885 958.819,168.153 959.488,170.575C959.503,170.625 959.519,170.675 959.531,170.725C959.458,170.888 959.423,171.08 959.44,171.296C959.712,174.934 959.332,178.468 957.454,181.707C956.927,182.623 956.201,183.766 955.221,184.25C954.307,184.701 954.066,181.176 954.047,180.719C953.97,178.862 954.298,176.992 954.322,175.133C954.351,172.813 954.116,170.5 953.74,168.215C952.984,163.662 951.253,159.353 950.495,154.798C950.13,152.596 950.067,150.383 950.357,148.169C950.681,145.715 951.749,143.387 952.655,141.105C954.392,136.737 956.341,132.456 958.343,128.204C962.337,119.725 966.479,111.325 970.225,102.728C973.066,96.203 975.793,89.63 978.449,83.025C981.096,76.44 984.114,69.889 985.911,63.015C986.06,62.448 985.312,61.88 984.931,62.462C982.429,66.319 980.626,70.482 978.75,74.67C976.837,78.943 975.024,83.28 973.229,87.604C969.645,96.235 966.003,104.845 962.016,113.297C958.004,121.805 953.748,130.204 950.13,138.892C948.329,143.21 946.842,147.26 946.949,152C947.056,156.625 948.734,160.975 949.845,165.406C950.973,169.904 951.147,174.259 950.874,178.857C950.706,181.682 950.9,187.465 954.937,187.526C957.812,187.569 959.825,184.369 960.872,182.068C961.456,180.783 962.067,179.217 962.445,177.601C963.441,179.178 964.542,180.69 965.355,182.377C966.337,184.409 966.379,186.654 966.563,188.862C966.743,191.04 967.292,193.013 968.083,195.042C969.44,198.523 971.646,201.39 975.374,202.25C976.246,204.4 980.24,203.75 982.045,203.83C982.825,203.863 983.655,203.379 983.708,202.52C983.783,201.363 983.783,200.199 983.757,199.034C985.178,199.831 987.095,200.015 988.59,200.155C989.616,200.25 990.487,199.211 990.056,198.219C989.208,196.286 989.653,194.217 989.642,192.169C989.628,189.869 989.849,187.579 989.929,185.286C990.397,185.57 990.896,185.789 991.358,185.916C992.978,186.362 994.258,185.344 995.311,184.235C995.551,183.983 995.6,183.474 995.447,183.167C993.476,179.232 991.79,175.359 991.019,170.979C990.63,168.775 990.303,166.621 989.728,164.458C989.066,161.964 987.913,159.571 986.881,157.209C985.94,155.061 984.954,152.929 984.134,150.729C983.575,149.227 983.041,147.664 982.355,146.193C981.186,142.091 978.396,138.254 979.677,133.9C980.742,130.28 982.65,126.951 984.604,123.75C986.769,120.2 988.963,116.67 991.129,113.124C994.362,107.834 997.615,102.568 1001.02,97.393C1002.04,98.863 1003.14,100.277 1004.11,101.781C1005.96,104.667 1006.84,107.912 1007.47,111.246C1008.8,118.27 1008.72,125.527 1009.85,132.589C1010.83,138.681 1011.92,145.422 1016.64,149.848C1018.89,151.958 1021.73,153.034 1024.69,153.725C1027.51,154.384 1032.19,154.945 1034.31,152.518C1034.85,151.896 1034.7,150.704 1034,150.257Z" style="fill:rgb(182,153,105);fill-rule:nonzero;"/>
                </g>
                <g transform="matrix(1,0,0,1,-838.997,238.476)">
                    <path d="M1106.2,175.189C1104.73,167.811 1101.79,160.694 1097.41,154.564C1095.05,151.251 1092.1,148.406 1089.1,145.675C1085.94,142.797 1082.77,139.944 1079.69,136.981C1073.32,130.852 1067.51,124.197 1062.53,116.885C1057.84,109.992 1054.12,102.229 1054.34,93.716C1054.42,90.453 1055.04,87.223 1055.77,84.052C1056.51,80.867 1057.55,77.814 1057.93,74.555C1058.11,73.003 1056.06,72.636 1055.41,73.912C1053.37,77.917 1052.19,82.386 1051.3,86.784C1050.43,91.093 1050.19,95.551 1050.85,99.904C1052.1,108.18 1056.69,115.533 1061.47,122.212C1066.64,129.428 1072.81,135.869 1079.27,141.928C1085.19,147.486 1091.67,152.518 1096.05,159.47C1100.04,165.803 1102.32,173.232 1103.18,180.631C1104,187.622 1103.44,195 1100.42,201.433C1097.65,207.358 1092.64,212.101 1086.9,215.14C1080.73,218.413 1073.18,220.338 1066.19,219.525C1063.89,219.258 1055.15,216.476 1053.5,216.71C1053.54,216.133 1053.62,215.553 1053.71,214.969C1054.17,212.167 1055.9,209.842 1056.75,207.195C1056.9,206.708 1056.47,206.271 1055.99,206.444C1052.73,207.592 1051.14,211.487 1050.39,214.569C1050.19,215.42 1050.09,216.446 1050.13,217.503C1048.89,217.902 1047.68,218.41 1046.57,218.991C1043.93,220.373 1041.69,222.608 1038.84,223.561C1038.59,223.649 1038.31,223.697 1038.04,223.772C1038.27,223.708 1038,223.725 1037.81,223.575C1037.29,223.173 1037.2,222.163 1037.11,221.583C1036.91,220.241 1037.25,217.828 1035.56,217.228C1034.29,216.777 1033.01,217.425 1031.81,217.829C1030.92,218.13 1030.24,218.142 1029.43,217.601C1029.01,217.32 1028.8,216.722 1028.62,216.275C1028.53,216.042 1028.35,215.855 1028.18,215.668C1029.41,212.932 1029.33,208.912 1030.64,206.449C1031.06,205.673 1029.97,205.005 1029.35,205.465C1027.7,206.684 1027.36,209.442 1026.87,211.292C1026.51,212.687 1026.29,214.732 1025.04,215.409C1024.9,213.8 1024.24,212.398 1022.31,212.026C1019.73,211.53 1015.5,213.253 1014.13,210.037C1013.55,208.661 1013.66,206.952 1013.72,205.496C1013.78,203.766 1013.84,202.024 1014,200.301C1014.37,196.279 1015.69,192.474 1016.25,188.493C1016.32,187.974 1015.63,187.72 1015.32,188.119C1014.85,188.736 1014.43,189.374 1014.05,190.032C1013.95,189.942 1013.83,189.864 1013.69,189.802C1012.67,189.35 1011.76,189.512 1010.81,189.761C1011.4,188.49 1012.18,187.309 1013.19,186.187C1015.1,184.06 1017.65,182.377 1019.99,180.758C1022.4,179.088 1024.64,177.211 1027.04,175.532C1027.24,175.393 1027.05,175.061 1026.83,175.164C1024.92,176.062 1022.93,176.714 1020.97,177.473C1021.87,176.186 1022.65,174.81 1023.34,173.406C1024.2,171.661 1025.14,169.668 1025.03,167.685C1025,167.111 1024.17,166.93 1023.86,167.378C1022.83,168.838 1022.4,170.666 1021.68,172.283C1020.9,174.013 1019.92,175.634 1018.81,177.16C1018.27,177.885 1017.69,178.593 1017.07,179.274C1014.56,180.669 1012.33,182.374 1010.38,184.52C1010.34,184.557 1010.31,184.597 1010.28,184.635C1010.16,184.701 1010.09,184.792 1010.05,184.892C1008.05,187.23 1006.77,190.043 1006.23,193.075C1005.4,197.653 1004.99,202.342 1004.88,206.993C1004.8,211.015 1004.9,214.924 1003.49,218.766C1002.24,222.165 999.884,225.204 997.407,227.804C992.651,232.796 986.306,235.967 979.886,238.233C975.052,239.938 977.039,241.701 981.696,241.37C981.732,241.367 981.765,241.363 981.798,241.361C984.222,240.431 986.591,239.372 988.882,238.154C994.374,235.231 999.331,231.419 1003.06,226.397C1005.09,223.654 1006.58,220.757 1007.36,217.426C1008.21,213.779 1007.97,209.96 1008.13,206.248C1008.31,202.132 1008.97,198.095 1009.57,194.028C1009.67,193.286 1009.83,192.577 1010.02,191.893C1010.93,191.904 1011.84,191.877 1012.71,192.26C1012.79,192.295 1012.87,192.321 1012.94,192.341C1012.11,194.426 1011.61,196.648 1011.21,198.921C1010.64,202.221 1010.33,206 1010.78,209.33C1011.26,212.8 1013.74,214.869 1017.09,215.393C1018.67,215.638 1020.23,215.324 1021.81,215.296C1021.88,215.295 1021.94,215.291 1021.99,215.284C1021.99,215.3 1021.99,215.321 1022,215.345C1022.17,215.781 1022.07,216.465 1022.05,216.919C1022.02,217.679 1022.49,218.552 1023.36,218.584C1025.13,218.648 1026.33,218.12 1027.17,217.232C1027.2,217.356 1027.23,217.479 1027.26,217.592C1027.54,218.505 1028.15,219.429 1029.07,219.802C1030.67,220.452 1032.1,219.95 1033.66,219.39C1034.11,219.227 1034.7,218.856 1034.85,219.445C1035.13,220.549 1034.93,221.771 1035.16,222.901C1035.43,224.226 1036.17,225.533 1037.54,225.938C1040.62,226.856 1043.46,224.429 1045.92,222.833C1047.42,221.852 1048.99,221.131 1050.67,220.555C1052.19,224.831 1053.84,226.972 1056.51,227.506C1056.51,227.506 1054.02,223.476 1053.77,219.78C1054.42,219.682 1055.08,219.629 1055.73,219.626C1056.76,219.626 1070.62,223.879 1076.87,222.667C1083.67,221.348 1090.15,218.477 1095.44,213.971C1100.6,209.573 1104.34,203.66 1106.02,197.091C1107.84,189.967 1107.64,182.361 1106.2,175.189Z" style="fill:rgb(182,153,105);fill-rule:nonzero;"/>
                </g>
                <g transform="matrix(1,0,0,1,-838.997,238.476)">
                    <path d="M1065.22,200.894C1064.56,199.872 1063.21,200.881 1063.51,201.881C1063.95,203.364 1064.5,204.813 1064.86,206.324C1065.2,207.805 1065.2,209.257 1065.17,210.764C1065.16,211.414 1064.96,214.443 1064.25,214.559C1062.76,214.806 1062.86,216.826 1064.27,217.108C1067.18,217.691 1068.08,213.962 1068.28,211.834C1068.64,207.964 1067.29,204.121 1065.22,200.894Z" style="fill:rgb(182,153,105);fill-rule:nonzero;"/>
                </g>
                <g transform="matrix(1,0,0,1,-838.997,238.476)">
                    <path d="M1098.47,183.09C1097.74,175.59 1094.97,168.465 1091.16,162.015C1083.7,149.383 1071.9,139.812 1060.79,130.542C1056.37,126.855 1052.23,122.818 1048.87,118.118C1045.48,113.354 1043.32,107.864 1042.4,102.093C1040.38,89.283 1047.16,76.521 1054.45,66.496C1054.58,66.312 1054.31,66.104 1054.17,66.283C1049.24,72.443 1044.04,78.464 1041.02,85.86C1037.97,93.347 1037.83,101.218 1039.95,108.966C1043.94,123.537 1056.86,132.422 1067.62,141.844C1076.28,149.434 1084.67,157.841 1089.79,168.303C1092.47,173.792 1093.99,179.722 1094.58,185.793C1094.92,189.311 1094.78,193.053 1093.86,196.479C1092.99,199.669 1091.29,202.643 1089.61,205.463C1088.66,207.045 1090.76,208.752 1091.94,207.229C1094.49,203.949 1096.61,200.42 1097.66,196.366C1098.77,192.047 1098.9,187.511 1098.47,183.09Z" style="fill:rgb(182,153,105);fill-rule:nonzero;"/>
                </g>
                <g transform="matrix(1,0,0,1,-838.997,238.476)">
                    <path d="M1091.2,176.837C1089.33,169.489 1084.94,163.294 1079.61,158.019C1073.92,152.375 1067.23,147.798 1060.95,142.841C1054.21,137.521 1047.38,132.051 1041.88,125.414C1035.6,117.825 1032.15,108.33 1032.07,98.49C1032.07,97.832 1031.09,97.664 1031.02,98.363C1030.33,105.726 1031.3,113.259 1034.24,120.07C1037.48,127.583 1042.88,133.408 1048.73,138.977C1055.13,145.073 1062.2,150.383 1069.15,155.814C1074.7,160.144 1080.09,165.125 1083.5,171.37C1085.62,175.264 1086.74,179.467 1087.01,183.884C1087.31,188.816 1085.86,193.088 1084.04,197.585C1083.15,199.789 1086.08,201.248 1087.54,199.562C1092.76,193.549 1093.08,184.224 1091.2,176.837Z" style="fill:rgb(182,153,105);fill-rule:nonzero;"/>
                </g>
                <g transform="matrix(1,0,0,1,-838.997,238.476)">
                    <path d="M1079.46,179.021C1078.44,175.226 1077.03,171.886 1074.86,168.598C1070.31,161.688 1064.87,155.625 1058.35,150.531C1052.18,145.705 1045.19,142.059 1039.05,137.216C1033.53,132.861 1028.87,127.39 1025.58,121.165C1025.22,120.472 1024.12,120.901 1024.44,121.64C1027.12,127.703 1030.69,133.135 1035.36,137.852C1040.7,143.251 1047.11,147.305 1053.07,151.953C1056.2,154.392 1059.41,156.816 1062.17,159.682C1064.9,162.528 1067.34,165.679 1069.71,168.829C1072.01,171.879 1073.92,174.965 1074.98,178.662C1075.47,180.381 1075.91,182.108 1076.21,183.873C1076.56,185.891 1076.41,187.935 1076.72,189.947C1076.98,191.685 1079.7,192.225 1080.27,190.381C1081.41,186.729 1080.42,182.616 1079.46,179.021Z" style="fill:rgb(182,153,105);fill-rule:nonzero;"/>
                </g>
                <g transform="matrix(1,0,0,1,-838.997,238.476)">
                    <path d="M1066,169.989C1065.24,166.475 1062.72,162.593 1058.72,162.666C1056.39,162.708 1054.13,164.249 1052.17,165.353C1050.2,166.466 1048.12,167.373 1046.17,168.525C1044.33,169.609 1042.61,170.995 1041.61,172.913C1040.37,175.281 1041.4,177.508 1042.44,179.695C1042.59,180.019 1043.02,179.872 1043.02,179.536C1042.97,177.506 1042.59,175.507 1043.81,173.721C1044.78,172.292 1046.38,171.398 1047.85,170.563C1049.33,169.722 1050.87,169.02 1052.37,168.229C1054.04,167.355 1055.61,166.35 1057.37,165.652C1060.63,164.359 1062.67,167.577 1063.34,170.356C1063.77,172.119 1063.19,173.627 1062.14,175.042C1061.19,176.322 1059.28,177.351 1059.31,179.071C1059.32,179.47 1059.73,179.803 1060.11,179.848C1061.97,180.07 1063.87,177.363 1064.8,175.991C1066,174.202 1066.46,172.093 1066,169.989Z" style="fill:rgb(182,153,105);fill-rule:nonzero;"/>
                </g>
                <g transform="matrix(1,0,0,1,-838.997,238.476)">
                    <path d="M1073.58,184.198C1073.29,183.314 1072.61,182.931 1072.04,182.257C1071.55,181.668 1071.13,180.997 1070.8,180.302C1070.13,178.856 1069.63,177.317 1068.98,175.856C1068.8,175.45 1068.27,175.646 1068.28,176.045C1068.32,177.984 1067.76,179.845 1067.88,181.794C1068,183.727 1069.68,186.521 1071.82,186.523C1073.13,186.527 1073.99,185.491 1073.58,184.198Z" style="fill:rgb(182,153,105);fill-rule:nonzero;"/>
                </g>
                <g transform="matrix(1,0,0,1,-838.997,238.476)">
                    <path d="M1059.75,167.964C1059.54,167.78 1059.28,168.008 1059.29,168.236C1059.35,169.512 1058.71,171.61 1057.55,172.26C1056.71,172.735 1055.98,172.212 1055.15,172.102C1054.38,171.998 1053.67,172.113 1052.91,172.302C1051.61,172.628 1051.08,173.895 1050.61,175.04C1050.6,175.065 1050.59,175.09 1050.58,175.117C1050.54,175.123 1050.5,175.128 1050.45,175.133C1049.65,175.206 1048.85,175.257 1048.04,175.318C1047.14,175.385 1046.91,176.44 1047.32,177.09C1048.27,178.645 1051.19,179.031 1052.7,178.143C1053.35,177.765 1053.65,177.022 1053.93,176.363C1054.14,175.874 1054.27,175.376 1054.3,174.846C1054.3,174.648 1054.32,174.451 1054.34,174.255C1054.36,173.956 1054.37,173.916 1054.35,174.135C1054.77,173.78 1055.79,174.259 1056.27,174.365C1056.71,174.458 1057.16,174.393 1057.57,174.246C1058.46,173.932 1059.15,173.428 1059.75,172.705C1060.79,171.46 1061.04,169.116 1059.75,167.964Z" style="fill:rgb(182,153,105);fill-rule:nonzero;"/>
                </g>
                <g transform="matrix(1,0,0,1,-838.997,238.476)">
                    <path d="M1047.67,151.432C1046.89,149.049 1043.76,147.961 1041.7,146.935C1039.53,145.849 1037.25,144.967 1035.07,143.877C1033.24,142.96 1031.59,141.735 1030.09,140.351C1028.63,139 1026.36,137.771 1025.97,135.691C1025.89,135.276 1025.28,135.358 1025.32,135.781C1025.49,137.692 1026.39,139.16 1027.4,140.741C1028.68,142.737 1029.97,144.577 1031.68,146.237C1033.64,148.141 1035.96,149.45 1038.31,150.789C1039.55,151.491 1040.81,152.145 1042.03,152.856C1043.32,153.598 1044.63,154.287 1046.14,154.099C1047.46,153.937 1048.05,152.593 1047.67,151.432Z" style="fill:rgb(182,153,105);fill-rule:nonzero;"/>
                </g>
            </g>
        </g>
    </g>
</svg>
